<svg width="74" height="109" viewBox="0 0 74 109" fill="none" xmlns="http://www.w3.org/2000/svg">
<path d="M1.54545 105V93.3636H5.47159C6.22917 93.3636 6.85985 93.4962 7.36364 93.7614C7.87121 94.0265 8.25189 94.3883 8.50568 94.8466C8.75947 95.3049 8.88636 95.8258 8.88636 96.4091C8.88636 96.8939 8.80492 97.3087 8.64205 97.6534C8.47917 97.9981 8.25758 98.2765 7.97727 98.4886C7.69697 98.7008 7.38447 98.8542 7.03977 98.9489V99.0398C7.41477 99.0663 7.77841 99.1989 8.13068 99.4375C8.48295 99.6723 8.77273 100.002 9 100.426C9.22727 100.85 9.34091 101.358 9.34091 101.949C9.34091 102.536 9.21023 103.061 8.94886 103.523C8.6875 103.981 8.28598 104.343 7.74432 104.608C7.20644 104.869 6.52083 105 5.6875 105H1.54545ZM2.60795 104.045H5.6875C6.58523 104.045 7.24811 103.847 7.67614 103.449C8.10795 103.051 8.32386 102.551 8.32386 101.949C8.32386 101.506 8.21591 101.104 8 100.744C7.78788 100.381 7.48674 100.093 7.09659 99.8807C6.71023 99.6686 6.25568 99.5625 5.73295 99.5625H2.60795V104.045ZM2.60795 98.6193H5.56818C6.02652 98.6193 6.42803 98.5246 6.77273 98.3352C7.11742 98.1458 7.38636 97.8845 7.57955 97.5511C7.77273 97.2178 7.86932 96.8371 7.86932 96.4091C7.86932 95.7917 7.66856 95.2898 7.26705 94.9034C6.86553 94.5133 6.26705 94.3182 5.47159 94.3182H2.60795V98.6193ZM15.0866 105.182C14.3329 105.182 13.6662 104.991 13.0866 104.608C12.5109 104.225 12.0601 103.697 11.7344 103.023C11.4086 102.345 11.2457 101.562 11.2457 100.676C11.2457 99.7822 11.4086 98.9962 11.7344 98.3182C12.0601 97.6364 12.5109 97.1061 13.0866 96.7273C13.6662 96.3447 14.3329 96.1534 15.0866 96.1534C15.8404 96.1534 16.5052 96.3447 17.081 96.7273C17.6567 97.1098 18.1075 97.6402 18.4332 98.3182C18.7628 98.9962 18.9276 99.7822 18.9276 100.676C18.9276 101.562 18.7647 102.345 18.4389 103.023C18.1132 103.697 17.6605 104.225 17.081 104.608C16.5052 104.991 15.8404 105.182 15.0866 105.182ZM15.0866 104.256C15.6927 104.256 16.206 104.093 16.6264 103.767C17.0469 103.441 17.3651 103.008 17.581 102.466C17.8007 101.924 17.9105 101.328 17.9105 100.676C17.9105 100.025 17.8007 99.4261 17.581 98.8807C17.3651 98.3352 17.0469 97.8977 16.6264 97.5682C16.206 97.2386 15.6927 97.0739 15.0866 97.0739C14.4844 97.0739 13.9711 97.2386 13.5469 97.5682C13.1264 97.8977 12.8063 98.3352 12.5866 98.8807C12.3707 99.4261 12.2628 100.025 12.2628 100.676C12.2628 101.328 12.3707 101.924 12.5866 102.466C12.8063 103.008 13.1264 103.441 13.5469 103.767C13.9673 104.093 14.4806 104.256 15.0866 104.256ZM24.5398 105.182C23.786 105.182 23.1193 104.991 22.5398 104.608C21.964 104.225 21.5133 103.697 21.1875 103.023C20.8617 102.345 20.6989 101.562 20.6989 100.676C20.6989 99.7822 20.8617 98.9962 21.1875 98.3182C21.5133 97.6364 21.964 97.1061 22.5398 96.7273C23.1193 96.3447 23.786 96.1534 24.5398 96.1534C25.2936 96.1534 25.9583 96.3447 26.5341 96.7273C27.1098 97.1098 27.5606 97.6402 27.8864 98.3182C28.2159 98.9962 28.3807 99.7822 28.3807 100.676C28.3807 101.562 28.2178 102.345 27.892 103.023C27.5663 103.697 27.1136 104.225 26.5341 104.608C25.9583 104.991 25.2936 105.182 24.5398 105.182ZM24.5398 104.256C25.1458 104.256 25.6591 104.093 26.0795 103.767C26.5 103.441 26.8182 103.008 27.0341 102.466C27.2538 101.924 27.3636 101.328 27.3636 100.676C27.3636 100.025 27.2538 99.4261 27.0341 98.8807C26.8182 98.3352 26.5 97.8977 26.0795 97.5682C25.6591 97.2386 25.1458 97.0739 24.5398 97.0739C23.9375 97.0739 23.4242 97.2386 23 97.5682C22.5795 97.8977 22.2595 98.3352 22.0398 98.8807C21.8239 99.4261 21.7159 100.025 21.7159 100.676C21.7159 101.328 21.8239 101.924 22.0398 102.466C22.2595 103.008 22.5795 103.441 23 103.767C23.4205 104.093 23.9337 104.256 24.5398 104.256ZM34.0384 96.2727V97.1534H29.8736V96.2727H34.0384ZM31.1747 94.1818H32.1918V102.722C32.1918 103.085 32.2543 103.371 32.3793 103.58C32.5043 103.784 32.6671 103.93 32.8679 104.017C33.0687 104.1 33.2827 104.142 33.5099 104.142C33.6425 104.142 33.7562 104.134 33.8509 104.119C33.9455 104.1 34.0289 104.081 34.1009 104.062L34.3168 104.977C34.2183 105.015 34.0971 105.049 33.9531 105.08C33.8092 105.114 33.6312 105.131 33.419 105.131C33.0478 105.131 32.6899 105.049 32.3452 104.886C32.0043 104.723 31.724 104.481 31.5043 104.159C31.2846 103.837 31.1747 103.438 31.1747 102.96V94.1818ZM42.0426 98.1875L41.1165 98.4489C41.0256 98.1875 40.8968 97.9508 40.7301 97.7386C40.5634 97.5265 40.3456 97.358 40.0767 97.233C39.8116 97.108 39.482 97.0455 39.0881 97.0455C38.4972 97.0455 38.0123 97.1856 37.6335 97.4659C37.2547 97.7462 37.0653 98.108 37.0653 98.5511C37.0653 98.9261 37.1941 99.2311 37.4517 99.4659C37.7131 99.697 38.1146 99.8807 38.6562 100.017L39.9744 100.341C40.7055 100.519 41.2528 100.801 41.6165 101.188C41.9839 101.574 42.1676 102.059 42.1676 102.642C42.1676 103.134 42.0313 103.572 41.7585 103.955C41.4858 104.337 41.1051 104.638 40.6165 104.858C40.1316 105.074 39.5691 105.182 38.929 105.182C38.0767 105.182 37.3741 104.991 36.821 104.608C36.268 104.222 35.9138 103.665 35.7585 102.938L36.7301 102.699C36.8551 103.218 37.0994 103.61 37.4631 103.875C37.8305 104.14 38.3134 104.273 38.9119 104.273C39.5824 104.273 40.1184 104.123 40.5199 103.824C40.9214 103.521 41.1222 103.142 41.1222 102.688C41.1222 102.335 41.0047 102.04 40.7699 101.801C40.535 101.559 40.179 101.381 39.7017 101.267L38.2756 100.926C37.518 100.744 36.9574 100.456 36.5938 100.062C36.2301 99.6686 36.0483 99.1799 36.0483 98.5966C36.0483 98.1155 36.179 97.6932 36.4403 97.3295C36.7017 96.9621 37.0616 96.6742 37.5199 96.4659C37.9782 96.2576 38.5009 96.1534 39.0881 96.1534C39.8873 96.1534 40.5256 96.3352 41.0028 96.6989C41.4839 97.0587 41.8305 97.5549 42.0426 98.1875ZM47.8196 96.2727V97.1534H43.6548V96.2727H47.8196ZM44.956 94.1818H45.973V102.722C45.973 103.085 46.0355 103.371 46.1605 103.58C46.2855 103.784 46.4484 103.93 46.6491 104.017C46.8499 104.1 47.0639 104.142 47.2912 104.142C47.4238 104.142 47.5374 104.134 47.6321 104.119C47.7268 104.1 47.8101 104.081 47.8821 104.062L48.098 104.977C47.9995 105.015 47.8783 105.049 47.7344 105.08C47.5904 105.114 47.4124 105.131 47.2003 105.131C46.8291 105.131 46.4711 105.049 46.1264 104.886C45.7855 104.723 45.5052 104.481 45.2855 104.159C45.0658 103.837 44.956 103.438 44.956 102.96V94.1818ZM50.1165 105V96.2727H51.0994V97.6136H51.1733C51.3475 97.1742 51.6506 96.8201 52.0824 96.5511C52.518 96.2784 53.0104 96.142 53.5597 96.142C53.643 96.142 53.7358 96.1439 53.8381 96.1477C53.9403 96.1515 54.0256 96.1553 54.0938 96.1591V97.1875C54.0483 97.1799 53.9688 97.1686 53.8551 97.1534C53.7415 97.1383 53.6184 97.1307 53.4858 97.1307C53.0313 97.1307 52.6259 97.2273 52.2699 97.4205C51.9176 97.6098 51.6392 97.8731 51.4347 98.2102C51.2301 98.5473 51.1278 98.9318 51.1278 99.3636V105H50.1165ZM58.2571 105.199C57.7306 105.199 57.2495 105.097 56.8139 104.892C56.3783 104.684 56.0317 104.384 55.7741 103.994C55.5166 103.6 55.3878 103.123 55.3878 102.562C55.3878 102.131 55.4692 101.767 55.6321 101.472C55.795 101.176 56.026 100.934 56.3253 100.744C56.6245 100.555 56.9787 100.405 57.3878 100.295C57.7969 100.186 58.2476 100.1 58.7401 100.04C59.2287 99.9792 59.6416 99.9261 59.9787 99.8807C60.3196 99.8352 60.5791 99.7633 60.7571 99.6648C60.9351 99.5663 61.0241 99.4072 61.0241 99.1875V98.983C61.0241 98.3883 60.8461 97.9205 60.4901 97.5795C60.1378 97.2348 59.6302 97.0625 58.9673 97.0625C58.3385 97.0625 57.8253 97.2008 57.4276 97.4773C57.0336 97.7538 56.7571 98.0795 56.598 98.4545L55.6378 98.108C55.8348 97.6307 56.1075 97.25 56.456 96.9659C56.8045 96.678 57.1946 96.4716 57.6264 96.3466C58.0582 96.2178 58.4957 96.1534 58.9389 96.1534C59.2723 96.1534 59.6188 96.197 59.9787 96.2841C60.3423 96.3712 60.6795 96.5227 60.9901 96.7386C61.3007 96.9508 61.5526 97.2481 61.7457 97.6307C61.9389 98.0095 62.0355 98.4905 62.0355 99.0739V105H61.0241V103.619H60.9616C60.8404 103.877 60.6605 104.127 60.4219 104.369C60.1832 104.612 59.884 104.811 59.5241 104.966C59.1643 105.121 58.742 105.199 58.2571 105.199ZM58.3935 104.273C58.9313 104.273 59.3973 104.153 59.7912 103.915C60.1851 103.676 60.4882 103.36 60.7003 102.966C60.9162 102.568 61.0241 102.131 61.0241 101.653V100.392C60.9484 100.464 60.8215 100.528 60.6435 100.585C60.4692 100.642 60.2666 100.693 60.0355 100.739C59.8082 100.78 59.581 100.816 59.3537 100.847C59.1264 100.877 58.9219 100.903 58.7401 100.926C58.2476 100.987 57.8272 101.081 57.4787 101.21C57.1302 101.339 56.8632 101.517 56.6776 101.744C56.492 101.968 56.3991 102.256 56.3991 102.608C56.3991 103.138 56.5885 103.549 56.9673 103.841C57.3461 104.129 57.8215 104.273 58.3935 104.273ZM64.7259 108.273V96.2727H65.7088V97.9375H65.8281C65.9493 97.6761 66.116 97.4091 66.3281 97.1364C66.5402 96.8598 66.8205 96.6269 67.169 96.4375C67.5213 96.2481 67.9645 96.1534 68.4986 96.1534C69.2183 96.1534 69.8471 96.3428 70.3849 96.7216C70.9266 97.0966 71.3471 97.6231 71.6463 98.3011C71.9493 98.9754 72.1009 99.7614 72.1009 100.659C72.1009 101.561 71.9493 102.35 71.6463 103.028C71.3471 103.706 70.9266 104.235 70.3849 104.614C69.8471 104.992 69.2221 105.182 68.5099 105.182C67.9834 105.182 67.5421 105.087 67.1861 104.898C66.8338 104.708 66.5478 104.475 66.3281 104.199C66.1122 103.919 65.9455 103.646 65.8281 103.381H65.7372V108.273H64.7259ZM65.7259 100.642C65.7259 101.347 65.83 101.972 66.0384 102.517C66.2505 103.059 66.5535 103.485 66.9474 103.795C67.3452 104.102 67.8262 104.256 68.3906 104.256C68.9702 104.256 69.4588 104.097 69.8565 103.778C70.258 103.456 70.563 103.023 70.7713 102.477C70.9834 101.932 71.0895 101.32 71.0895 100.642C71.0895 99.9716 70.9853 99.3674 70.777 98.8295C70.5724 98.2917 70.2694 97.8655 69.8679 97.5511C69.4664 97.233 68.974 97.0739 68.3906 97.0739C67.8224 97.0739 67.3395 97.2273 66.9418 97.5341C66.544 97.8371 66.241 98.2576 66.0327 98.7955C65.8281 99.3295 65.7259 99.9451 65.7259 100.642Z" fill="black"/>
<circle cx="37" cy="36" r="36" fill="#D9AB82"/>
<path d="M13 36C14.2465 36 15.442 35.4469 16.3234 34.4623C17.2048 33.4777 17.7 32.1424 17.7 30.75V20.25C17.7 18.8576 18.1952 17.5223 19.0766 16.5377C19.958 15.5531 21.1535 15 22.4 15H50.6C51.8465 15 53.042 15.5531 53.9234 16.5377C54.8048 17.5223 55.3 18.8576 55.3 20.25V30.75C55.3 32.1424 55.7952 33.4777 56.6766 34.4623C57.558 35.4469 58.7535 36 60 36M13 36C14.2465 36 15.442 36.5531 16.3234 37.5377C17.2048 38.5223 17.7 39.8576 17.7 41.25V51.75C17.7 53.1424 18.1952 54.4777 19.0766 55.4623C19.958 56.4469 21.1535 57 22.4 57H50.6C51.8465 57 53.042 56.4469 53.9234 55.4623C54.8048 54.4777 55.3 53.1424 55.3 51.75V41.25C55.3 39.8576 55.7952 38.5223 56.6766 37.5377C57.558 36.5531 58.7535 36 60 36" stroke="white" stroke-width="3" stroke-linecap="round" stroke-linejoin="round"/>
<path d="M29.45 46.5V25.5H37.675C38.9215 25.5 40.1169 26.0531 40.9984 27.0377C41.8798 28.0223 42.3749 29.3576 42.3749 30.75C42.3749 32.1424 41.8798 33.4777 40.9984 34.4623C40.1169 35.4469 38.9215 36 37.675 36H29.45H38.8499C40.0965 36 41.2919 36.5531 42.1734 37.5377C43.0548 38.5223 43.5499 39.8576 43.5499 41.25C43.5499 42.6424 43.0548 43.9777 42.1734 44.9623C41.2919 45.9469 40.0965 46.5 38.8499 46.5H29.45Z" stroke="white" stroke-width="3" stroke-linecap="round" stroke-linejoin="round"/>
</svg>
