<svg width="80" height="52" viewBox="0 0 80 52" fill="none" xmlns="http://www.w3.org/2000/svg">
<path d="M1.95878 52C1.401 52 0.934441 51.8336 0.559111 51.5008C0.183782 51.168 -0.00257949 50.7566 2.69634e-05 50.2666C0.00263342 49.7767 0.190298 49.3642 0.563021 49.029C0.935744 48.6939 1.39969 48.5275 1.95487 48.5298H78.0451C78.6003 48.5298 79.0643 48.6962 79.437 49.029C79.8097 49.3618 79.9974 49.7732 80 50.2632C80.0026 50.7531 79.8149 51.1657 79.437 51.5008C79.059 51.8359 78.5951 52.0023 78.0451 52H1.95878ZM11.1309 45.0666C9.32984 45.0666 7.82721 44.5316 6.62303 43.4616C5.41885 42.3915 4.81545 41.0592 4.81285 39.4645V5.59867C4.81285 4.00401 5.41624 2.67165 6.62303 1.60161C7.82982 0.531562 9.33114 -0.00230364 11.127 7.47127e-06H68.873C70.6715 7.47127e-06 72.1728 0.533874 73.377 1.60161C74.5812 2.66934 75.1845 4.00169 75.1871 5.59867V39.468C75.1871 41.0627 74.5838 42.3939 73.377 43.4616C72.1702 44.5293 70.6676 45.0643 68.8691 45.0666H11.1309ZM11.1309 41.6H68.873C69.4725 41.6 70.0238 41.377 70.5268 40.9309C71.0299 40.4849 71.2801 39.9961 71.2775 39.4645V5.59867C71.2775 5.06712 71.0272 4.57832 70.5268 4.13227C70.0238 3.68623 69.4712 3.46321 68.8691 3.46321H11.1309C10.5288 3.46321 9.97624 3.68623 9.47319 4.13227C8.97275 4.576 8.72253 5.06481 8.72253 5.59867V39.468C8.72253 39.9995 8.97275 40.4872 9.47319 40.9309C9.97363 41.3746 10.5249 41.5977 11.127 41.6" fill="white"/>
</svg>
