<svg width="72" height="107" viewBox="0 0 72 107" fill="none" xmlns="http://www.w3.org/2000/svg">
<path d="M33.9957 96C33.8632 95.517 33.669 95.0649 33.4134 94.6435C33.1577 94.2173 32.8404 93.8456 32.4616 93.5284C32.0876 93.2064 31.6544 92.9555 31.1619 92.7756C30.6742 92.5956 30.1297 92.5057 29.5284 92.5057C28.5814 92.5057 27.7339 92.7519 26.9858 93.2443C26.2377 93.7367 25.6458 94.447 25.2102 95.375C24.7794 96.303 24.5639 97.4205 24.5639 98.7273C24.5639 100.029 24.7817 101.144 25.2173 102.072C25.6529 103 26.2495 103.713 27.0071 104.21C27.7694 104.703 28.6406 104.949 29.6207 104.949C30.5156 104.949 31.3063 104.75 31.9929 104.352C32.6795 103.955 33.2145 103.386 33.598 102.648C33.9863 101.909 34.1757 101.031 34.1662 100.013L34.5923 100.148H29.9332V98.9545H35.4588V100.148C35.4588 101.388 35.2079 102.461 34.706 103.365C34.2041 104.269 33.5152 104.968 32.6392 105.46C31.7633 105.953 30.7571 106.199 29.6207 106.199C28.3518 106.199 27.2415 105.893 26.2898 105.283C25.3381 104.667 24.5971 103.801 24.0668 102.683C23.5412 101.561 23.2784 100.242 23.2784 98.7273C23.2784 97.5862 23.4299 96.5563 23.733 95.6378C24.036 94.7192 24.4645 93.9332 25.0185 93.2798C25.5772 92.6264 26.2377 92.1269 27 91.7812C27.7623 91.4309 28.6051 91.2557 29.5284 91.2557C30.3239 91.2557 31.0507 91.3812 31.7088 91.6321C32.3717 91.883 32.9541 92.2287 33.456 92.669C33.9626 93.1046 34.3769 93.6089 34.6989 94.1818C35.0256 94.75 35.2457 95.3561 35.3594 96H33.9957ZM39.1911 106V95.0909H40.4624V106H39.1911ZM39.8374 93.2159C39.5769 93.2159 39.3544 93.1283 39.1697 92.9531C38.9851 92.7732 38.8928 92.5578 38.8928 92.3068C38.8928 92.0559 38.9851 91.8428 39.1697 91.6676C39.3544 91.4877 39.5769 91.3977 39.8374 91.3977C40.0978 91.3977 40.3203 91.4877 40.505 91.6676C40.6896 91.8428 40.782 92.0559 40.782 92.3068C40.782 92.5578 40.6896 92.7732 40.505 92.9531C40.3203 93.1283 40.0978 93.2159 39.8374 93.2159ZM48.1026 95.0909V96.1918H42.8967V95.0909H48.1026ZM44.5231 92.4773H45.7944V103.152C45.7944 103.607 45.8725 103.964 46.0288 104.224C46.185 104.48 46.3886 104.662 46.6396 104.771C46.8905 104.875 47.158 104.928 47.4421 104.928C47.6078 104.928 47.7499 104.918 47.8683 104.899C47.9866 104.875 48.0908 104.852 48.1808 104.828L48.4506 105.972C48.3275 106.019 48.176 106.062 47.9961 106.099C47.8162 106.142 47.5936 106.163 47.3285 106.163C46.8645 106.163 46.417 106.062 45.9862 105.858C45.56 105.654 45.2096 105.351 44.935 104.949C44.6604 104.546 44.5231 104.047 44.5231 103.45V92.4773Z" fill="black"/>
<circle cx="36" cy="36" r="36" fill="#D9AB82"/>
<path d="M39.0646 27.8898L44.096 32.9214M27.3026 16.1275L32.9267 21.7518M9.92966 33.5141C9.33021 34.2024 9 35.0843 9 35.997C9 36.9097 9.33021 37.7916 9.92966 38.4799L33.5195 62.0703C34.2077 62.6698 35.0896 63 36.0022 63C36.9149 63 37.7968 62.6698 38.485 62.0703L62.0617 38.4799C62.6663 37.7941 63 36.9113 63 35.997C63 35.0827 62.6663 34.1999 62.0617 33.5141L38.485 9.92369C37.8068 9.30415 36.9138 8.97339 35.9957 9.00168C35.0797 8.97762 34.1908 9.31333 33.5195 9.93686L9.92966 33.5141Z" stroke="white" stroke-width="3" stroke-linecap="round" stroke-linejoin="round"/>
<path d="M36 52C38.2091 52 40 49.9853 40 47.5C40 45.0147 38.2091 43 36 43C33.7909 43 32 45.0147 32 47.5C32 49.9853 33.7909 52 36 52Z" stroke="white" stroke-width="3" stroke-linecap="round" stroke-linejoin="round"/>
<path d="M36 29C38.2091 29 40 26.9853 40 24.5C40 22.0147 38.2091 20 36 20C33.7909 20 32 22.0147 32 24.5C32 26.9853 33.7909 29 36 29Z" stroke="white" stroke-width="3" stroke-linecap="round" stroke-linejoin="round"/>
<path d="M47 40C49.2091 40 51 38.2091 51 36C51 33.7909 49.2091 32 47 32C44.7909 32 43 33.7909 43 36C43 38.2091 44.7909 40 47 40Z" stroke="white" stroke-width="3" stroke-linecap="round" stroke-linejoin="round"/>
<path d="M36 43V29" stroke="white" stroke-width="3" stroke-linecap="round" stroke-linejoin="round"/>
</svg>
