<svg width="56" height="56" viewBox="0 0 56 56" fill="none" xmlns="http://www.w3.org/2000/svg">
<path d="M28 2C21.8272 1.99675 15.8549 4.24714 11.1525 8.34822C6.44999 12.4493 3.32451 18.1332 2.33566 24.3822C1.34682 30.6312 2.55919 37.0371 5.75568 42.453C8.95217 47.8688 13.924 51.9408 19.781 53.9398C21.0863 54.1877 21.5577 53.3696 21.5577 52.7002V48.1756C14.3057 49.7871 12.8069 44.6055 12.8069 44.6055C12.3272 42.966 11.2835 41.5609 9.86982 40.6511C7.51289 39.0025 10.0511 39.0272 10.0511 39.0272C10.8744 39.1454 11.6606 39.4547 12.3497 39.9316C13.0388 40.4085 13.6127 41.0404 14.0277 41.7792C16.3483 45.8575 20.0711 44.6799 21.594 43.9981C21.7132 42.6436 22.3005 41.3774 23.2499 40.428C17.4724 39.7586 11.4048 37.4777 11.4048 27.2633C11.3678 24.6137 12.329 22.0516 14.0881 20.1108C13.2884 17.8131 13.3792 15.2883 14.3419 13.0574C14.3419 13.0574 16.5175 12.3384 21.4852 15.7845C25.7427 14.5945 30.2331 14.5945 34.4906 15.7845C39.4583 12.3384 41.6339 13.0574 41.6339 13.0574C42.5893 15.29 42.68 17.8119 41.8877 20.1108C43.6446 22.0521 44.6017 24.615 44.5589 27.2633C44.5589 37.5025 38.5155 39.7462 32.7017 40.4156C33.3256 41.0639 33.806 41.8422 34.1105 42.6978C34.415 43.5534 34.5364 44.4661 34.4664 45.3741V52.6878C34.4664 53.5679 34.9378 54.2249 36.2553 53.9274C42.1062 51.9206 47.0702 47.8444 50.2591 42.4278C53.4481 37.0113 54.6541 30.6078 53.6613 24.3629C52.6685 18.1179 49.5417 12.439 44.8403 8.34186C40.1388 4.24474 34.1695 1.99675 28 2Z" stroke="white" stroke-width="4" stroke-linecap="round" stroke-linejoin="round"/>
</svg>
