<svg width="108" height="109" viewBox="0 0 108 109" fill="none" xmlns="http://www.w3.org/2000/svg">
<path d="M53.5257 3.00001C41.5302 2.99361 29.9242 7.41613 20.7859 15.4756C11.6477 23.5351 5.57392 34.7053 3.6523 46.9859C1.73067 59.2665 4.08667 71.8556 10.2984 82.4989C16.5101 93.1421 26.172 101.144 37.5537 105.073C40.0905 105.56 41.0065 103.952 41.0065 102.637V93.7451C26.9136 96.912 24.001 86.7291 24.001 86.7291C23.0689 83.5072 21.0407 80.7458 18.2934 78.9579C13.7132 75.7179 18.6457 75.7666 18.6457 75.7666C20.2456 75.9988 21.7733 76.6067 23.1125 77.5439C24.4516 78.4811 25.5669 79.7229 26.3734 81.1748C30.8831 89.1896 38.1175 86.8753 41.077 85.5354C41.3086 82.8736 42.4499 80.3852 44.2949 78.5194C33.0675 77.2039 21.2764 72.7215 21.2764 52.6479C21.2044 47.4408 23.0723 42.4058 26.4908 38.5916C24.9367 34.0762 25.1133 29.1144 26.984 24.7301C26.984 24.7301 31.2119 23.3172 40.8656 30.0895C49.1391 27.7508 57.8654 27.7508 66.1389 30.0895C75.7926 23.3172 80.0205 24.7301 80.0205 24.7301C81.877 29.1177 82.0534 34.0739 80.5137 38.5916C83.9279 42.4068 85.7878 47.4433 85.7046 52.6479C85.7046 72.7702 73.9605 77.1795 62.6627 78.495C63.8749 79.769 64.8086 81.2986 65.4003 82.98C65.9921 84.6614 66.2279 86.4552 66.0919 88.2395V102.613C66.0919 104.342 67.008 105.633 69.5682 105.049C80.9384 101.105 90.5848 93.0941 96.7819 82.4494C102.979 71.8047 105.323 59.2205 103.393 46.9479C101.464 34.6753 95.3877 23.5149 86.2514 15.4631C77.1151 7.41141 65.5149 2.9936 53.5257 3.00001Z" stroke="white" stroke-width="6" stroke-linecap="round" stroke-linejoin="round"/>
</svg>
