<svg width="72" height="106" viewBox="0 0 72 106" fill="none" xmlns="http://www.w3.org/2000/svg">
<circle cx="36" cy="36" r="36" fill="#D9AB82"/>
<path d="M15.9318 105V90.4545H17.2599V97.1236H25.5128V90.4545H26.8409V105H25.5128V98.3168H17.2599V105H15.9318ZM34.7315 94.0909V95.1918H29.5256V94.0909H34.7315ZM31.152 91.4773H32.4233V102.152C32.4233 102.607 32.5014 102.964 32.6577 103.224C32.8139 103.48 33.0175 103.662 33.2685 103.771C33.5194 103.875 33.7869 103.928 34.071 103.928C34.2367 103.928 34.3788 103.918 34.4972 103.899C34.6155 103.875 34.7197 103.852 34.8097 103.828L35.0795 104.972C34.9564 105.019 34.8049 105.062 34.625 105.099C34.4451 105.142 34.2225 105.163 33.9574 105.163C33.4934 105.163 33.0459 105.062 32.6151 104.858C32.1889 104.654 31.8385 104.351 31.5639 103.949C31.2893 103.546 31.152 103.047 31.152 102.45V91.4773ZM37.6026 105V94.0909H38.8313V95.767H38.945C39.1628 95.2036 39.525 94.7609 40.0316 94.4389C40.543 94.1122 41.1561 93.9489 41.8711 93.9489C42.6239 93.9489 43.2418 94.1264 43.7248 94.4815C44.2125 94.8319 44.5771 95.3149 44.8185 95.9304H44.9109C45.1571 95.3243 45.5572 94.8437 46.1112 94.4886C46.6699 94.1288 47.3469 93.9489 48.1424 93.9489C49.1557 93.9489 49.9558 94.2685 50.543 94.9077C51.1301 95.5421 51.4237 96.4702 51.4237 97.6918V105H50.1594V97.6918C50.1594 96.83 49.9393 96.1837 49.4989 95.7528C49.0586 95.322 48.4786 95.1065 47.7589 95.1065C46.9255 95.1065 46.284 95.3622 45.8342 95.8736C45.3844 96.3849 45.1594 97.0336 45.1594 97.8196V105H43.8668V97.5781C43.8668 96.8395 43.6609 96.2429 43.2489 95.7884C42.837 95.3338 42.257 95.1065 41.5089 95.1065C41.007 95.1065 40.5548 95.2296 40.1523 95.4759C39.7546 95.7221 39.4397 96.0653 39.2077 96.5057C38.9805 96.9413 38.8668 97.4432 38.8668 98.0114V105H37.6026ZM56.0348 90.4545V105H54.7706V90.4545H56.0348Z" fill="black"/>
<path d="M17.3768 17C15.5799 17 14.1861 18.5689 14.3977 20.3533L18.5615 55.4606C18.7059 56.6782 19.5767 57.6853 20.7606 58.0041L34.82 61.79C35.3309 61.9275 35.8691 61.9275 36.38 61.79L50.4394 58.0041C51.6233 57.6853 52.4941 56.6782 52.6385 55.4606L56.8023 20.3533C57.0139 18.5689 55.6201 17 53.8232 17H17.3768Z" stroke="white" stroke-width="3" stroke-linecap="round" stroke-linejoin="round"/>
<path d="M48.2899 26H26.0439C24.2374 26 22.8406 27.5848 23.0676 29.377L23.6576 34.0349C23.8475 35.534 25.1228 36.6579 26.6339 36.6579H42.2629C44.0421 36.6579 45.4303 38.1975 45.2469 39.9671L44.4565 47.5943C44.3265 48.849 43.4254 49.8883 42.2018 50.195L35.5192 51.8698C35.0404 51.9898 34.5394 51.9898 34.0606 51.8698L27.3559 50.1895C26.1432 49.8855 25.2461 48.8614 25.1045 47.6193L24.6649 43.7632" stroke="white" stroke-width="3" stroke-linecap="round" stroke-linejoin="round"/>
</svg>
