<svg width="50" height="84" viewBox="0 0 50 84" fill="none" xmlns="http://www.w3.org/2000/svg">
<path d="M23.397 76C23.3042 75.6619 23.1683 75.3454 22.9893 75.0504C22.8104 74.7521 22.5883 74.492 22.3232 74.2699C22.0613 74.0445 21.758 73.8688 21.4134 73.7429C21.072 73.617 20.6908 73.554 20.2699 73.554C19.607 73.554 19.0137 73.7263 18.4901 74.071C17.9664 74.4157 17.5521 74.9129 17.2472 75.5625C16.9455 76.2121 16.7947 76.9943 16.7947 77.9091C16.7947 78.8205 16.9472 79.6011 17.2521 80.2507C17.5571 80.9003 17.9747 81.3991 18.505 81.7472C19.0386 82.0919 19.6484 82.2642 20.3345 82.2642C20.9609 82.2642 21.5144 82.125 21.995 81.8466C22.4756 81.5682 22.8501 81.1705 23.1186 80.6534C23.3904 80.1364 23.523 79.5215 23.5163 78.8089L23.8146 78.9034H20.5533V78.0682H24.4212V78.9034C24.4212 79.7718 24.2455 80.5225 23.8942 81.1555C23.5429 81.7886 23.0606 82.2775 22.4474 82.6222C21.8343 82.9669 21.13 83.1392 20.3345 83.1392C19.4463 83.1392 18.669 82.9254 18.0028 82.4979C17.3366 82.067 16.8179 81.4605 16.4467 80.6783C16.0788 79.8928 15.8949 78.9697 15.8949 77.9091C15.8949 77.1103 16.0009 76.3894 16.2131 75.7464C16.4252 75.1035 16.7251 74.5533 17.1129 74.0959C17.504 73.6385 17.9664 73.2888 18.5 73.0469C19.0336 72.8016 19.6236 72.679 20.2699 72.679C20.8267 72.679 21.3355 72.7668 21.7962 72.9425C22.2602 73.1181 22.6679 73.3601 23.0192 73.6683C23.3738 73.9732 23.6638 74.3262 23.8892 74.7273C24.1179 75.125 24.272 75.5492 24.3516 76H23.397ZM27.0337 83V75.3636H27.9237V83H27.0337ZM27.4862 74.0511C27.3039 74.0511 27.1481 73.9898 27.0188 73.8672C26.8896 73.7412 26.8249 73.5904 26.8249 73.4148C26.8249 73.2391 26.8896 73.09 27.0188 72.9673C27.1481 72.8414 27.3039 72.7784 27.4862 72.7784C27.6684 72.7784 27.8242 72.8414 27.9535 72.9673C28.0827 73.09 28.1474 73.2391 28.1474 73.4148C28.1474 73.5904 28.0827 73.7412 27.9535 73.8672C27.8242 73.9898 27.6684 74.0511 27.4862 74.0511ZM33.2718 75.3636V76.1342H29.6277V75.3636H33.2718ZM30.7662 73.5341H31.6561V81.0064C31.6561 81.3246 31.7108 81.5748 31.8201 81.7571C31.9295 81.9361 32.072 82.0637 32.2477 82.1399C32.4234 82.2128 32.6106 82.2493 32.8095 82.2493C32.9255 82.2493 33.0249 82.2427 33.1078 82.2294C33.1906 82.2128 33.2636 82.1963 33.3265 82.1797L33.5154 82.9801C33.4293 83.0133 33.3232 83.0431 33.1973 83.0696C33.0713 83.0994 32.9155 83.1143 32.7299 83.1143C32.4051 83.1143 32.0919 83.0431 31.7903 82.9006C31.492 82.758 31.2467 82.5459 31.0545 82.2642C30.8623 81.9825 30.7662 81.6328 30.7662 81.2152V73.5341Z" fill="black"/>
<circle cx="25" cy="25" r="25" fill="#DE0756"/>
<mask id="path-3-inside-1_84_142" fill="white">
<path d="M22.195 7.41323L7.41347 22.1922L9.28432 24.063L24.0633 9.28408L22.195 7.41323ZM7.41347 27.8047L22.1924 42.5863L24.0633 40.7128L9.28432 25.9339L7.41347 27.8047ZM27.8076 42.5836L42.5865 27.8074L40.7157 25.9339L25.9368 40.7128L27.8076 42.5836ZM42.5865 22.1895L27.8076 7.41323L25.9368 9.28408L40.7157 24.063L42.5865 22.1895ZM42.5865 27.8074C42.9554 27.4387 43.248 26.9984 43.4476 26.5167C43.6473 26.0349 43.75 25.5186 43.75 24.9971C43.75 24.4756 43.6473 23.9593 43.4476 23.4775C43.248 22.9958 42.9554 22.5581 42.5865 22.1895L40.7157 24.0604C40.8389 24.1833 40.9367 24.3293 41.0034 24.49C41.0701 24.6508 41.1044 24.8231 41.1044 24.9971C41.1044 25.1711 41.0701 25.3435 41.0034 25.5042C40.9367 25.665 40.8389 25.811 40.7157 25.9339L42.5865 27.8074ZM22.1924 42.5863C22.561 42.9551 23.0013 43.2477 23.4831 43.4474C23.9648 43.647 24.4812 43.7498 25.0026 43.7498C25.5241 43.7498 26.0405 43.647 26.5222 43.4474C27.004 43.2477 27.4416 42.9551 27.8102 42.5863L25.9368 40.7154C25.8138 40.8386 25.6705 40.9364 25.5097 41.0031C25.349 41.0698 25.1767 41.1041 25.0026 41.1041C24.8286 41.1041 24.6563 41.0698 24.4956 41.0031C24.3348 40.9364 24.1888 40.8386 24.0659 40.7154L22.1924 42.5863ZM7.41347 22.1922C7.04462 22.5608 6.75202 23.0011 6.55239 23.4828C6.35275 23.9646 6.25 24.4809 6.25 25.0024C6.25 25.5239 6.35275 26.0402 6.55239 26.522C6.75202 27.0037 7.04462 27.4414 7.41347 27.81L9.28432 25.9365C9.16111 25.8136 9.06335 25.6702 8.99665 25.5095C8.92995 25.3488 8.89562 25.1764 8.89562 25.0024C8.89562 24.8284 8.92995 24.656 8.99665 24.4953C9.06335 24.3346 9.16111 24.1859 9.28432 24.063L7.41347 22.1922ZM24.0633 9.28673C24.1862 9.16351 24.3322 9.06575 24.4929 8.99905C24.6536 8.93235 24.826 8.89802 25 8.89802C25.174 8.89802 25.3464 8.93235 25.5071 8.99905C25.6678 9.06575 25.8138 9.16351 25.9368 9.28673L27.8076 7.41323C27.439 7.04438 26.9987 6.75178 26.5169 6.55214C26.0352 6.35251 25.5188 6.24976 24.9974 6.24976C24.4759 6.24976 23.9595 6.35251 23.4778 6.55214C22.9961 6.75178 22.5584 7.04438 22.1898 7.41323L24.0633 9.28673ZM18.7709 12.7082L21.4171 15.3544L23.2906 13.4809L20.6444 10.8347L18.7709 12.7082ZM25 18.3843C24.6491 18.3843 24.3126 18.2449 24.0644 17.9968C23.8163 17.7486 23.6769 17.4121 23.6769 17.0612H21.0307C21.0307 18.1139 21.4489 19.1235 22.1933 19.8679C22.9377 20.6123 23.9473 21.0305 25 21.0305V18.3843ZM26.3231 17.0612C26.3231 17.4121 26.1837 17.7486 25.9356 17.9968C25.6874 18.2449 25.3509 18.3843 25 18.3843V21.0305C26.0527 21.0305 27.0623 20.6123 27.8067 19.8679C28.5511 19.1235 28.9693 18.1139 28.9693 17.0612H26.3231ZM25 15.7381C25.3509 15.7381 25.6874 15.8775 25.9356 16.1256C26.1837 16.3738 26.3231 16.7103 26.3231 17.0612H28.9693C28.9693 16.0085 28.5511 14.9989 27.8067 14.2545C27.0623 13.5101 26.0527 13.0919 25 13.0919V15.7381ZM25 13.0919C23.9473 13.0919 22.9377 13.5101 22.1933 14.2545C21.4489 14.9989 21.0307 16.0085 21.0307 17.0612H23.6769C23.6769 16.7103 23.8163 16.3738 24.0644 16.1256C24.3126 15.8775 24.6491 15.7381 25 15.7381V13.0919ZM26.7094 20.6441L30.6787 24.6134L32.5496 22.7399L28.5803 18.7706L26.7094 20.6441ZM32.9385 26.3228C32.5876 26.3228 32.2511 26.1835 32.003 25.9353C31.7549 25.6872 31.6155 25.3507 31.6155 24.9998H28.9693C28.9693 26.0525 29.3875 27.0621 30.1318 27.8065C30.8762 28.5508 31.8858 28.969 32.9385 28.969V26.3228ZM34.2616 24.9998C34.2616 25.3507 34.1222 25.6872 33.8741 25.9353C33.626 26.1835 33.2895 26.3228 32.9385 26.3228V28.969C33.9913 28.969 35.0009 28.5508 35.7453 27.8065C36.4896 27.0621 36.9078 26.0525 36.9078 24.9998H34.2616ZM32.9385 23.6767C33.2895 23.6767 33.626 23.8161 33.8741 24.0642C34.1222 24.3123 34.2616 24.6489 34.2616 24.9998H36.9078C36.9078 23.947 36.4896 22.9374 35.7453 22.1931C35.0009 21.4487 33.9913 21.0305 32.9385 21.0305V23.6767ZM32.9385 21.0305C31.8858 21.0305 30.8762 21.4487 30.1318 22.1931C29.3875 22.9374 28.9693 23.947 28.9693 24.9998H31.6155C31.6155 24.6489 31.7549 24.3123 32.003 24.0642C32.2511 23.8161 32.5876 23.6767 32.9385 23.6767V21.0305ZM23.6769 19.7074V30.2921H26.3231V19.7074H23.6769ZM25 34.2614C24.6491 34.2614 24.3126 34.122 24.0644 33.8739C23.8163 33.6257 23.6769 33.2892 23.6769 32.9383H21.0307C21.0307 33.991 21.4489 35.0006 22.1933 35.745C22.9377 36.4894 23.9473 36.9076 25 36.9076V34.2614ZM26.3231 32.9383C26.3231 33.2892 26.1837 33.6257 25.9356 33.8739C25.6874 34.122 25.3509 34.2614 25 34.2614V36.9076C26.0527 36.9076 27.0623 36.4894 27.8067 35.745C28.5511 35.0006 28.9693 33.991 28.9693 32.9383H26.3231ZM25 31.6152C25.3509 31.6152 25.6874 31.7546 25.9356 32.0027C26.1837 32.2509 26.3231 32.5874 26.3231 32.9383H28.9693C28.9693 31.8856 28.5511 30.876 27.8067 30.1316C27.0623 29.3872 26.0527 28.969 25 28.969V31.6152ZM25 28.969C23.9473 28.969 22.9377 29.3872 22.1933 30.1316C21.4489 30.876 21.0307 31.8856 21.0307 32.9383H23.6769C23.6769 32.5874 23.8163 32.2509 24.0644 32.0027C24.3126 31.7546 24.6491 31.6152 25 31.6152V28.969Z"/>
</mask>
<path d="M22.195 7.41323L7.41347 22.1922L9.28432 24.063L24.0633 9.28408L22.195 7.41323ZM7.41347 27.8047L22.1924 42.5863L24.0633 40.7128L9.28432 25.9339L7.41347 27.8047ZM27.8076 42.5836L42.5865 27.8074L40.7157 25.9339L25.9368 40.7128L27.8076 42.5836ZM42.5865 22.1895L27.8076 7.41323L25.9368 9.28408L40.7157 24.063L42.5865 22.1895ZM42.5865 27.8074C42.9554 27.4387 43.248 26.9984 43.4476 26.5167C43.6473 26.0349 43.75 25.5186 43.75 24.9971C43.75 24.4756 43.6473 23.9593 43.4476 23.4775C43.248 22.9958 42.9554 22.5581 42.5865 22.1895L40.7157 24.0604C40.8389 24.1833 40.9367 24.3293 41.0034 24.49C41.0701 24.6508 41.1044 24.8231 41.1044 24.9971C41.1044 25.1711 41.0701 25.3435 41.0034 25.5042C40.9367 25.665 40.8389 25.811 40.7157 25.9339L42.5865 27.8074ZM22.1924 42.5863C22.561 42.9551 23.0013 43.2477 23.4831 43.4474C23.9648 43.647 24.4812 43.7498 25.0026 43.7498C25.5241 43.7498 26.0405 43.647 26.5222 43.4474C27.004 43.2477 27.4416 42.9551 27.8102 42.5863L25.9368 40.7154C25.8138 40.8386 25.6705 40.9364 25.5097 41.0031C25.349 41.0698 25.1767 41.1041 25.0026 41.1041C24.8286 41.1041 24.6563 41.0698 24.4956 41.0031C24.3348 40.9364 24.1888 40.8386 24.0659 40.7154L22.1924 42.5863ZM7.41347 22.1922C7.04462 22.5608 6.75202 23.0011 6.55239 23.4828C6.35275 23.9646 6.25 24.4809 6.25 25.0024C6.25 25.5239 6.35275 26.0402 6.55239 26.522C6.75202 27.0037 7.04462 27.4414 7.41347 27.81L9.28432 25.9365C9.16111 25.8136 9.06335 25.6702 8.99665 25.5095C8.92995 25.3488 8.89562 25.1764 8.89562 25.0024C8.89562 24.8284 8.92995 24.656 8.99665 24.4953C9.06335 24.3346 9.16111 24.1859 9.28432 24.063L7.41347 22.1922ZM24.0633 9.28673C24.1862 9.16351 24.3322 9.06575 24.4929 8.99905C24.6536 8.93235 24.826 8.89802 25 8.89802C25.174 8.89802 25.3464 8.93235 25.5071 8.99905C25.6678 9.06575 25.8138 9.16351 25.9368 9.28673L27.8076 7.41323C27.439 7.04438 26.9987 6.75178 26.5169 6.55214C26.0352 6.35251 25.5188 6.24976 24.9974 6.24976C24.4759 6.24976 23.9595 6.35251 23.4778 6.55214C22.9961 6.75178 22.5584 7.04438 22.1898 7.41323L24.0633 9.28673ZM18.7709 12.7082L21.4171 15.3544L23.2906 13.4809L20.6444 10.8347L18.7709 12.7082ZM25 18.3843C24.6491 18.3843 24.3126 18.2449 24.0644 17.9968C23.8163 17.7486 23.6769 17.4121 23.6769 17.0612H21.0307C21.0307 18.1139 21.4489 19.1235 22.1933 19.8679C22.9377 20.6123 23.9473 21.0305 25 21.0305V18.3843ZM26.3231 17.0612C26.3231 17.4121 26.1837 17.7486 25.9356 17.9968C25.6874 18.2449 25.3509 18.3843 25 18.3843V21.0305C26.0527 21.0305 27.0623 20.6123 27.8067 19.8679C28.5511 19.1235 28.9693 18.1139 28.9693 17.0612H26.3231ZM25 15.7381C25.3509 15.7381 25.6874 15.8775 25.9356 16.1256C26.1837 16.3738 26.3231 16.7103 26.3231 17.0612H28.9693C28.9693 16.0085 28.5511 14.9989 27.8067 14.2545C27.0623 13.5101 26.0527 13.0919 25 13.0919V15.7381ZM25 13.0919C23.9473 13.0919 22.9377 13.5101 22.1933 14.2545C21.4489 14.9989 21.0307 16.0085 21.0307 17.0612H23.6769C23.6769 16.7103 23.8163 16.3738 24.0644 16.1256C24.3126 15.8775 24.6491 15.7381 25 15.7381V13.0919ZM26.7094 20.6441L30.6787 24.6134L32.5496 22.7399L28.5803 18.7706L26.7094 20.6441ZM32.9385 26.3228C32.5876 26.3228 32.2511 26.1835 32.003 25.9353C31.7549 25.6872 31.6155 25.3507 31.6155 24.9998H28.9693C28.9693 26.0525 29.3875 27.0621 30.1318 27.8065C30.8762 28.5508 31.8858 28.969 32.9385 28.969V26.3228ZM34.2616 24.9998C34.2616 25.3507 34.1222 25.6872 33.8741 25.9353C33.626 26.1835 33.2895 26.3228 32.9385 26.3228V28.969C33.9913 28.969 35.0009 28.5508 35.7453 27.8065C36.4896 27.0621 36.9078 26.0525 36.9078 24.9998H34.2616ZM32.9385 23.6767C33.2895 23.6767 33.626 23.8161 33.8741 24.0642C34.1222 24.3123 34.2616 24.6489 34.2616 24.9998H36.9078C36.9078 23.947 36.4896 22.9374 35.7453 22.1931C35.0009 21.4487 33.9913 21.0305 32.9385 21.0305V23.6767ZM32.9385 21.0305C31.8858 21.0305 30.8762 21.4487 30.1318 22.1931C29.3875 22.9374 28.9693 23.947 28.9693 24.9998H31.6155C31.6155 24.6489 31.7549 24.3123 32.003 24.0642C32.2511 23.8161 32.5876 23.6767 32.9385 23.6767V21.0305ZM23.6769 19.7074V30.2921H26.3231V19.7074H23.6769ZM25 34.2614C24.6491 34.2614 24.3126 34.122 24.0644 33.8739C23.8163 33.6257 23.6769 33.2892 23.6769 32.9383H21.0307C21.0307 33.991 21.4489 35.0006 22.1933 35.745C22.9377 36.4894 23.9473 36.9076 25 36.9076V34.2614ZM26.3231 32.9383C26.3231 33.2892 26.1837 33.6257 25.9356 33.8739C25.6874 34.122 25.3509 34.2614 25 34.2614V36.9076C26.0527 36.9076 27.0623 36.4894 27.8067 35.745C28.5511 35.0006 28.9693 33.991 28.9693 32.9383H26.3231ZM25 31.6152C25.3509 31.6152 25.6874 31.7546 25.9356 32.0027C26.1837 32.2509 26.3231 32.5874 26.3231 32.9383H28.9693C28.9693 31.8856 28.5511 30.876 27.8067 30.1316C27.0623 29.3872 26.0527 28.969 25 28.969V31.6152ZM25 28.969C23.9473 28.969 22.9377 29.3872 22.1933 30.1316C21.4489 30.876 21.0307 31.8856 21.0307 32.9383H23.6769C23.6769 32.5874 23.8163 32.2509 24.0644 32.0027C24.3126 31.7546 24.6491 31.6152 25 31.6152V28.969Z" fill="white"/>
<path d="M7.41347 22.1922L7.76703 21.8386L7.05942 22.5452L7.41347 22.1922ZM42.5865 27.8074L42.2327 28.1607L42.9406 27.4543L42.5865 27.8074ZM22.7751 8.70038L23.7092 9.63713L24.4173 8.93103L23.4832 7.99428L22.7751 8.70038ZM8.70163 22.7759L7.76753 21.8391L7.05942 22.5452L7.99352 23.482L8.70163 22.7759ZM8.70063 27.2247L9.63738 26.2906L8.93127 25.5825L7.99452 26.5166L8.70063 27.2247ZM22.7761 41.2981L21.8393 42.2322L22.5455 42.9403L23.4822 42.0062L22.7761 41.2981ZM27.2249 41.2991L26.2908 40.3624L25.5827 41.0685L26.5168 42.0052L27.2249 41.2991ZM41.2984 27.2237L42.2325 28.1604L42.9406 27.4543L42.0065 26.5176L41.2984 27.2237ZM41.2994 22.7749L40.3626 23.709L41.0687 24.4171L42.0055 23.483L41.2994 22.7749ZM27.2239 8.70138L28.1607 7.76728L27.4545 7.05918L26.5178 7.99328L27.2239 8.70138ZM7.05992 22.5457L8.93077 24.4166L9.63788 23.7095L7.76703 21.8386L7.05992 22.5457ZM42.9403 27.4541L41.0695 25.5806L40.3619 26.2872L42.2327 28.1607L42.9403 27.4541ZM23.6769 16.5612H21.0307V17.5612H23.6769V16.5612ZM25.5 21.0305V18.3843H24.5V21.0305H25.5ZM28.9693 16.5612H26.3231V17.5612H28.9693V16.5612ZM24.5 13.0919V15.7381H25.5V13.0919H24.5ZM31.6155 24.4998H28.9693V25.4998H31.6155V24.4998ZM33.4385 28.969V26.3228H32.4385V28.969H33.4385ZM36.9078 24.4998H34.2616V25.4998H36.9078V24.4998ZM32.4385 21.0305V23.6767H33.4385V21.0305H32.4385ZM23.6769 32.4383H21.0307V33.4383H23.6769V32.4383ZM25.5 36.9076V34.2614H24.5V36.9076H25.5ZM28.9693 32.4383H26.3231V33.4383H28.9693V32.4383ZM24.5 28.969V31.6152H25.5V28.969H24.5ZM24.0633 9.28408L24.7704 9.99119L25.477 9.28458L24.7709 8.57747L24.0633 9.28408ZM7.41347 22.1922L8.12035 22.8995L8.12052 22.8993L7.41347 22.1922ZM9.28432 25.9365L9.99193 26.6431L10.6989 25.9351L9.99054 25.2285L9.28432 25.9365ZM25.9368 40.7154L26.6434 40.0078L25.9354 39.3008L25.2288 40.0092L25.9368 40.7154ZM42.5865 27.8074L41.8797 27.1L41.8795 27.1002L42.5865 27.8074ZM40.7157 24.063L40.0086 24.7701L40.7162 25.4777L41.4233 24.7696L40.7157 24.063ZM22.195 7.41323L22.9027 6.70662L22.1956 5.99858L21.488 6.70606L22.195 7.41323ZM9.28432 24.063L9.99054 24.771L9.99143 24.7701L9.28432 24.063ZM7.41347 27.8047L6.70637 27.0976L5.99932 27.8047L6.7063 28.5118L7.41347 27.8047ZM24.0633 40.7128L24.7709 41.4194L25.477 40.7123L24.7704 40.0057L24.0633 40.7128ZM9.28432 25.9339L9.99143 25.2268L9.28432 24.5196L8.57722 25.2268L9.28432 25.9339ZM27.8076 42.5836L27.1005 43.2907L27.8075 43.9978L28.5146 43.2908L27.8076 42.5836ZM40.7157 25.9339L40.0095 25.2259L40.0086 25.2268L40.7157 25.9339ZM25.9368 40.7128L25.2296 40.0057L24.5225 40.7128L25.2296 41.4199L25.9368 40.7128ZM25.9368 9.28408L25.2296 8.57697L24.5225 9.28408L25.2296 9.99119L25.9368 9.28408ZM40.7157 24.0604L40.0086 23.3533L39.3006 24.0613L40.0095 24.7684L40.7157 24.0604ZM27.8102 42.5863L28.5176 43.2932L29.2247 42.5856L28.5169 41.8787L27.8102 42.5863ZM24.0659 40.7154L24.7739 40.0092L24.0673 39.3008L23.3593 40.0078L24.0659 40.7154ZM6.25 25.0024H7.25H6.25ZM7.41347 27.81L6.70659 28.5173L7.4142 29.2245L8.12108 28.5166L7.41347 27.81ZM24.0633 9.28673L23.3561 9.99383L24.0641 10.7018L24.7713 9.99294L24.0633 9.28673ZM25.9368 9.28673L25.2288 9.99294L25.9364 10.7023L26.6444 9.99333L25.9368 9.28673ZM24.9974 6.24976V7.24976V6.24976ZM22.1898 7.41323L21.4824 6.70635L20.7758 7.41346L21.4826 8.12034L22.1898 7.41323ZM18.7709 12.7082L18.0638 12.0011L17.3567 12.7082L18.0638 13.4153L18.7709 12.7082ZM21.4171 15.3544L20.71 16.0615L21.4171 16.7686L22.1242 16.0615L21.4171 15.3544ZM23.2906 13.4809L23.9977 14.188L24.7048 13.4809L23.9977 12.7738L23.2906 13.4809ZM20.6444 10.8347L21.3515 10.1276L20.6444 9.42053L19.9373 10.1276L20.6444 10.8347ZM28.9693 17.0612H29.9693H28.9693ZM25 15.7381V16.7381V15.7381ZM26.7094 20.6441L26.0018 19.9375L25.2957 20.6446L26.0023 21.3512L26.7094 20.6441ZM30.6787 24.6134L29.9716 25.3205L30.6792 26.0281L31.3863 25.32L30.6787 24.6134ZM32.5496 22.7399L33.2572 23.4465L33.9633 22.7394L33.2567 22.0328L32.5496 22.7399ZM28.5803 18.7706L29.2874 18.0635L28.5798 17.3559L27.8727 18.064L28.5803 18.7706ZM28.9693 24.9998H27.9693H28.9693ZM32.9385 28.969V29.969V28.969ZM36.9078 24.9998H37.9078H36.9078ZM23.6769 19.7074V18.7074H22.6769V19.7074H23.6769ZM23.6769 30.2921H22.6769V31.2921H23.6769V30.2921ZM26.3231 30.2921V31.2921H27.3231V30.2921H26.3231ZM26.3231 19.7074H27.3231V18.7074H26.3231V19.7074ZM25 36.9076V37.9076V36.9076ZM28.9693 32.9383H29.9693H28.9693ZM25 28.969V27.969V28.969ZM21.488 6.70606L6.70643 21.485L8.12052 22.8993L22.9021 8.1204L21.488 6.70606ZM9.99143 24.7701L24.7704 9.99119L23.3561 8.57697L8.57722 23.3559L9.99143 24.7701ZM24.7709 8.57747L22.9027 6.70662L21.4874 8.11984L23.3556 9.99069L24.7709 8.57747ZM6.7063 28.5118L21.4852 43.2933L22.8996 41.8792L8.12064 27.0977L6.7063 28.5118ZM22.9 43.2929L24.7709 41.4194L23.3556 40.0062L21.4848 41.8797L22.9 43.2929ZM24.7704 40.0057L9.99143 25.2268L8.57722 26.641L23.3561 41.4199L24.7704 40.0057ZM8.57722 25.2268L6.70637 27.0976L8.12058 28.5118L9.99143 26.641L8.57722 25.2268ZM28.5146 43.2908L43.2936 28.5145L41.8795 27.1002L27.1006 41.8765L28.5146 43.2908ZM40.0086 25.2268L25.2296 40.0057L26.6439 41.4199L41.4228 26.641L40.0086 25.2268ZM25.2296 41.4199L27.1005 43.2907L28.5147 41.8765L26.6439 40.0057L25.2296 41.4199ZM43.2936 21.4823L28.5146 6.70606L27.1006 8.1204L41.8795 22.8967L43.2936 21.4823ZM27.1005 6.70612L25.2296 8.57697L26.6439 9.99119L28.5147 8.12034L27.1005 6.70612ZM25.2296 9.99119L40.0086 24.7701L41.4228 23.3559L26.6439 8.57697L25.2296 9.99119ZM41.4233 24.7696L43.2941 22.8961L41.8789 21.4829L40.0081 23.3564L41.4233 24.7696ZM43.2934 28.5147C43.7565 28.0519 44.1222 27.5008 44.3714 26.8995L42.5238 26.1338C42.3737 26.496 42.1542 26.8256 41.8797 27.1L43.2934 28.5147ZM44.3714 26.8995C44.6214 26.2964 44.75 25.65 44.75 24.9971H42.75C42.75 25.3872 42.6731 25.7735 42.5238 26.1338L44.3714 26.8995ZM44.75 24.9971C44.75 24.3443 44.6214 23.6978 44.3714 23.0947L42.5238 23.8604C42.6731 24.2208 42.75 24.607 42.75 24.9971H44.75ZM44.3714 23.0947C44.1215 22.4916 43.7552 21.9437 43.2934 21.4822L41.8797 22.8968C42.1556 23.1726 42.3745 23.5 42.5238 23.8604L44.3714 23.0947ZM41.8794 21.4824L40.0086 23.3533L41.4228 24.7675L43.2936 22.8966L41.8794 21.4824ZM40.0095 24.7684C40.0396 24.7984 40.0634 24.834 40.0797 24.8733L41.927 24.1067C41.8099 23.8245 41.6382 23.5682 41.4219 23.3524L40.0095 24.7684ZM40.0797 24.8733C40.096 24.9125 40.1044 24.9546 40.1044 24.9971H42.1044C42.1044 24.6915 42.0441 24.389 41.927 24.1067L40.0797 24.8733ZM40.1044 24.9971C40.1044 25.0396 40.096 25.0817 40.0797 25.1209L41.927 25.8875C42.0441 25.6052 42.1044 25.3027 42.1044 24.9971H40.1044ZM40.0797 25.1209C40.0634 25.1602 40.0396 25.1958 40.0095 25.2259L41.4219 26.6419C41.6382 26.4261 41.8099 26.1697 41.927 25.8875L40.0797 25.1209ZM21.4851 43.2932C21.9479 43.7563 22.4989 44.122 23.1003 44.3712L23.8659 42.5236C23.5038 42.3735 23.1741 42.154 22.8997 41.8794L21.4851 43.2932ZM23.1003 44.3712C23.7034 44.6211 24.3498 44.7498 25.0026 44.7498V42.7498C24.6126 42.7498 24.2263 42.6729 23.8659 42.5236L23.1003 44.3712ZM25.0026 44.7498C25.6555 44.7498 26.3019 44.6211 26.905 44.3712L26.1394 42.5236C25.779 42.6729 25.3927 42.7498 25.0026 42.7498V44.7498ZM26.905 44.3712C27.5081 44.1213 28.0561 43.7549 28.5176 43.2932L27.1029 41.8794C26.8272 42.1553 26.4998 42.3742 26.1394 42.5236L26.905 44.3712ZM28.5169 41.8787L26.6434 40.0078L25.2301 41.423L27.1036 43.2939L28.5169 41.8787ZM25.2288 40.0092C25.1946 40.0435 25.1604 40.0654 25.1265 40.0795L25.893 41.9267C26.1806 41.8074 26.4331 41.6338 26.6448 41.4216L25.2288 40.0092ZM25.1265 40.0795C25.0872 40.0958 25.0451 40.1041 25.0026 40.1041V42.1041C25.3082 42.1041 25.6108 42.0439 25.893 41.9267L25.1265 40.0795ZM25.0026 40.1041C24.9602 40.1041 24.9181 40.0958 24.8788 40.0795L24.1123 41.9267C24.3945 42.0439 24.6971 42.1041 25.0026 42.1041V40.1041ZM24.8788 40.0795C24.8396 40.0632 24.8039 40.0393 24.7739 40.0092L23.3579 41.4216C23.5737 41.638 23.8301 41.8096 24.1123 41.9267L24.8788 40.0795ZM23.3593 40.0078L21.4858 41.8787L22.899 43.2939L24.7725 41.423L23.3593 40.0078ZM6.70659 21.4848C6.24346 21.9477 5.87776 22.4987 5.62857 23.1L7.4762 23.8657C7.62628 23.5035 7.84578 23.1739 8.12035 22.8995L6.70659 21.4848ZM5.62857 23.1C5.37864 23.7031 5.25 24.3496 5.25 25.0024H7.25C7.25 24.6123 7.32687 24.226 7.4762 23.8657L5.62857 23.1ZM5.25 25.0024C5.25 25.6552 5.37864 26.3017 5.62857 26.9048L7.4762 26.1391C7.32687 25.7788 7.25 25.3925 7.25 25.0024H5.25ZM5.62857 26.9048C5.8785 27.5079 6.24481 28.0559 6.70659 28.5173L8.12035 27.1027C7.84443 26.8269 7.62554 26.4995 7.4762 26.1391L5.62857 26.9048ZM8.12108 28.5166L9.99193 26.6431L8.57672 25.2299L6.70587 27.1034L8.12108 28.5166ZM9.99054 25.2285C9.95629 25.1943 9.93437 25.1602 9.92029 25.1262L8.07301 25.8928C8.19233 26.1803 8.36593 26.4329 8.57811 26.6445L9.99054 25.2285ZM9.92029 25.1262C9.904 25.087 9.89562 25.0449 9.89562 25.0024H7.89562C7.89562 25.308 7.9559 25.6105 8.07301 25.8928L9.92029 25.1262ZM9.89562 25.0024C9.89562 24.9599 9.904 24.9178 9.92029 24.8786L8.07301 24.112C7.9559 24.3943 7.89562 24.6968 7.89562 25.0024H9.89562ZM9.92029 24.8786C9.9388 24.834 9.96447 24.797 9.99054 24.771L8.57811 23.355C8.35775 23.5748 8.1879 23.8352 8.07301 24.112L9.92029 24.8786ZM24.7713 9.99294C24.8013 9.96285 24.8369 9.93898 24.8762 9.92269L24.1096 8.07542C23.8274 8.19253 23.571 8.36418 23.3553 8.58051L24.7713 9.99294ZM24.8762 9.92269C24.9154 9.9064 24.9575 9.89802 25 9.89802V7.89802C24.6944 7.89802 24.3919 7.9583 24.1096 8.07542L24.8762 9.92269ZM25 9.89802C25.0425 9.89802 25.0846 9.9064 25.1238 9.92269L25.8904 8.07542C25.6081 7.9583 25.3056 7.89802 25 7.89802V9.89802ZM25.1238 9.92269C25.1631 9.93898 25.1987 9.96285 25.2288 9.99294L26.6448 8.58051C26.429 8.36417 26.1726 8.19253 25.8904 8.07542L25.1238 9.92269ZM26.6444 9.99333L28.5152 8.11984L27.1 6.70662L25.2291 8.58012L26.6444 9.99333ZM28.5149 6.70635C28.0521 6.24322 27.5011 5.87751 26.8997 5.62832L26.1341 7.47596C26.4962 7.62604 26.8259 7.84554 27.1003 8.12011L28.5149 6.70635ZM26.8997 5.62832C26.2966 5.3784 25.6502 5.24976 24.9974 5.24976V7.24976C25.3874 7.24976 25.7737 7.32662 26.1341 7.47596L26.8997 5.62832ZM24.9974 5.24976C24.3445 5.24976 23.6981 5.3784 23.095 5.62832L23.8606 7.47596C24.221 7.32662 24.6073 7.24976 24.9974 7.24976V5.24976ZM23.095 5.62832C22.4919 5.87825 21.9439 6.24457 21.4824 6.70635L22.8971 8.12011C23.1728 7.84418 23.5003 7.6253 23.8606 7.47596L23.095 5.62832ZM21.4826 8.12034L23.3561 9.99383L24.7704 8.57962L22.8969 6.70612L21.4826 8.12034ZM18.0638 13.4153L20.71 16.0615L22.1242 14.6473L19.478 12.0011L18.0638 13.4153ZM22.1242 16.0615L23.9977 14.188L22.5835 12.7738L20.71 14.6473L22.1242 16.0615ZM23.9977 12.7738L21.3515 10.1276L19.9373 11.5418L22.5835 14.188L23.9977 12.7738ZM19.9373 10.1276L18.0638 12.0011L19.478 13.4153L21.3515 11.5418L19.9373 10.1276ZM25 17.3843C24.9143 17.3843 24.8321 17.3503 24.7715 17.2897L23.3573 18.7039C23.793 19.1395 24.3839 19.3843 25 19.3843V17.3843ZM24.7715 17.2897C24.711 17.2291 24.6769 17.1469 24.6769 17.0612H22.6769C22.6769 17.6773 22.9217 18.2682 23.3573 18.7039L24.7715 17.2897ZM20.0307 17.0612C20.0307 18.3791 20.5543 19.6431 21.4862 20.575L22.9004 19.1608C22.3436 18.604 22.0307 17.8487 22.0307 17.0612H20.0307ZM21.4862 20.575C22.4181 21.5069 23.6821 22.0305 25 22.0305V20.0305C24.2125 20.0305 23.4573 19.7177 22.9004 19.1608L21.4862 20.575ZM25.3231 17.0612C25.3231 17.1469 25.2891 17.2291 25.2285 17.2897L26.6427 18.7039C27.0783 18.2682 27.3231 17.6773 27.3231 17.0612H25.3231ZM25.2285 17.2897C25.1679 17.3503 25.0857 17.3843 25 17.3843V19.3843C25.6161 19.3843 26.207 19.1395 26.6427 18.7039L25.2285 17.2897ZM25 22.0305C26.3179 22.0305 27.5819 21.5069 28.5138 20.575L27.0996 19.1608C26.5427 19.7177 25.7875 20.0305 25 20.0305V22.0305ZM28.5138 20.575C29.4457 19.6431 29.9693 18.3791 29.9693 17.0612H27.9693C27.9693 17.8487 27.6564 18.604 27.0996 19.1608L28.5138 20.575ZM25 16.7381C25.0857 16.7381 25.1679 16.7722 25.2285 16.8328L26.6427 15.4185C26.207 14.9829 25.6161 14.7381 25 14.7381V16.7381ZM25.2285 16.8328C25.2891 16.8933 25.3231 16.9755 25.3231 17.0612H27.3231C27.3231 16.4451 27.0783 15.8542 26.6427 15.4185L25.2285 16.8328ZM29.9693 17.0612C29.9693 15.7433 29.4457 14.4793 28.5138 13.5474L27.0996 14.9616C27.6564 15.5185 27.9693 16.2737 27.9693 17.0612H29.9693ZM28.5138 13.5474C27.5819 12.6155 26.3179 12.0919 25 12.0919V14.0919C25.7875 14.0919 26.5427 14.4048 27.0996 14.9616L28.5138 13.5474ZM25 12.0919C23.6821 12.0919 22.4181 12.6155 21.4862 13.5474L22.9004 14.9616C23.4573 14.4048 24.2125 14.0919 25 14.0919V12.0919ZM21.4862 13.5474C20.5543 14.4793 20.0307 15.7433 20.0307 17.0612H22.0307C22.0307 16.2737 22.3436 15.5185 22.9004 14.9616L21.4862 13.5474ZM24.6769 17.0612C24.6769 16.9755 24.711 16.8933 24.7715 16.8328L23.3573 15.4185C22.9217 15.8542 22.6769 16.4451 22.6769 17.0612H24.6769ZM24.7715 16.8328C24.8321 16.7722 24.9143 16.7381 25 16.7381V14.7381C24.3839 14.7381 23.793 14.9829 23.3573 15.4185L24.7715 16.8328ZM26.0023 21.3512L29.9716 25.3205L31.3858 23.9063L27.4165 19.937L26.0023 21.3512ZM31.3863 25.32L33.2572 23.4465L31.842 22.0333L29.9711 23.9068L31.3863 25.32ZM33.2567 22.0328L29.2874 18.0635L27.8732 19.4778L31.8425 23.447L33.2567 22.0328ZM27.8727 18.064L26.0018 19.9375L27.417 21.3507L29.2879 19.4773L27.8727 18.064ZM32.9385 25.3228C32.8529 25.3228 32.7707 25.2888 32.7101 25.2282L31.2959 26.6424C31.7315 27.0781 32.3224 27.3228 32.9385 27.3228V25.3228ZM32.7101 25.2282C32.6495 25.1676 32.6155 25.0854 32.6155 24.9998H30.6155C30.6155 25.6159 30.8602 26.2068 31.2959 26.6424L32.7101 25.2282ZM27.9693 24.9998C27.9693 26.3177 28.4928 27.5816 29.4247 28.5136L30.839 27.0994C30.2821 26.5425 29.9693 25.7873 29.9693 24.9998H27.9693ZM29.4247 28.5136C30.3567 29.4455 31.6206 29.969 32.9385 29.969V27.969C32.151 27.969 31.3958 27.6562 30.839 27.0994L29.4247 28.5136ZM33.2616 24.9998C33.2616 25.0854 33.2276 25.1676 33.167 25.2282L34.5812 26.6424C35.0169 26.2068 35.2616 25.6159 35.2616 24.9998H33.2616ZM33.167 25.2282C33.1064 25.2888 33.0242 25.3228 32.9385 25.3228V27.3228C33.5547 27.3228 34.1456 27.0781 34.5812 26.6424L33.167 25.2282ZM32.9385 29.969C34.2565 29.969 35.5204 29.4455 36.4524 28.5136L35.0381 27.0994C34.4813 27.6562 33.7261 27.969 32.9385 27.969V29.969ZM36.4524 28.5136C37.3843 27.5816 37.9078 26.3177 37.9078 24.9998H35.9078C35.9078 25.7873 35.595 26.5425 35.0381 27.0994L36.4524 28.5136ZM32.9385 24.6767C33.0242 24.6767 33.1064 24.7107 33.167 24.7713L34.5812 23.3571C34.1456 22.9214 33.5547 22.6767 32.9385 22.6767V24.6767ZM33.167 24.7713C33.2276 24.8319 33.2616 24.9141 33.2616 24.9998H35.2616C35.2616 24.3836 35.0169 23.7928 34.5812 23.3571L33.167 24.7713ZM37.9078 24.9998C37.9078 23.6818 37.3843 22.4179 36.4524 21.486L35.0381 22.9002C35.595 23.457 35.9078 24.2123 35.9078 24.9998H37.9078ZM36.4524 21.486C35.5204 20.554 34.2565 20.0305 32.9385 20.0305V22.0305C33.7261 22.0305 34.4813 22.3433 35.0381 22.9002L36.4524 21.486ZM32.9385 20.0305C31.6206 20.0305 30.3567 20.554 29.4247 21.486L30.839 22.9002C31.3958 22.3433 32.151 22.0305 32.9385 22.0305V20.0305ZM29.4247 21.486C28.4928 22.4179 27.9693 23.6818 27.9693 24.9998H29.9693C29.9693 24.2123 30.2821 23.457 30.839 22.9002L29.4247 21.486ZM32.6155 24.9998C32.6155 24.9141 32.6495 24.8319 32.7101 24.7713L31.2959 23.3571C30.8602 23.7928 30.6155 24.3836 30.6155 24.9998H32.6155ZM32.7101 24.7713C32.7707 24.7107 32.8529 24.6767 32.9385 24.6767V22.6767C32.3224 22.6767 31.7315 22.9214 31.2959 23.3571L32.7101 24.7713ZM22.6769 19.7074V30.2921H24.6769V19.7074H22.6769ZM23.6769 31.2921H26.3231V29.2921H23.6769V31.2921ZM27.3231 30.2921V19.7074H25.3231V30.2921H27.3231ZM26.3231 18.7074H23.6769V20.7074H26.3231V18.7074ZM25 33.2614C24.9143 33.2614 24.8321 33.2274 24.7715 33.1668L23.3573 34.581C23.793 35.0166 24.3839 35.2614 25 35.2614V33.2614ZM24.7715 33.1668C24.711 33.1062 24.6769 33.024 24.6769 32.9383H22.6769C22.6769 33.5544 22.9217 34.1453 23.3573 34.581L24.7715 33.1668ZM20.0307 32.9383C20.0307 34.2562 20.5543 35.5202 21.4862 36.4521L22.9004 35.0379C22.3436 34.4811 22.0307 33.7258 22.0307 32.9383H20.0307ZM21.4862 36.4521C22.4181 37.384 23.6821 37.9076 25 37.9076V35.9076C24.2125 35.9076 23.4573 35.5947 22.9004 35.0379L21.4862 36.4521ZM25.3231 32.9383C25.3231 33.024 25.2891 33.1062 25.2285 33.1668L26.6427 34.581C27.0783 34.1453 27.3231 33.5544 27.3231 32.9383H25.3231ZM25.2285 33.1668C25.1679 33.2274 25.0857 33.2614 25 33.2614V35.2614C25.6161 35.2614 26.207 35.0166 26.6427 34.581L25.2285 33.1668ZM25 37.9076C26.3179 37.9076 27.5819 37.384 28.5138 36.4521L27.0996 35.0379C26.5427 35.5947 25.7875 35.9076 25 35.9076V37.9076ZM28.5138 36.4521C29.4457 35.5202 29.9693 34.2562 29.9693 32.9383H27.9693C27.9693 33.7258 27.6564 34.4811 27.0996 35.0379L28.5138 36.4521ZM25 32.6152C25.0857 32.6152 25.1679 32.6493 25.2285 32.7098L26.6427 31.2956C26.207 30.86 25.6161 30.6152 25 30.6152V32.6152ZM25.2285 32.7098C25.2891 32.7704 25.3231 32.8526 25.3231 32.9383H27.3231C27.3231 32.3222 27.0783 31.7313 26.6427 31.2956L25.2285 32.7098ZM29.9693 32.9383C29.9693 31.6204 29.4457 30.3564 28.5138 29.4245L27.0996 30.8387C27.6564 31.3956 27.9693 32.1508 27.9693 32.9383H29.9693ZM28.5138 29.4245C27.5819 28.4926 26.3179 27.969 25 27.969V29.969C25.7875 29.969 26.5427 30.2819 27.0996 30.8387L28.5138 29.4245ZM25 27.969C23.6821 27.969 22.4181 28.4926 21.4862 29.4245L22.9004 30.8387C23.4573 30.2819 24.2125 29.969 25 29.969V27.969ZM21.4862 29.4245C20.5543 30.3564 20.0307 31.6204 20.0307 32.9383H22.0307C22.0307 32.1508 22.3436 31.3956 22.9004 30.8387L21.4862 29.4245ZM24.6769 32.9383C24.6769 32.8526 24.711 32.7704 24.7715 32.7098L23.3573 31.2956C22.9217 31.7313 22.6769 32.3222 22.6769 32.9383H24.6769ZM24.7715 32.7098C24.8321 32.6493 24.9143 32.6152 25 32.6152V30.6152C24.3839 30.6152 23.793 30.86 23.3573 31.2956L24.7715 32.7098Z" fill="white" mask="url(#path-3-inside-1_84_142)"/>
</svg>
