<svg width="66" height="86" viewBox="0 0 66 86" fill="none" xmlns="http://www.w3.org/2000/svg">
<path d="M1.35227 83V72.8182H4.78764C5.45052 72.8182 6.00237 72.9342 6.44318 73.1662C6.88731 73.3982 7.22041 73.7147 7.44247 74.1158C7.66454 74.5168 7.77557 74.9725 7.77557 75.483C7.77557 75.9072 7.70431 76.2701 7.56179 76.5717C7.41927 76.8733 7.22538 77.117 6.98011 77.3026C6.73485 77.4882 6.46141 77.6224 6.1598 77.7053V77.7848C6.48793 77.808 6.80611 77.924 7.11435 78.1328C7.42259 78.3383 7.67614 78.6267 7.875 78.9979C8.07386 79.3691 8.1733 79.8132 8.1733 80.3303C8.1733 80.844 8.05895 81.303 7.83026 81.7074C7.60156 82.1084 7.25024 82.425 6.77628 82.657C6.30563 82.8857 5.70573 83 4.97656 83H1.35227ZM2.28196 82.1648H4.97656C5.76207 82.1648 6.34209 81.9908 6.71662 81.6428C7.09446 81.2947 7.28338 80.8572 7.28338 80.3303C7.28338 79.9425 7.18892 79.5911 7 79.2763C6.81439 78.9581 6.5509 78.7062 6.20952 78.5206C5.87145 78.335 5.47372 78.2422 5.01634 78.2422H2.28196V82.1648ZM2.28196 77.4169H4.87216C5.2732 77.4169 5.62453 77.334 5.92614 77.1683C6.22775 77.0026 6.46307 76.7739 6.6321 76.4822C6.80114 76.1906 6.88565 75.8575 6.88565 75.483C6.88565 74.9427 6.70999 74.5036 6.35866 74.1655C6.00734 73.8241 5.48366 73.6534 4.78764 73.6534H2.28196V77.4169ZM13.2008 83.1591C12.5413 83.1591 11.9579 82.9917 11.4508 82.657C10.947 82.3222 10.5526 81.8598 10.2676 81.2699C9.98254 80.6766 9.84002 79.9922 9.84002 79.2166C9.84002 78.4344 9.98254 77.7467 10.2676 77.1534C10.5526 76.5568 10.947 76.0928 11.4508 75.7614C11.9579 75.4266 12.5413 75.2592 13.2008 75.2592C13.8604 75.2592 14.4421 75.4266 14.9458 75.7614C15.4496 76.0961 15.844 76.5601 16.1291 77.1534C16.4174 77.7467 16.5616 78.4344 16.5616 79.2166C16.5616 79.9922 16.4191 80.6766 16.1341 81.2699C15.849 81.8598 15.4529 82.3222 14.9458 82.657C14.4421 82.9917 13.8604 83.1591 13.2008 83.1591ZM13.2008 82.3487C13.7311 82.3487 14.1802 82.2062 14.5481 81.9212C14.916 81.6361 15.1944 81.2566 15.3833 80.7827C15.5756 80.3087 15.6717 79.7867 15.6717 79.2166C15.6717 78.6465 15.5756 78.1229 15.3833 77.6456C15.1944 77.1683 14.916 76.7855 14.5481 76.4972C14.1802 76.2088 13.7311 76.0646 13.2008 76.0646C12.6738 76.0646 12.2247 76.2088 11.8535 76.4972C11.4856 76.7855 11.2056 77.1683 11.0133 77.6456C10.8244 78.1229 10.7299 78.6465 10.7299 79.2166C10.7299 79.7867 10.8244 80.3087 11.0133 80.7827C11.2056 81.2566 11.4856 81.6361 11.8535 81.9212C12.2214 82.2062 12.6705 82.3487 13.2008 82.3487ZM21.4723 83.1591C20.8127 83.1591 20.2294 82.9917 19.7223 82.657C19.2185 82.3222 18.8241 81.8598 18.5391 81.2699C18.254 80.6766 18.1115 79.9922 18.1115 79.2166C18.1115 78.4344 18.254 77.7467 18.5391 77.1534C18.8241 76.5568 19.2185 76.0928 19.7223 75.7614C20.2294 75.4266 20.8127 75.2592 21.4723 75.2592C22.1319 75.2592 22.7135 75.4266 23.2173 75.7614C23.7211 76.0961 24.1155 76.5601 24.4006 77.1534C24.6889 77.7467 24.8331 78.4344 24.8331 79.2166C24.8331 79.9922 24.6906 80.6766 24.4055 81.2699C24.1205 81.8598 23.7244 82.3222 23.2173 82.657C22.7135 82.9917 22.1319 83.1591 21.4723 83.1591ZM21.4723 82.3487C22.0026 82.3487 22.4517 82.2062 22.8196 81.9212C23.1875 81.6361 23.4659 81.2566 23.6548 80.7827C23.8471 80.3087 23.9432 79.7867 23.9432 79.2166C23.9432 78.6465 23.8471 78.1229 23.6548 77.6456C23.4659 77.1683 23.1875 76.7855 22.8196 76.4972C22.4517 76.2088 22.0026 76.0646 21.4723 76.0646C20.9453 76.0646 20.4962 76.2088 20.125 76.4972C19.7571 76.7855 19.477 77.1683 19.2848 77.6456C19.0959 78.1229 19.0014 78.6465 19.0014 79.2166C19.0014 79.7867 19.0959 80.3087 19.2848 80.7827C19.477 81.2566 19.7571 81.6361 20.125 81.9212C20.4929 82.2062 20.942 82.3487 21.4723 82.3487ZM29.7836 75.3636V76.1342H26.1394V75.3636H29.7836ZM27.2779 73.5341H28.1678V81.0064C28.1678 81.3246 28.2225 81.5748 28.3319 81.7571C28.4412 81.9361 28.5837 82.0637 28.7594 82.1399C28.9351 82.2128 29.1223 82.2493 29.3212 82.2493C29.4372 82.2493 29.5366 82.2427 29.6195 82.2294C29.7024 82.2128 29.7753 82.1963 29.8382 82.1797L30.0272 82.9801C29.941 83.0133 29.8349 83.0431 29.709 83.0696C29.583 83.0994 29.4273 83.1143 29.2417 83.1143C28.9168 83.1143 28.6036 83.0431 28.302 82.9006C28.0037 82.758 27.7585 82.5459 27.5662 82.2642C27.374 81.9825 27.2779 81.6328 27.2779 81.2152V73.5341ZM36.7873 77.0391L35.9769 77.2678C35.8974 77.0391 35.7847 76.8319 35.6388 76.6463C35.493 76.4607 35.3024 76.3132 35.0671 76.2038C34.8351 76.0945 34.5468 76.0398 34.2021 76.0398C33.685 76.0398 33.2608 76.1624 32.9293 76.4077C32.5979 76.6529 32.4322 76.9695 32.4322 77.3572C32.4322 77.6854 32.5449 77.9522 32.7702 78.1577C32.9989 78.3598 33.3503 78.5206 33.8242 78.6399L34.9776 78.9233C35.6173 79.0791 36.0962 79.326 36.4144 79.6641C36.7359 80.0021 36.8967 80.4264 36.8967 80.9368C36.8967 81.3677 36.7773 81.7505 36.5387 82.0852C36.3001 82.42 35.967 82.6835 35.5394 82.8757C35.1152 83.0646 34.623 83.1591 34.0629 83.1591C33.3171 83.1591 32.7023 82.9917 32.2184 82.657C31.7345 82.3189 31.4246 81.8317 31.2887 81.1953L32.1388 80.9865C32.2482 81.4406 32.462 81.7836 32.7802 82.0156C33.1017 82.2476 33.5243 82.3636 34.0479 82.3636C34.6346 82.3636 35.1036 82.2327 35.4549 81.9709C35.8062 81.7057 35.9819 81.3743 35.9819 80.9766C35.9819 80.6683 35.8791 80.4098 35.6737 80.201C35.4682 79.9889 35.1566 79.8331 34.739 79.7337L33.4911 79.4354C32.8282 79.2763 32.3377 79.0244 32.0195 78.6797C31.7013 78.335 31.5423 77.9074 31.5423 77.397C31.5423 76.9761 31.6566 76.6065 31.8853 76.2884C32.114 75.9669 32.4289 75.715 32.8299 75.5327C33.2309 75.3504 33.6883 75.2592 34.2021 75.2592C34.9014 75.2592 35.4599 75.4183 35.8775 75.7365C36.2984 76.0514 36.6017 76.4856 36.7873 77.0391ZM41.8422 75.3636V76.1342H38.198V75.3636H41.8422ZM39.3365 73.5341H40.2264V81.0064C40.2264 81.3246 40.2811 81.5748 40.3904 81.7571C40.4998 81.9361 40.6423 82.0637 40.818 82.1399C40.9937 82.2128 41.1809 82.2493 41.3798 82.2493C41.4958 82.2493 41.5952 82.2427 41.6781 82.2294C41.7609 82.2128 41.8339 82.1963 41.8968 82.1797L42.0858 82.9801C41.9996 83.0133 41.8935 83.0431 41.7676 83.0696C41.6416 83.0994 41.4859 83.1143 41.3002 83.1143C40.9754 83.1143 40.6622 83.0431 40.3606 82.9006C40.0623 82.758 39.8171 82.5459 39.6248 82.2642C39.4326 81.9825 39.3365 81.6328 39.3365 81.2152V73.5341ZM43.8519 83V75.3636H44.712V76.5369H44.7766C44.9291 76.1525 45.1942 75.8426 45.5721 75.6072C45.9532 75.3686 46.3841 75.2493 46.8647 75.2493C46.9376 75.2493 47.0188 75.2509 47.1083 75.2543C47.1978 75.2576 47.2724 75.2609 47.332 75.2642V76.1641C47.2923 76.1574 47.2227 76.1475 47.1232 76.1342C47.0238 76.121 46.9161 76.1143 46.8001 76.1143C46.4023 76.1143 46.0477 76.1989 45.7362 76.3679C45.4279 76.5336 45.1843 76.764 45.0053 77.0589C44.8263 77.3539 44.7369 77.6903 44.7369 78.0682V83H43.8519ZM50.975 83.174C50.5143 83.174 50.0933 83.0845 49.7122 82.9055C49.331 82.7232 49.0278 82.4614 48.8024 82.12C48.577 81.7753 48.4643 81.3577 48.4643 80.8672C48.4643 80.4893 48.5356 80.1712 48.6781 79.9126C48.8206 79.6541 49.0228 79.442 49.2846 79.2763C49.5465 79.1106 49.8564 78.9796 50.2143 78.8835C50.5723 78.7874 50.9667 78.7128 51.3975 78.6598C51.8251 78.6068 52.1864 78.5604 52.4814 78.5206C52.7797 78.4808 53.0067 78.4179 53.1625 78.3317C53.3182 78.2455 53.3961 78.1063 53.3961 77.9141V77.7351C53.3961 77.2147 53.2404 76.8054 52.9288 76.5071C52.6206 76.2055 52.1764 76.0547 51.5964 76.0547C51.0462 76.0547 50.5971 76.1757 50.2491 76.4176C49.9044 76.6596 49.6625 76.9446 49.5233 77.2727L48.6831 76.9695C48.8554 76.5518 49.094 76.2187 49.399 75.9702C49.7039 75.7183 50.0453 75.5376 50.4231 75.4283C50.801 75.3156 51.1838 75.2592 51.5716 75.2592C51.8632 75.2592 52.1665 75.2973 52.4814 75.3736C52.7995 75.4498 53.0945 75.5824 53.3663 75.7713C53.6381 75.9569 53.8585 76.2171 54.0275 76.5518C54.1966 76.8833 54.2811 77.3042 54.2811 77.8146V83H53.3961V81.7919H53.3414C53.2354 82.0173 53.0779 82.236 52.8691 82.4482C52.6603 82.6603 52.3985 82.8343 52.0836 82.9702C51.7688 83.1061 51.3992 83.174 50.975 83.174ZM51.0943 82.3636C51.5649 82.3636 51.9726 82.2592 52.3173 82.0504C52.662 81.8416 52.9271 81.5649 53.1127 81.2202C53.3017 80.8722 53.3961 80.4893 53.3961 80.0717V78.968C53.3298 79.031 53.2188 79.0874 53.063 79.1371C52.9106 79.1868 52.7333 79.2315 52.5311 79.2713C52.3322 79.3078 52.1333 79.3393 51.9345 79.3658C51.7356 79.3923 51.5566 79.4155 51.3975 79.4354C50.9667 79.4884 50.5988 79.5713 50.2939 79.6839C49.9889 79.7966 49.7553 79.9524 49.5929 80.1513C49.4305 80.3468 49.3493 80.5987 49.3493 80.907C49.3493 81.371 49.515 81.7306 49.8464 81.9858C50.1779 82.2377 50.5938 82.3636 51.0943 82.3636ZM56.6351 85.8636V75.3636H57.4952V76.8203H57.5996C57.7057 76.5916 57.8515 76.358 58.0371 76.1193C58.2227 75.8774 58.468 75.6735 58.7729 75.5078C59.0811 75.3421 59.4689 75.2592 59.9363 75.2592C60.566 75.2592 61.1162 75.425 61.5868 75.7564C62.0608 76.0845 62.4287 76.5452 62.6905 77.1385C62.9557 77.7285 63.0882 78.4162 63.0882 79.2017C63.0882 79.9905 62.9557 80.6816 62.6905 81.2749C62.4287 81.8681 62.0608 82.3305 61.5868 82.6619C61.1162 82.9934 60.5693 83.1591 59.9462 83.1591C59.4855 83.1591 59.0994 83.0762 58.7878 82.9105C58.4796 82.7448 58.2293 82.541 58.0371 82.299C57.8482 82.0537 57.7024 81.8151 57.5996 81.5831H57.5201V85.8636H56.6351ZM57.5101 79.1868C57.5101 79.8033 57.6013 80.3501 57.7836 80.8274C57.9692 81.3014 58.2343 81.6742 58.579 81.946C58.927 82.2145 59.348 82.3487 59.8418 82.3487C60.3489 82.3487 60.7765 82.2095 61.1245 81.9311C61.4758 81.6494 61.7426 81.2699 61.9249 80.7926C62.1105 80.3153 62.2033 79.7801 62.2033 79.1868C62.2033 78.6001 62.1122 78.0715 61.9299 77.6009C61.7509 77.1302 61.4857 76.7573 61.1344 76.4822C60.7831 76.2038 60.3522 76.0646 59.8418 76.0646C59.3446 76.0646 58.9221 76.1989 58.574 76.4673C58.226 76.7325 57.9609 77.1004 57.7786 77.571C57.5996 78.0384 57.5101 78.5769 57.5101 79.1868Z" fill="black"/>
<circle cx="33.0383" cy="25" r="25" fill="#DE0756"/>
<path d="M14.9133 24.6873C15.8747 24.6873 16.7968 24.3169 17.4766 23.6576C18.1564 22.9982 18.5383 22.104 18.5383 21.1716V14.1404C18.5383 13.208 18.9202 12.3138 19.6001 11.6545C20.2799 10.9952 21.2019 10.6248 22.1633 10.6248H43.9133C44.8747 10.6248 45.7968 10.9952 46.4766 11.6545C47.1564 12.3138 47.5383 13.208 47.5383 14.1404V21.1716C47.5383 22.104 47.9203 22.9982 48.6001 23.6576C49.2799 24.3169 50.2019 24.6873 51.1633 24.6873M14.9133 24.6873C15.8747 24.6873 16.7968 25.0577 17.4766 25.717C18.1564 26.3763 18.5383 27.2705 18.5383 28.2029V35.2341C18.5383 36.1665 18.9202 37.0607 19.6001 37.7201C20.2799 38.3794 21.2019 38.7498 22.1633 38.7498H43.9133C44.8747 38.7498 45.7968 38.3794 46.4766 37.7201C47.1564 37.0607 47.5383 36.1665 47.5383 35.2341V28.2029C47.5383 27.2705 47.9203 26.3763 48.6001 25.717C49.2799 25.0577 50.2019 24.6873 51.1633 24.6873" stroke="white" stroke-width="3" stroke-linecap="round" stroke-linejoin="round"/>
<path d="M27.6011 31.7185V17.656H33.9448C34.9062 17.656 35.8283 18.0264 36.5081 18.6857C37.1879 19.345 37.5698 20.2392 37.5698 21.1716C37.5698 22.104 37.1879 22.9982 36.5081 23.6576C35.8283 24.3169 34.9062 24.6873 33.9448 24.6873H27.6011H34.8511C35.8125 24.6873 36.7345 25.0577 37.4143 25.717C38.0942 26.3763 38.4761 27.2705 38.4761 28.2029C38.4761 29.1353 38.0942 30.0295 37.4143 30.6888C36.7345 31.3481 35.8125 31.7185 34.8511 31.7185H27.6011Z" stroke="white" stroke-width="3" stroke-linecap="round" stroke-linejoin="round"/>
</svg>
