<svg width="50" height="86" viewBox="0 0 50 86" fill="none" xmlns="http://www.w3.org/2000/svg">
<path d="M17.8807 76.3636C17.8243 75.7969 17.5741 75.3461 17.13 75.0114C16.6858 74.6766 16.1274 74.5092 15.4545 74.5092C14.9806 74.5092 14.563 74.5904 14.2017 74.7528C13.8438 74.9152 13.562 75.1406 13.3565 75.429C13.1544 75.714 13.0533 76.0388 13.0533 76.4034C13.0533 76.6719 13.1113 76.9072 13.2273 77.1094C13.3433 77.3116 13.4991 77.4856 13.6946 77.6314C13.8935 77.7739 14.1122 77.8965 14.3509 77.9993C14.5928 78.102 14.8364 78.1882 15.0817 78.2578L16.1555 78.5661C16.4804 78.6555 16.8052 78.7699 17.13 78.9091C17.4548 79.0483 17.7514 79.224 18.0199 79.4361C18.2917 79.6449 18.5088 79.9018 18.6712 80.2067C18.8369 80.5083 18.9197 80.8712 18.9197 81.2955C18.9197 81.839 18.7789 82.3279 18.4972 82.7621C18.2154 83.1963 17.8111 83.541 17.2841 83.7962C16.7571 84.0481 16.1257 84.174 15.3899 84.174C14.6972 84.174 14.0956 84.0597 13.5852 83.831C13.0748 83.599 12.6738 83.2791 12.3821 82.8714C12.0904 82.4638 11.9264 81.9915 11.8899 81.4545H12.8445C12.8776 81.8556 13.0102 82.1953 13.2422 82.4737C13.4742 82.7521 13.7758 82.9643 14.147 83.1101C14.5182 83.2526 14.9325 83.3239 15.3899 83.3239C15.897 83.3239 16.3478 83.2393 16.7422 83.0703C17.1399 82.898 17.4515 82.6593 17.6768 82.3544C17.9055 82.0462 18.0199 81.6882 18.0199 81.2805C18.0199 80.9358 17.9304 80.6475 17.7514 80.4155C17.5724 80.1802 17.3222 79.983 17.0007 79.8239C16.6825 79.6648 16.313 79.5239 15.892 79.4013L14.674 79.0433C13.8752 78.8047 13.2554 78.4749 12.8146 78.054C12.3738 77.633 12.1534 77.0961 12.1534 76.4432C12.1534 75.8963 12.2992 75.4157 12.5909 75.0014C12.8859 74.5838 13.2836 74.259 13.7841 74.027C14.2879 73.7917 14.853 73.674 15.4794 73.674C16.1125 73.674 16.6726 73.79 17.1598 74.022C17.647 74.254 18.0331 74.5739 18.3182 74.9815C18.6065 75.3859 18.7607 75.8466 18.7805 76.3636H17.8807ZM24.9702 80.8182H26.0043L27.3068 82.5433L27.5256 82.8317L29.1264 84.9545H28.0923L26.919 83.3885L26.7102 83.1101L24.9702 80.8182ZM29.5043 78.9091C29.5043 79.9697 29.3153 80.8928 28.9375 81.6783C28.5597 82.4605 28.0393 83.067 27.3764 83.4979C26.7169 83.9254 25.9579 84.1392 25.0994 84.1392C24.241 84.1392 23.4804 83.9254 22.8175 83.4979C22.1579 83.067 21.6392 82.4605 21.2614 81.6783C20.8868 80.8928 20.6996 79.9697 20.6996 78.9091C20.6996 77.8485 20.8868 76.9271 21.2614 76.1449C21.6392 75.3594 22.1596 74.7528 22.8224 74.3253C23.4853 73.8944 24.2443 73.679 25.0994 73.679C25.9579 73.679 26.7169 73.8944 27.3764 74.3253C28.0393 74.7528 28.5597 75.3594 28.9375 76.1449C29.3153 76.9271 29.5043 77.8485 29.5043 78.9091ZM28.5994 78.9091C28.5994 77.9976 28.447 77.2171 28.142 76.5675C27.8371 75.9145 27.4212 75.4157 26.8942 75.071C26.3672 74.7263 25.7689 74.554 25.0994 74.554C24.4332 74.554 23.8366 74.7263 23.3097 75.071C22.7827 75.4157 22.3651 75.9129 22.0568 76.5625C21.7519 77.2121 21.5994 77.9943 21.5994 78.9091C21.5994 79.8205 21.7519 80.6011 22.0568 81.2507C22.3617 81.9003 22.7777 82.3991 23.3047 82.7472C23.8317 83.0919 24.4299 83.2642 25.0994 83.2642C25.7689 83.2642 26.3672 83.0919 26.8942 82.7472C27.4245 82.4025 27.8421 81.9053 28.147 81.2557C28.4519 80.6027 28.6027 79.8205 28.5994 78.9091ZM31.7527 84V73.8182H32.6824V83.1648H37.5346V84H31.7527Z" fill="black"/>
<circle cx="25" cy="25" r="25" fill="#DE0756"/>
<path d="M11 34.3968V14.5883M39 21.2661C39 23.8683 32.78 25.9578 25 25.9578C17.22 25.9578 11 23.8753 11 21.2732M39 27.7347C39 30.3368 32.7808 32.4193 25 32.4193C17.2192 32.4193 11 30.3376 11 27.7347M11.0008 34.4047C11.0008 36.9104 17.2192 39 25 39C32.7808 39 39 36.9104 39 34.4047V14.5883M39 14.5953C39 17.1975 32.78 19.28 25 19.28C17.22 19.28 11 17.1983 11 14.5953C11.2221 12.0896 17.3386 10 24.8889 10C32.5587 10 38.7779 12.0817 39 14.5953Z" stroke="white" stroke-width="3" stroke-linecap="round" stroke-linejoin="round"/>
</svg>
