<svg width="72" height="72" viewBox="0 0 72 72" fill="none" xmlns="http://www.w3.org/2000/svg">
<circle cx="36" cy="36" r="36" fill="#241E26"/>
<path d="M36.3008 8C30.0566 7.99657 24.0152 10.3742 19.2583 14.707C14.5015 19.0399 11.3398 25.0451 10.3395 31.6473C9.33926 38.2495 10.5657 45.0175 13.7991 50.7394C17.0326 56.4614 22.062 60.7635 27.9867 62.8755C29.3072 63.1375 29.784 62.2731 29.784 61.5659V56.7855C22.448 58.4881 20.9319 53.0136 20.9319 53.0136C20.4467 51.2815 19.391 49.7969 17.9609 48.8358C15.5767 47.0939 18.1443 47.1201 18.1443 47.1201C18.9771 47.245 19.7723 47.5718 20.4694 48.0756C21.1665 48.5795 21.747 49.2471 22.1668 50.0276C24.5143 54.3364 28.2801 53.0922 29.8207 52.3719C29.9413 50.9409 30.5354 49.6031 31.4957 48.6C25.6514 47.8928 19.5137 45.483 19.5137 34.6912C19.4762 31.8919 20.4485 29.185 22.228 27.1344C21.419 24.7069 21.5109 22.0394 22.4847 19.6823C22.4847 19.6823 24.6855 18.9227 29.7107 22.5636C34.0174 21.3063 38.5598 21.3063 42.8665 22.5636C47.8917 18.9227 50.0924 19.6823 50.0924 19.6823C51.0589 22.0412 51.1507 24.7057 50.3492 27.1344C52.1264 29.1855 53.0946 31.8932 53.0513 34.6912C53.0513 45.5092 46.938 47.8797 41.057 48.5869C41.688 49.2718 42.174 50.0942 42.482 50.9981C42.7901 51.902 42.9129 52.8664 42.8421 53.8257V61.5528C42.8421 62.4826 43.3189 63.1768 44.6516 62.8624C50.5703 60.7422 55.5916 56.4356 58.8175 50.7129C62.0434 44.9902 63.2633 38.2247 62.259 31.6269C61.2547 25.029 58.0918 19.029 53.3359 14.7003C48.5801 10.3716 42.5417 7.99656 36.3008 8Z" stroke="white" stroke-width="4" stroke-linecap="round" stroke-linejoin="round"/>
</svg>
