<svg width="50" height="84" viewBox="0 0 50 84" fill="none" xmlns="http://www.w3.org/2000/svg">
<path d="M10.3523 83.3184V73.1365H11.282V77.8049H17.0589V73.1365H17.9886V83.3184H17.0589V78.6401H11.282V83.3184H10.3523ZM23.5121 75.682V76.4526H19.8679V75.682H23.5121ZM21.0064 73.8525H21.8963V81.3248C21.8963 81.6429 21.951 81.8932 22.0604 82.0755C22.1697 82.2544 22.3123 82.382 22.4879 82.4583C22.6636 82.5312 22.8509 82.5676 23.0497 82.5676C23.1657 82.5676 23.2652 82.561 23.348 82.5478C23.4309 82.5312 23.5038 82.5146 23.5668 82.498L23.7557 83.2985C23.6695 83.3316 23.5634 83.3614 23.4375 83.388C23.3116 83.4178 23.1558 83.4327 22.9702 83.4327C22.6454 83.4327 22.3321 83.3614 22.0305 83.2189C21.7322 83.0764 21.487 82.8643 21.2947 82.5826C21.1025 82.3008 21.0064 81.9512 21.0064 81.5336V73.8525ZM25.5218 83.3184V75.682H26.3819V76.8553H26.4615C26.6139 76.4609 26.8675 76.151 27.2221 75.9256C27.5801 75.6969 28.0093 75.5826 28.5098 75.5826C29.0368 75.5826 29.4693 75.7069 29.8074 75.9554C30.1487 76.2007 30.4039 76.5388 30.573 76.9696H30.6376C30.81 76.5454 31.09 76.209 31.4778 75.9604C31.8689 75.7085 32.3429 75.5826 32.8997 75.5826C33.609 75.5826 34.1691 75.8063 34.5801 76.2537C34.9911 76.6979 35.1966 77.3475 35.1966 78.2026V83.3184H34.3116V78.2026C34.3116 77.5994 34.1575 77.147 33.8493 76.8453C33.541 76.5437 33.135 76.3929 32.6312 76.3929C32.0479 76.3929 31.5988 76.5719 31.2839 76.9299C30.969 77.2878 30.8116 77.7419 30.8116 78.2921V83.3184H29.9068V78.123C29.9068 77.606 29.7626 77.1884 29.4743 76.8702C29.1859 76.552 28.7799 76.3929 28.2562 76.3929C27.9049 76.3929 27.5884 76.4791 27.3066 76.6515C27.0282 76.8238 26.8078 77.0641 26.6454 77.3723C26.4863 77.6773 26.4068 78.0286 26.4068 78.4263V83.3184H25.5218ZM38.4244 73.1365V83.3184H37.5394V73.1365H38.4244Z" fill="black"/>
<circle cx="25" cy="25" r="25" fill="#DE0756"/>
<circle cx="25" cy="25" r="25" stroke="#DE0756"/>
<path d="M13.3768 10.6252C11.5799 10.6252 10.1861 12.1942 10.3977 13.9786L13.0947 36.7181C13.2391 37.9356 14.1099 38.9428 15.2938 39.2616L24.22 41.6652C24.7309 41.8028 25.2691 41.8028 25.78 41.6652L34.7062 39.2616C35.8901 38.9428 36.7609 37.9356 36.9053 36.7181L39.6023 13.9786C39.8139 12.1942 38.4201 10.6252 36.6232 10.6252H13.3768Z" stroke="white" stroke-width="3" stroke-linecap="round" stroke-linejoin="round"/>
<path d="M33.8127 16.875H19.4042C17.5977 16.875 16.201 18.4598 16.428 20.252L16.6055 21.6533C16.7954 23.1524 18.0706 24.2763 19.5817 24.2763H28.6108C30.3899 24.2763 31.7782 25.8159 31.5948 27.5856L31.2168 31.2324C31.0868 32.4872 30.1857 33.5265 28.9621 33.8332L25.1671 34.7843C24.6883 34.9043 24.1872 34.9043 23.7084 34.7843L19.8912 33.8276C18.6785 33.5237 17.7814 32.4996 17.6398 31.2574L17.4065 29.2105" stroke="white" stroke-width="3" stroke-linecap="round" stroke-linejoin="round"/>
</svg>
