<svg width="50" height="85" viewBox="0 0 50 85" fill="none" xmlns="http://www.w3.org/2000/svg">
<path d="M15.282 73.8182V84H14.3771L8.36151 75.4737H8.28196V84H7.35227V73.8182H8.25213L14.2876 82.3544H14.3672V73.8182H15.282ZM20.7731 84.1591C20.1135 84.1591 19.5302 83.9917 19.0231 83.657C18.5193 83.3222 18.1249 82.8598 17.8398 82.2699C17.5548 81.6766 17.4123 80.9922 17.4123 80.2166C17.4123 79.4344 17.5548 78.7467 17.8398 78.1534C18.1249 77.5568 18.5193 77.0928 19.0231 76.7614C19.5302 76.4266 20.1135 76.2592 20.7731 76.2592C21.4326 76.2592 22.0143 76.4266 22.5181 76.7614C23.0219 77.0961 23.4163 77.5601 23.7013 78.1534C23.9897 78.7467 24.1339 79.4344 24.1339 80.2166C24.1339 80.9922 23.9914 81.6766 23.7063 82.2699C23.4213 82.8598 23.0252 83.3222 22.5181 83.657C22.0143 83.9917 21.4326 84.1591 20.7731 84.1591ZM20.7731 83.3487C21.3034 83.3487 21.7525 83.2062 22.1204 82.9212C22.4883 82.6361 22.7667 82.2566 22.9556 81.7827C23.1478 81.3087 23.244 80.7867 23.244 80.2166C23.244 79.6465 23.1478 79.1229 22.9556 78.6456C22.7667 78.1683 22.4883 77.7855 22.1204 77.4972C21.7525 77.2088 21.3034 77.0646 20.7731 77.0646C20.2461 77.0646 19.797 77.2088 19.4258 77.4972C19.0579 77.7855 18.7778 78.1683 18.5856 78.6456C18.3967 79.1229 18.3022 79.6465 18.3022 80.2166C18.3022 80.7867 18.3967 81.3087 18.5856 81.7827C18.7778 82.2566 19.0579 82.6361 19.4258 82.9212C19.7937 83.2062 20.2428 83.3487 20.7731 83.3487ZM28.8258 84.1591C28.1994 84.1591 27.6509 83.9934 27.1802 83.6619C26.7096 83.3305 26.3417 82.8681 26.0765 82.2749C25.8147 81.6816 25.6838 80.9905 25.6838 80.2017C25.6838 79.4162 25.8147 78.7285 26.0765 78.1385C26.3417 77.5452 26.7112 77.0845 27.1852 76.7564C27.6592 76.425 28.211 76.2592 28.8407 76.2592C29.3047 76.2592 29.6909 76.3421 29.9991 76.5078C30.3074 76.6702 30.5543 76.8724 30.7399 77.1143C30.9255 77.3563 31.0697 77.5916 31.1724 77.8203H31.252V73.8182H32.1419V84H31.2768V82.5831H31.1724C31.0697 82.8151 30.9238 83.0537 30.7349 83.299C30.546 83.541 30.2958 83.7448 29.9842 83.9105C29.676 84.0762 29.2898 84.1591 28.8258 84.1591ZM28.9302 83.3487C29.4241 83.3487 29.845 83.2145 30.193 82.946C30.541 82.6742 30.8062 82.3014 30.9885 81.8274C31.1741 81.3501 31.2669 80.8033 31.2669 80.1868C31.2669 79.5769 31.1757 79.0384 30.9934 78.571C30.8111 78.1004 30.546 77.7325 30.198 77.4673C29.85 77.1989 29.4274 77.0646 28.9302 77.0646C28.4198 77.0646 27.9889 77.2038 27.6376 77.4822C27.2896 77.7573 27.0244 78.1302 26.8422 78.6009C26.6632 79.0715 26.5737 79.6001 26.5737 80.1868C26.5737 80.7801 26.6648 81.3153 26.8471 81.7926C27.0294 82.2699 27.2946 82.6494 27.6426 82.9311C27.9939 83.2095 28.4231 83.3487 28.9302 83.3487ZM37.7498 84.1591C37.0372 84.1591 36.4208 83.9934 35.9004 83.6619C35.38 83.3272 34.9773 82.8648 34.6923 82.2749C34.4106 81.6816 34.2697 80.9988 34.2697 80.2266C34.2697 79.4576 34.4106 78.7749 34.6923 78.1783C34.9773 77.5784 35.3701 77.1094 35.8706 76.7713C36.3743 76.4299 36.956 76.2592 37.6156 76.2592C38.0299 76.2592 38.4293 76.3355 38.8137 76.4879C39.1982 76.6371 39.5429 76.8674 39.8478 77.179C40.1561 77.4872 40.3997 77.8767 40.5787 78.3473C40.7576 78.8146 40.8471 79.3681 40.8471 80.0078V80.4453H34.8812V79.6648H39.9423C39.9423 79.1742 39.8429 78.7334 39.644 78.3423C39.4484 77.9479 39.175 77.6364 38.8237 77.4077C38.4757 77.179 38.073 77.0646 37.6156 77.0646C37.1317 77.0646 36.7058 77.1939 36.3379 77.4524C35.97 77.7109 35.6816 78.0523 35.4728 78.4766C35.2673 78.9008 35.1629 79.3648 35.1596 79.8686V80.3359C35.1596 80.9425 35.264 81.4728 35.4728 81.9268C35.685 82.3776 35.9849 82.7273 36.3727 82.9759C36.7605 83.2244 37.2195 83.3487 37.7498 83.3487C38.1111 83.3487 38.4276 83.2924 38.6994 83.1797C38.9745 83.067 39.2048 82.9162 39.3904 82.7273C39.5794 82.535 39.7219 82.3246 39.818 82.0959L40.6582 82.3693C40.5422 82.6908 40.3516 82.9875 40.0865 83.2592C39.8246 83.531 39.4965 83.7498 39.1021 83.9155C38.711 84.0779 38.2602 84.1591 37.7498 84.1591Z" fill="black"/>
<circle cx="25" cy="25" r="25" fill="#DE0756"/>
<mask id="path-3-inside-1_84_141" fill="white">
<path d="M24.6875 43.1248C24.1531 43.1248 23.6562 42.9901 23.1922 42.7571L18.4594 40.1272C17.7484 39.7611 18.1047 39.6279 18.3188 39.5613C19.2781 39.2617 19.4563 39.1951 20.4531 38.661C20.5594 38.5944 20.7031 38.6277 20.8094 38.6943L24.4391 40.7264C24.5797 40.793 24.7594 40.793 24.8656 40.7264L39.0641 33.0336C39.2047 32.9671 39.2766 32.8339 39.2766 32.6675V17.3152C39.2766 17.1487 39.2063 17.0156 39.0641 16.949L24.8656 9.291C24.7234 9.22442 24.5453 9.22442 24.4391 9.291L10.2406 16.949C10.0984 17.0156 10.0266 17.182 10.0266 17.3152V32.6675C10.0266 32.8006 10.0984 32.9671 10.2406 33.0336L14.1188 35.1324C16.2188 36.131 17.5344 34.9659 17.5344 33.8008V18.6482C17.5344 18.4485 17.7125 18.2488 17.9625 18.2488H19.7766C19.9906 18.2488 20.2031 18.4152 20.2031 18.6482V33.7993C20.2031 36.4306 18.6734 37.9619 16.0047 37.9619C15.1859 37.9619 14.5453 37.9619 12.7313 37.1297L8.99531 35.1324C8.54513 34.8926 8.16919 34.5409 7.90632 34.1134C7.64345 33.6859 7.50318 33.1983 7.5 32.7007V17.3485C7.5 16.3498 8.06875 15.4177 8.99531 14.9184L23.1938 7.22405C23.656 6.99449 24.168 6.87476 24.6875 6.87476C25.207 6.87476 25.719 6.99449 26.1813 7.22405L40.3813 14.9168C41.3063 15.4162 41.875 16.3483 41.875 17.3469V32.6992C41.875 33.6979 41.3063 34.63 40.3813 35.1308L26.1828 42.8221C25.7109 43.0203 25.2019 43.1222 24.6875 43.1217M29.0641 32.5646C22.8375 32.5646 21.5563 29.9014 21.5563 27.6363C21.5563 27.4365 21.7344 27.2368 21.9828 27.2368H23.8328C24.0469 27.2368 24.2234 27.37 24.2234 27.5697C24.5094 29.334 25.3281 30.1995 29.1 30.1995C32.0891 30.1995 33.3703 29.567 33.3703 28.069C33.3703 27.2035 33.0141 26.571 28.3531 26.1383C24.4734 25.7706 22.0547 24.9732 22.0547 22.0755C22.0547 19.3776 24.4734 17.7782 28.5313 17.7782C33.0859 17.7782 35.3281 19.2444 35.6125 22.4417C35.6093 22.5499 35.5717 22.6546 35.5047 22.7413C35.4344 22.8079 35.3281 22.8744 35.2203 22.8744H33.3703C33.2804 22.8723 33.1937 22.842 33.1233 22.7879C33.0528 22.7339 33.0024 22.6591 32.9797 22.5748C32.5516 20.7439 31.4484 20.1432 28.5313 20.1432C25.2563 20.1432 24.8656 21.2085 24.8656 22.0089C24.8656 22.9743 25.3281 23.2739 29.7406 23.8065C34.1172 24.3392 36.1813 25.1048 36.1813 27.9677C36.1453 30.9001 33.5844 32.5646 29.0641 32.5646Z"/>
</mask>
<path d="M24.6875 43.1248C24.1531 43.1248 23.6562 42.9901 23.1922 42.7571L18.4594 40.1272C17.7484 39.7611 18.1047 39.6279 18.3188 39.5613C19.2781 39.2617 19.4563 39.1951 20.4531 38.661C20.5594 38.5944 20.7031 38.6277 20.8094 38.6943L24.4391 40.7264C24.5797 40.793 24.7594 40.793 24.8656 40.7264L39.0641 33.0336C39.2047 32.9671 39.2766 32.8339 39.2766 32.6675V17.3152C39.2766 17.1487 39.2063 17.0156 39.0641 16.949L24.8656 9.291C24.7234 9.22442 24.5453 9.22442 24.4391 9.291L10.2406 16.949C10.0984 17.0156 10.0266 17.182 10.0266 17.3152V32.6675C10.0266 32.8006 10.0984 32.9671 10.2406 33.0336L14.1188 35.1324C16.2188 36.131 17.5344 34.9659 17.5344 33.8008V18.6482C17.5344 18.4485 17.7125 18.2488 17.9625 18.2488H19.7766C19.9906 18.2488 20.2031 18.4152 20.2031 18.6482V33.7993C20.2031 36.4306 18.6734 37.9619 16.0047 37.9619C15.1859 37.9619 14.5453 37.9619 12.7313 37.1297L8.99531 35.1324C8.54513 34.8926 8.16919 34.5409 7.90632 34.1134C7.64345 33.6859 7.50318 33.1983 7.5 32.7007V17.3485C7.5 16.3498 8.06875 15.4177 8.99531 14.9184L23.1938 7.22405C23.656 6.99449 24.168 6.87476 24.6875 6.87476C25.207 6.87476 25.719 6.99449 26.1813 7.22405L40.3813 14.9168C41.3063 15.4162 41.875 16.3483 41.875 17.3469V32.6992C41.875 33.6979 41.3063 34.63 40.3813 35.1308L26.1828 42.8221C25.7109 43.0203 25.2019 43.1222 24.6875 43.1217M29.0641 32.5646C22.8375 32.5646 21.5563 29.9014 21.5563 27.6363C21.5563 27.4365 21.7344 27.2368 21.9828 27.2368H23.8328C24.0469 27.2368 24.2234 27.37 24.2234 27.5697C24.5094 29.334 25.3281 30.1995 29.1 30.1995C32.0891 30.1995 33.3703 29.567 33.3703 28.069C33.3703 27.2035 33.0141 26.571 28.3531 26.1383C24.4734 25.7706 22.0547 24.9732 22.0547 22.0755C22.0547 19.3776 24.4734 17.7782 28.5313 17.7782C33.0859 17.7782 35.3281 19.2444 35.6125 22.4417C35.6093 22.5499 35.5717 22.6546 35.5047 22.7413C35.4344 22.8079 35.3281 22.8744 35.2203 22.8744H33.3703C33.2804 22.8723 33.1937 22.842 33.1233 22.7879C33.0528 22.7339 33.0024 22.6591 32.9797 22.5748C32.5516 20.7439 31.4484 20.1432 28.5313 20.1432C25.2563 20.1432 24.8656 21.2085 24.8656 22.0089C24.8656 22.9743 25.3281 23.2739 29.7406 23.8065C34.1172 24.3392 36.1813 25.1048 36.1813 27.9677C36.1453 30.9001 33.5844 32.5646 29.0641 32.5646Z" fill="white"/>
<path d="M23.1922 42.7571L22.7065 43.6312L22.7248 43.6413L22.7434 43.6507L23.1922 42.7571ZM18.4594 40.1272L18.9451 39.2531L18.9313 39.2454L18.9173 39.2382L18.4594 40.1272ZM18.3188 39.5613L18.6157 40.5162L18.6168 40.5159L18.3188 39.5613ZM20.4531 38.661L20.9254 39.5424L20.9553 39.5264L20.9841 39.5084L20.4531 38.661ZM20.8094 38.6943L20.2784 39.5417L20.2993 39.5548L20.3209 39.5668L20.8094 38.6943ZM24.4391 40.7264L23.9505 41.599L23.9803 41.6157L24.0112 41.6303L24.4391 40.7264ZM24.8656 40.7264L24.3892 39.8472L24.3614 39.8623L24.3346 39.879L24.8656 40.7264ZM39.0641 33.0336L38.6362 32.1298L38.6116 32.1415L38.5877 32.1544L39.0641 33.0336ZM39.0641 16.949L38.5894 17.8291L38.6143 17.8426L38.64 17.8546L39.0641 16.949ZM24.8656 9.291L25.3403 8.41085L25.3154 8.39739L25.2897 8.38536L24.8656 9.291ZM24.4391 9.291L24.9138 10.1711L24.9424 10.1557L24.97 10.1384L24.4391 9.291ZM10.2406 16.949L10.6647 17.8546L10.6904 17.8426L10.7153 17.8291L10.2406 16.949ZM10.2406 33.0336L10.7166 32.1542L10.691 32.1403L10.6647 32.128L10.2406 33.0336ZM14.1188 35.1324L13.6428 36.0118L13.6657 36.0242L13.6893 36.0354L14.1188 35.1324ZM12.7313 37.1297L12.2598 38.0116L12.2866 38.0259L12.3143 38.0386L12.7313 37.1297ZM8.99531 35.1324L9.46679 34.2505L9.46534 34.2497L8.99531 35.1324ZM7.5 32.7007H6.49998L6.50002 32.7071L7.5 32.7007ZM8.99531 14.9184L9.46972 15.7987L9.47176 15.7976L8.99531 14.9184ZM23.1938 7.22405L22.749 6.32842L22.733 6.33635L22.7173 6.34485L23.1938 7.22405ZM24.6875 6.87476V7.87476V6.87476ZM26.1813 7.22405L26.6576 6.34479L26.642 6.33632L26.626 6.32842L26.1813 7.22405ZM40.3813 14.9168L39.9049 15.7961L39.9062 15.7968L40.3813 14.9168ZM40.3813 35.1308L39.9051 34.2515L39.9049 34.2516L40.3813 35.1308ZM26.1828 42.8221L26.5699 43.7442L26.6156 43.725L26.6591 43.7014L26.1828 42.8221ZM24.2234 27.5697H23.2234V27.6502L23.2363 27.7297L24.2234 27.5697ZM28.3531 26.1383L28.2588 27.1338L28.2607 27.134L28.3531 26.1383ZM35.6125 22.4417L36.6121 22.471L36.6138 22.4119L36.6086 22.3531L35.6125 22.4417ZM35.5047 22.7413L36.1922 23.4674L36.2486 23.414L36.2961 23.3526L35.5047 22.7413ZM33.3703 22.8744L33.3469 23.8742L33.3586 23.8744H33.3703V22.8744ZM32.9797 22.5748L32.006 22.8025L32.0098 22.8189L32.0141 22.8351L32.9797 22.5748ZM29.7406 23.8065L29.8614 22.8139L29.8605 22.8137L29.7406 23.8065ZM36.1813 27.9677L37.1813 27.9799V27.9677H36.1813ZM24.6875 42.1248C24.328 42.1248 23.9838 42.0356 23.6409 41.8634L22.7434 43.6507C23.3287 43.9446 23.9783 44.1248 24.6875 44.1248V42.1248ZM23.6779 41.8829L18.9451 39.2531L17.9737 41.0014L22.7065 43.6312L23.6779 41.8829ZM18.9173 39.2382C18.7715 39.1632 18.7744 39.1452 18.8243 39.1965C18.8698 39.2433 19.1423 39.5582 18.9978 40.0267C18.9383 40.2194 18.8303 40.3425 18.7623 40.4058C18.6951 40.4682 18.637 40.5003 18.6161 40.5113C18.5797 40.5305 18.5639 40.5323 18.6157 40.5162L18.0218 38.6064C17.9665 38.6236 17.826 38.6671 17.6848 38.7414C17.5878 38.7924 17.2248 38.9891 17.0866 39.4372C16.9152 39.993 17.2185 40.414 17.3905 40.5909C17.5668 40.7722 17.7918 40.9082 18.0015 41.0162L18.9173 39.2382ZM18.6168 40.5159C19.6348 40.1979 19.8714 40.1072 20.9254 39.5424L19.9808 37.7796C19.0411 38.2831 18.9214 38.3255 18.0207 38.6068L18.6168 40.5159ZM20.9841 39.5084C20.7918 39.6289 20.6046 39.633 20.4993 39.619C20.3973 39.6054 20.3254 39.5712 20.2784 39.5417L21.3404 37.8469C21.104 37.6988 20.5105 37.4449 19.9221 37.8136L20.9841 39.5084ZM20.3209 39.5668L23.9505 41.599L24.9276 39.8539L21.2979 37.8217L20.3209 39.5668ZM24.0112 41.6303C24.2238 41.7309 24.4512 41.7764 24.6652 41.7764C24.8699 41.7764 25.1409 41.7341 25.3966 41.5738L24.3346 39.879C24.4841 39.7854 24.6121 39.7764 24.6652 39.7764C24.7277 39.7764 24.795 39.7885 24.867 39.8226L24.0112 41.6303ZM25.342 41.6057L39.5404 33.9129L38.5877 32.1544L24.3892 39.8472L25.342 41.6057ZM39.492 33.9375C40.046 33.6752 40.2766 33.1442 40.2766 32.6675H38.2766C38.2766 32.6079 38.2897 32.5062 38.3541 32.3931C38.422 32.2738 38.5245 32.1827 38.6362 32.1298L39.492 33.9375ZM40.2766 32.6675V17.3152H38.2766V32.6675H40.2766ZM40.2766 17.3152C40.2766 16.8446 40.0519 16.3073 39.4881 16.0434L38.64 17.8546C38.5273 17.8018 38.4226 17.7095 38.3535 17.5874C38.2885 17.4727 38.2766 17.371 38.2766 17.3152H40.2766ZM39.5388 16.0688L25.3403 8.41085L24.3909 10.1711L38.5894 17.8291L39.5388 16.0688ZM25.2897 8.38536C24.9283 8.21615 24.3761 8.15036 23.9081 8.44361L24.97 10.1384C24.8214 10.2315 24.6935 10.2411 24.6389 10.2411C24.5752 10.2411 24.5097 10.2285 24.4416 10.1966L25.2897 8.38536ZM23.9644 8.41085L9.76592 16.0688L10.7153 17.8291L24.9138 10.1711L23.9644 8.41085ZM9.81657 16.0434C9.22362 16.321 9.02656 16.9171 9.02656 17.3152H11.0266C11.0266 17.4161 11.0025 17.5034 10.9613 17.5801C10.9184 17.66 10.8287 17.7778 10.6647 17.8546L9.81657 16.0434ZM9.02656 17.3152V32.6675H11.0266V17.3152H9.02656ZM9.02656 32.6675C9.02656 33.0655 9.22361 33.6616 9.81657 33.9393L10.6647 32.128C10.8287 32.2048 10.9185 32.3226 10.9613 32.4025C11.0025 32.4792 11.0266 32.5666 11.0266 32.6675H9.02656ZM9.76468 33.9131L13.6428 36.0118L14.5947 34.2529L10.7166 32.1542L9.76468 33.9131ZM13.6893 36.0354C14.9508 36.6353 16.1454 36.656 17.0808 36.1624C17.9967 35.6791 18.5344 34.7582 18.5344 33.8008H16.5344C16.5344 34.0085 16.4143 34.2527 16.1474 34.3936C15.8999 34.5242 15.3867 34.628 14.5482 34.2293L13.6893 36.0354ZM18.5344 33.8008V18.6482H16.5344V33.8008H18.5344ZM18.5344 18.6482C18.5344 19.0118 18.2537 19.2488 17.9625 19.2488V17.2488C17.1713 17.2488 16.5344 17.8852 16.5344 18.6482H18.5344ZM17.9625 19.2488H19.7766V17.2488H17.9625V19.2488ZM19.7766 19.2488C19.6324 19.2488 19.5049 19.1963 19.4072 19.1098C19.3012 19.0159 19.2031 18.854 19.2031 18.6482H21.2031C21.2031 17.7521 20.4252 17.2488 19.7766 17.2488V19.2488ZM19.2031 18.6482V33.7993H21.2031V18.6482H19.2031ZM19.2031 33.7993C19.2031 34.9224 18.8803 35.6804 18.3997 36.1581C17.9183 36.6367 17.15 36.9619 16.0047 36.9619V38.9619C17.5281 38.9619 18.859 38.5216 19.8097 37.5766C20.7611 36.6309 21.2031 35.3075 21.2031 33.7993H19.2031ZM16.0047 36.9619C15.5996 36.9619 15.3268 36.9601 14.9492 36.8798C14.5589 36.7968 14.0192 36.6204 13.1482 36.2208L12.3143 38.0386C13.2573 38.4713 13.945 38.711 14.5332 38.836C15.1341 38.9638 15.591 38.9619 16.0047 38.9619V36.9619ZM13.2027 36.2478L9.46679 34.2505L8.52383 36.0142L12.2598 38.0116L13.2027 36.2478ZM9.46534 34.2497C9.16936 34.0921 8.92632 33.863 8.75815 33.5896L7.0545 34.6372C7.41207 35.2187 7.9209 35.6932 8.52529 36.015L9.46534 34.2497ZM8.75815 33.5896C8.59015 33.3164 8.50198 33.0074 8.49998 32.6943L6.50002 32.7071C6.50439 33.3891 6.69676 34.0555 7.0545 34.6372L8.75815 33.5896ZM8.5 32.7007V17.3485H6.5V32.7007H8.5ZM8.5 17.3485C8.5 16.7365 8.84987 16.1327 9.46972 15.7987L8.52091 14.038C7.28763 14.7027 6.5 15.9631 6.5 17.3485H8.5ZM9.47176 15.7976L23.6702 8.10325L22.7173 6.34485L8.51886 14.0392L9.47176 15.7976ZM23.6385 8.11968C23.9616 7.95923 24.3213 7.87476 24.6875 7.87476V5.87476C24.0147 5.87476 23.3504 6.02974 22.749 6.32842L23.6385 8.11968ZM24.6875 7.87476C25.0537 7.87476 25.4134 7.95923 25.7365 8.11968L26.626 6.32842C26.0246 6.02974 25.3603 5.87476 24.6875 5.87476V7.87476ZM25.7049 8.10331L39.9049 15.7961L40.8576 14.0376L26.6576 6.34479L25.7049 8.10331ZM39.9062 15.7968C40.5249 16.1308 40.875 16.7347 40.875 17.3469H42.875C42.875 15.9618 42.0876 14.7016 40.8563 14.0369L39.9062 15.7968ZM40.875 17.3469V32.6992H42.875V17.3469H40.875ZM40.875 32.6992C40.875 33.3112 40.525 33.9159 39.9051 34.2515L40.8574 36.0102C42.0875 35.3441 42.875 34.0846 42.875 32.6992H40.875ZM39.9049 34.2516L25.7065 41.9428L26.6591 43.7014L40.8576 36.0101L39.9049 34.2516ZM25.7957 41.9001C25.4473 42.0464 25.0703 42.1221 24.6885 42.1217L24.6865 44.1217C25.3335 44.1224 25.9745 43.9941 26.5699 43.7442L25.7957 41.9001ZM29.0641 31.5646C26.0694 31.5646 24.4713 30.9207 23.6289 30.1931C22.8159 29.4909 22.5563 28.5782 22.5563 27.6363H20.5563C20.5563 28.9595 20.9372 30.511 22.3215 31.7066C23.6764 32.8769 25.8322 33.5646 29.0641 33.5646V31.5646ZM22.5563 27.6363C22.5563 27.9974 22.2781 28.2368 21.9828 28.2368V26.2368C21.1907 26.2368 20.5563 26.8757 20.5563 27.6363H22.5563ZM21.9828 28.2368H23.8328V26.2368H21.9828V28.2368ZM23.8328 28.2368C23.7391 28.2368 23.604 28.2082 23.4735 28.101C23.33 27.9831 23.2234 27.7901 23.2234 27.5697H25.2234C25.2234 26.6429 24.4065 26.2368 23.8328 26.2368V28.2368ZM23.2363 27.7297C23.3999 28.7391 23.7604 29.7412 24.8314 30.3985C25.7972 30.9912 27.191 31.1995 29.1 31.1995V29.1995C27.2371 29.1995 26.3356 28.9751 25.8776 28.6939C25.5247 28.4774 25.3329 28.1646 25.2106 27.4097L23.2363 27.7297ZM29.1 31.1995C30.6228 31.1995 31.8887 31.0456 32.8016 30.5913C33.28 30.3532 33.6904 30.0186 33.9741 29.5596C34.2577 29.1007 34.3703 28.5891 34.3703 28.069H32.3703C32.3703 28.298 32.3228 28.4272 32.2727 28.5082C32.2228 28.5891 32.126 28.6935 31.9105 28.8008C31.4355 29.0372 30.5663 29.1995 29.1 29.1995V31.1995ZM34.3703 28.069C34.3703 27.7944 34.346 27.384 34.1122 26.9707C33.8741 26.5497 33.4951 26.2559 33.0401 26.0388C32.1883 25.6325 30.7669 25.3581 28.4456 25.1426L28.2607 27.134C30.6003 27.3512 31.6875 27.6095 32.179 27.8439C32.3957 27.9473 32.3971 28.0009 32.3714 27.9555C32.3501 27.9177 32.3703 27.9109 32.3703 28.069H34.3703ZM28.4475 25.1427C26.5114 24.9592 25.1257 24.6782 24.236 24.1822C23.8137 23.9467 23.5349 23.6792 23.3549 23.3736C23.1749 23.0678 23.0547 22.6576 23.0547 22.0755H21.0547C21.0547 22.9422 21.2369 23.7183 21.6316 24.3885C22.0264 25.0589 22.5947 25.557 23.2621 25.929C24.5517 26.6481 26.3152 26.9496 28.2588 27.1338L28.4475 25.1427ZM23.0547 22.0755C23.0547 21.0749 23.4803 20.3078 24.3238 19.7486C25.2127 19.1594 26.6132 18.7782 28.5313 18.7782V16.7782C26.3915 16.7782 24.5537 17.1967 23.2188 18.0816C21.8385 18.9966 21.0547 20.3782 21.0547 22.0755H23.0547ZM28.5313 18.7782C30.7308 18.7782 32.1979 19.1377 33.1239 19.7465C33.9889 20.3152 34.4961 21.1774 34.6164 22.5303L36.6086 22.3531C36.4445 20.5087 35.6885 19.0391 34.2226 18.0754C32.8178 17.1518 30.8864 16.7782 28.5313 16.7782V18.7782ZM34.6129 22.4124C34.616 22.3068 34.6528 22.2083 34.7133 22.13L36.2961 23.3526C36.4905 23.1009 36.6026 22.793 36.6121 22.471L34.6129 22.4124ZM34.8171 22.0152C34.8393 21.9942 34.8718 21.9678 34.9213 21.9425C34.9682 21.9185 35.0719 21.8744 35.2203 21.8744V23.8744C35.7023 23.8744 36.0451 23.6068 36.1922 23.4674L34.8171 22.0152ZM35.2203 21.8744H33.3703V23.8744H35.2203V21.8744ZM33.3937 21.8747C33.5131 21.8775 33.6319 21.9177 33.7318 21.9944L32.5147 23.5814C32.7556 23.7662 33.0478 23.8671 33.3469 23.8742L33.3937 21.8747ZM33.7318 21.9944C33.8323 22.0715 33.9097 22.1826 33.9452 22.3146L32.0141 22.8351C32.0951 23.1355 32.2733 23.3962 32.5147 23.5814L33.7318 21.9944ZM33.9534 22.3471C33.6967 21.2492 33.1861 20.3508 32.1682 19.7948C31.2393 19.2874 30.0152 19.1432 28.5313 19.1432V21.1432C29.9645 21.1432 30.7506 21.2994 31.2095 21.5501C31.5795 21.7521 31.8346 22.0695 32.006 22.8025L33.9534 22.3471ZM28.5313 19.1432C26.828 19.1432 25.6505 19.412 24.8846 19.9654C24.0273 20.5848 23.8656 21.4178 23.8656 22.0089H25.8656C25.8656 21.7996 25.8992 21.6997 26.056 21.5864C26.3042 21.4071 26.9595 21.1432 28.5313 21.1432V19.1432ZM23.8656 22.0089C23.8656 22.3133 23.8969 22.751 24.1693 23.1685C24.4414 23.5857 24.8534 23.832 25.2827 24.0007C26.0931 24.3192 27.4518 24.5375 29.6208 24.7993L29.8605 22.8137C27.617 22.5429 26.5381 22.3452 26.0141 22.1393C25.7763 22.0458 25.7969 22.0029 25.8444 22.0758C25.8921 22.149 25.8656 22.1872 25.8656 22.0089H23.8656ZM29.6198 24.7992C31.8235 25.0674 33.2378 25.3785 34.1009 25.8785C34.5029 26.1115 34.7523 26.3683 34.9114 26.6615C35.074 26.9611 35.1813 27.3711 35.1813 27.9677H37.1813C37.1813 27.1328 37.0305 26.3735 36.6693 25.7077C36.3046 25.0355 35.7644 24.5309 35.1034 24.148C33.8404 23.4163 32.0343 23.0783 29.8614 22.8139L29.6198 24.7992ZM35.1813 27.9554C35.1675 29.0827 34.6931 29.9232 33.7611 30.5262C32.7767 31.163 31.2245 31.5646 29.0641 31.5646V33.5646C31.4239 33.5646 33.4124 33.1339 34.8475 32.2054C36.335 31.243 37.1591 29.785 37.1812 27.9799L35.1813 27.9554Z" fill="white" mask="url(#path-3-inside-1_84_141)"/>
</svg>
