<svg width="50" height="84" viewBox="0 0 50 84" fill="none" xmlns="http://www.w3.org/2000/svg">
<path d="M21.2102 72.8182H22.1399V80.1612C22.1366 80.8241 22.0173 81.3776 21.782 81.8217C21.5466 82.2625 21.2218 82.5923 20.8075 82.8111C20.3932 83.0298 19.9176 83.1392 19.3807 83.1392C18.8537 83.1392 18.383 83.0414 17.9688 82.8459C17.5545 82.6503 17.228 82.3752 16.9893 82.0206C16.754 81.666 16.6364 81.25 16.6364 80.7727H17.5511C17.5511 81.0743 17.6307 81.3411 17.7898 81.5732C17.9489 81.8018 18.166 81.9808 18.4411 82.1101C18.7195 82.2393 19.0327 82.304 19.3807 82.304C19.742 82.304 20.0585 82.2277 20.3303 82.0753C20.6054 81.9228 20.8208 81.6892 20.9766 81.3743C21.1323 81.0561 21.2102 80.6518 21.2102 80.1612V72.8182ZM30.3729 75.3636C30.3165 74.7969 30.0663 74.3461 29.6222 74.0114C29.178 73.6766 28.6196 73.5092 27.9467 73.5092C27.4728 73.5092 27.0552 73.5904 26.6939 73.7528C26.3359 73.9152 26.0542 74.1406 25.8487 74.429C25.6465 74.714 25.5455 75.0388 25.5455 75.4034C25.5455 75.6719 25.6035 75.9072 25.7195 76.1094C25.8355 76.3116 25.9912 76.4856 26.1868 76.6314C26.3857 76.7739 26.6044 76.8965 26.843 76.9993C27.085 77.102 27.3286 77.1882 27.5739 77.2578L28.6477 77.5661C28.9725 77.6555 29.2973 77.7699 29.6222 77.9091C29.947 78.0483 30.2436 78.224 30.5121 78.4361C30.7839 78.6449 31.0009 78.9018 31.1634 79.2067C31.3291 79.5083 31.4119 79.8712 31.4119 80.2955C31.4119 80.839 31.2711 81.3279 30.9893 81.7621C30.7076 82.1963 30.3033 82.541 29.7763 82.7962C29.2493 83.0481 28.6179 83.174 27.8821 83.174C27.1894 83.174 26.5878 83.0597 26.0774 82.831C25.567 82.599 25.166 82.2791 24.8743 81.8714C24.5826 81.4638 24.4186 80.9915 24.3821 80.4545H25.3366C25.3698 80.8556 25.5024 81.1953 25.7344 81.4737C25.9664 81.7521 26.268 81.9643 26.6392 82.1101C27.0104 82.2526 27.4247 82.3239 27.8821 82.3239C28.3892 82.3239 28.84 82.2393 29.2344 82.0703C29.6321 81.898 29.9437 81.6593 30.169 81.3544C30.3977 81.0462 30.5121 80.6882 30.5121 80.2805C30.5121 79.9358 30.4226 79.6475 30.2436 79.4155C30.0646 79.1802 29.8144 78.983 29.4929 78.8239C29.1747 78.6648 28.8052 78.5239 28.3842 78.4013L27.1662 78.0433C26.3674 77.8047 25.7476 77.4749 25.3068 77.054C24.866 76.633 24.6456 76.0961 24.6456 75.4432C24.6456 74.8963 24.7914 74.4157 25.0831 74.0014C25.3781 73.5838 25.7758 73.259 26.2763 73.027C26.7801 72.7917 27.3452 72.674 27.9716 72.674C28.6046 72.674 29.1648 72.79 29.652 73.022C30.1392 73.254 30.5253 73.5739 30.8104 73.9815C31.0987 74.3859 31.2528 74.8466 31.2727 75.3636H30.3729Z" fill="black"/>
<circle cx="25" cy="25" r="25" fill="#DE0756"/>
<path d="M35.0893 25.4469V25.0898C35.0893 23.5118 33.81 22.2326 32.2322 22.2326H29.7321C27.9569 22.2326 26.5179 23.6717 26.5179 25.4469C26.5179 27.2221 27.9569 28.6612 29.7321 28.6612H31.875C33.6501 28.6612 35.0893 30.1003 35.0893 31.8755C35.0893 33.6506 33.6501 35.0898 31.875 35.0898H29.7321C27.9569 35.0898 26.5179 33.6506 26.5179 31.8755M22.2321 21.1612V31.8755C22.2321 33.6506 20.7931 35.0898 19.0179 35.0898C17.2426 35.0898 15.8036 33.6506 15.8036 31.8755M13.375 39.3755H35.375C37.5841 39.3755 39.375 37.5846 39.375 35.3755V13.3755C39.375 11.1663 37.5841 9.37549 35.375 9.37549H13.375C11.1659 9.37549 9.375 11.1663 9.375 13.3755V35.3755C9.375 37.5846 11.1659 39.3755 13.375 39.3755Z" stroke="white" stroke-width="3"/>
</svg>
