<svg width="55" height="84" viewBox="0 0 55 84" fill="none" xmlns="http://www.w3.org/2000/svg">
<path d="M1.15909 81V72.2727H4.10369C4.67188 72.2727 5.14489 72.3722 5.52273 72.571C5.90341 72.7699 6.18892 73.0412 6.37926 73.3849C6.5696 73.7287 6.66477 74.1193 6.66477 74.5568C6.66477 74.9205 6.60369 75.2315 6.48153 75.4901C6.35938 75.7486 6.19318 75.9574 5.98295 76.1165C5.77273 76.2756 5.53835 76.3906 5.27983 76.4616V76.5298C5.56108 76.5497 5.83381 76.6491 6.09801 76.8281C6.36222 77.0043 6.57955 77.2514 6.75 77.5696C6.92045 77.8878 7.00568 78.2685 7.00568 78.7116C7.00568 79.152 6.90767 79.5455 6.71165 79.892C6.51562 80.2358 6.21449 80.5071 5.80824 80.706C5.40483 80.902 4.89062 81 4.26562 81H1.15909ZM1.95597 80.2841H4.26562C4.93892 80.2841 5.43608 80.1349 5.7571 79.8366C6.08097 79.5384 6.2429 79.1634 6.2429 78.7116C6.2429 78.3793 6.16193 78.0781 6 77.8082C5.84091 77.5355 5.61506 77.3196 5.32244 77.1605C5.03267 77.0014 4.69176 76.9219 4.29972 76.9219H1.95597V80.2841ZM1.95597 76.2145H4.17614C4.51989 76.2145 4.82102 76.1435 5.07955 76.0014C5.33807 75.8594 5.53977 75.6634 5.68466 75.4134C5.82955 75.1634 5.90199 74.8778 5.90199 74.5568C5.90199 74.0937 5.75142 73.7173 5.45028 73.4276C5.14915 73.1349 4.70028 72.9886 4.10369 72.9886H1.95597V76.2145ZM11.315 81.1364C10.7496 81.1364 10.2496 80.9929 9.81499 80.706C9.38317 80.419 9.0451 80.0227 8.80078 79.517C8.55646 79.0085 8.4343 78.4219 8.4343 77.7571C8.4343 77.0866 8.55646 76.4972 8.80078 75.9886C9.0451 75.4773 9.38317 75.0795 9.81499 74.7955C10.2496 74.5085 10.7496 74.3651 11.315 74.3651C11.8803 74.3651 12.3789 74.5085 12.8107 74.7955C13.2425 75.0824 13.5806 75.4801 13.8249 75.9886C14.0721 76.4972 14.1957 77.0866 14.1957 77.7571C14.1957 78.4219 14.0735 79.0085 13.8292 79.517C13.5849 80.0227 13.2454 80.419 12.8107 80.706C12.3789 80.9929 11.8803 81.1364 11.315 81.1364ZM11.315 80.4418C11.7695 80.4418 12.1545 80.3196 12.4698 80.0753C12.7852 79.831 13.0238 79.5057 13.1857 79.0994C13.3505 78.6932 13.4329 78.2457 13.4329 77.7571C13.4329 77.2685 13.3505 76.8196 13.1857 76.4105C13.0238 76.0014 12.7852 75.6733 12.4698 75.4261C12.1545 75.179 11.7695 75.0554 11.315 75.0554C10.8633 75.0554 10.4783 75.179 10.1602 75.4261C9.84482 75.6733 9.60476 76.0014 9.43999 76.4105C9.27805 76.8196 9.19709 77.2685 9.19709 77.7571C9.19709 78.2457 9.27805 78.6932 9.43999 79.0994C9.60476 79.5057 9.84482 79.831 10.1602 80.0753C10.4755 80.3196 10.8604 80.4418 11.315 80.4418ZM18.4048 81.1364C17.8395 81.1364 17.3395 80.9929 16.9048 80.706C16.473 80.419 16.1349 80.0227 15.8906 79.517C15.6463 79.0085 15.5241 78.4219 15.5241 77.7571C15.5241 77.0866 15.6463 76.4972 15.8906 75.9886C16.1349 75.4773 16.473 75.0795 16.9048 74.7955C17.3395 74.5085 17.8395 74.3651 18.4048 74.3651C18.9702 74.3651 19.4688 74.5085 19.9006 74.7955C20.3324 75.0824 20.6705 75.4801 20.9148 75.9886C21.1619 76.4972 21.2855 77.0866 21.2855 77.7571C21.2855 78.4219 21.1634 79.0085 20.919 79.517C20.6747 80.0227 20.3352 80.419 19.9006 80.706C19.4688 80.9929 18.9702 81.1364 18.4048 81.1364ZM18.4048 80.4418C18.8594 80.4418 19.2443 80.3196 19.5597 80.0753C19.875 79.831 20.1136 79.5057 20.2756 79.0994C20.4403 78.6932 20.5227 78.2457 20.5227 77.7571C20.5227 77.2685 20.4403 76.8196 20.2756 76.4105C20.1136 76.0014 19.875 75.6733 19.5597 75.4261C19.2443 75.179 18.8594 75.0554 18.4048 75.0554C17.9531 75.0554 17.5682 75.179 17.25 75.4261C16.9347 75.6733 16.6946 76.0014 16.5298 76.4105C16.3679 76.8196 16.2869 77.2685 16.2869 77.7571C16.2869 78.2457 16.3679 78.6932 16.5298 79.0994C16.6946 79.5057 16.9347 79.831 17.25 80.0753C17.5653 80.3196 17.9503 80.4418 18.4048 80.4418ZM25.5288 74.4545V75.1151H22.4052V74.4545H25.5288ZM23.381 72.8864H24.1438V79.2912C24.1438 79.5639 24.1907 79.7784 24.2844 79.9347C24.3782 80.0881 24.5004 80.1974 24.6509 80.2628C24.8015 80.3253 24.962 80.3565 25.1325 80.3565C25.2319 80.3565 25.3171 80.3509 25.3881 80.3395C25.4592 80.3253 25.5217 80.3111 25.5756 80.2969L25.7376 80.983C25.6637 81.0114 25.5728 81.0369 25.4648 81.0597C25.3569 81.0852 25.2234 81.098 25.0643 81.098C24.7859 81.098 24.5174 81.0369 24.2589 80.9148C24.0032 80.7926 23.793 80.6108 23.6282 80.3693C23.4634 80.1278 23.381 79.8281 23.381 79.4702V72.8864ZM31.532 75.8906L30.8374 76.0866C30.7692 75.8906 30.6726 75.7131 30.5476 75.554C30.4226 75.3949 30.2592 75.2685 30.0575 75.1747C29.8587 75.081 29.6115 75.0341 29.3161 75.0341C28.8729 75.0341 28.5092 75.1392 28.2251 75.3494C27.9411 75.5597 27.799 75.831 27.799 76.1634C27.799 76.4446 27.8956 76.6733 28.0888 76.8494C28.2848 77.0227 28.5859 77.1605 28.9922 77.2628L29.9808 77.5057C30.5291 77.6392 30.9396 77.8509 31.2124 78.1406C31.4879 78.4304 31.6257 78.794 31.6257 79.2315C31.6257 79.6009 31.5234 79.929 31.3189 80.2159C31.1143 80.5028 30.8288 80.7287 30.4624 80.8935C30.0987 81.0554 29.6768 81.1364 29.1967 81.1364C28.5575 81.1364 28.0305 80.9929 27.6158 80.706C27.201 80.4162 26.9354 79.9986 26.8189 79.4531L27.5476 79.2741C27.6413 79.6634 27.8246 79.9574 28.0973 80.1562C28.3729 80.3551 28.7351 80.4545 29.1839 80.4545C29.6868 80.4545 30.0888 80.3423 30.3899 80.1179C30.6911 79.8906 30.8416 79.6065 30.8416 79.2656C30.8416 79.0014 30.7536 78.7798 30.5774 78.6009C30.4013 78.419 30.1342 78.2855 29.7763 78.2003L28.7067 77.9446C28.1385 77.8082 27.718 77.5923 27.4453 77.2969C27.1726 77.0014 27.0362 76.6349 27.0362 76.1974C27.0362 75.8366 27.1342 75.5199 27.3303 75.2472C27.5263 74.9716 27.7962 74.7557 28.1399 74.5994C28.4837 74.4432 28.8757 74.3651 29.3161 74.3651C29.9155 74.3651 30.3942 74.5014 30.7521 74.7741C31.1129 75.044 31.3729 75.4162 31.532 75.8906ZM35.8647 74.4545V75.1151H32.7411V74.4545H35.8647ZM33.717 72.8864H34.4798V79.2912C34.4798 79.5639 34.5266 79.7784 34.6204 79.9347C34.7141 80.0881 34.8363 80.1974 34.9869 80.2628C35.1374 80.3253 35.2979 80.3565 35.4684 80.3565C35.5678 80.3565 35.6531 80.3509 35.7241 80.3395C35.7951 80.3253 35.8576 80.3111 35.9116 80.2969L36.0735 80.983C35.9996 81.0114 35.9087 81.0369 35.8008 81.0597C35.6928 81.0852 35.5593 81.098 35.4002 81.098C35.1218 81.098 34.8533 81.0369 34.5948 80.9148C34.3391 80.7926 34.1289 80.6108 33.9641 80.3693C33.7994 80.1278 33.717 79.8281 33.717 79.4702V72.8864ZM37.5874 81V74.4545H38.3246V75.4602H38.38C38.5107 75.1307 38.7379 74.8651 39.0618 74.6634C39.3885 74.4588 39.7578 74.3565 40.1697 74.3565C40.2322 74.3565 40.3018 74.358 40.3786 74.3608C40.4553 74.3636 40.5192 74.3665 40.5703 74.3693V75.1406C40.5362 75.1349 40.4766 75.1264 40.3913 75.1151C40.3061 75.1037 40.2138 75.098 40.1143 75.098C39.7734 75.098 39.4695 75.1705 39.2024 75.3153C38.9382 75.4574 38.7294 75.6548 38.576 75.9077C38.4226 76.1605 38.3459 76.4489 38.3459 76.7727V81H37.5874ZM43.6928 81.1491C43.2979 81.1491 42.9371 81.0724 42.6104 80.919C42.2837 80.7628 42.0238 80.5384 41.8306 80.2457C41.6374 79.9503 41.5408 79.5923 41.5408 79.1719C41.5408 78.848 41.6019 78.5753 41.7241 78.3537C41.8462 78.1321 42.0195 77.9503 42.244 77.8082C42.4684 77.6662 42.734 77.554 43.0408 77.4716C43.3477 77.3892 43.6857 77.3253 44.055 77.2798C44.4215 77.2344 44.7312 77.1946 44.984 77.1605C45.2397 77.1264 45.4343 77.0724 45.5678 76.9986C45.7013 76.9247 45.7681 76.8054 45.7681 76.6406V76.4872C45.7681 76.0412 45.6346 75.6903 45.3675 75.4347C45.1033 75.1761 44.7227 75.0469 44.2255 75.0469C43.7539 75.0469 43.369 75.1506 43.0707 75.358C42.7752 75.5653 42.5678 75.8097 42.4485 76.0909L41.7283 75.831C41.8761 75.473 42.0806 75.1875 42.342 74.9744C42.6033 74.7585 42.896 74.6037 43.2198 74.5099C43.5437 74.4134 43.8718 74.3651 44.2042 74.3651C44.4542 74.3651 44.7141 74.3977 44.984 74.4631C45.2567 74.5284 45.5096 74.642 45.7425 74.804C45.9755 74.9631 46.1644 75.1861 46.3093 75.473C46.4542 75.7571 46.5266 76.1179 46.5266 76.5554V81H45.7681V79.9645H45.7212C45.6303 80.1577 45.4954 80.3452 45.3164 80.527C45.1374 80.7088 44.913 80.858 44.6431 80.9744C44.3732 81.0909 44.0565 81.1491 43.6928 81.1491ZM43.7951 80.4545C44.1985 80.4545 44.5479 80.3651 44.8434 80.1861C45.1388 80.0071 45.3661 79.7699 45.5252 79.4744C45.6871 79.1761 45.7681 78.848 45.7681 78.4901V77.544C45.7113 77.598 45.6161 77.6463 45.4826 77.6889C45.3519 77.7315 45.1999 77.7699 45.0266 77.804C44.8562 77.8352 44.6857 77.8622 44.5153 77.8849C44.3448 77.9077 44.1914 77.9276 44.055 77.9446C43.6857 77.9901 43.3704 78.0611 43.109 78.1577C42.8477 78.2543 42.6474 78.3878 42.5082 78.5582C42.369 78.7259 42.2994 78.9418 42.2994 79.206C42.2994 79.6037 42.4414 79.9119 42.7255 80.1307C43.0096 80.3466 43.3661 80.4545 43.7951 80.4545ZM48.5444 83.4545V74.4545H49.2816V75.7031H49.3711C49.462 75.5071 49.587 75.3068 49.7461 75.1023C49.9052 74.8949 50.1154 74.7202 50.3768 74.5781C50.641 74.4361 50.9734 74.3651 51.3739 74.3651C51.9137 74.3651 52.3853 74.5071 52.7887 74.7912C53.195 75.0724 53.5103 75.4673 53.7347 75.9759C53.962 76.4815 54.0756 77.071 54.0756 77.7443C54.0756 78.4205 53.962 79.0128 53.7347 79.5213C53.5103 80.0298 53.195 80.4261 52.7887 80.7102C52.3853 80.9943 51.9165 81.1364 51.3825 81.1364C50.9876 81.1364 50.6566 81.0653 50.3896 80.9233C50.1254 80.7812 49.9109 80.6065 49.7461 80.3991C49.5842 80.1889 49.4592 79.9844 49.3711 79.7855H49.3029V83.4545H48.5444ZM49.2944 77.7315C49.2944 78.2599 49.3725 78.7287 49.5288 79.1378C49.6879 79.544 49.9151 79.8636 50.2106 80.0966C50.5089 80.3267 50.8697 80.4418 51.293 80.4418C51.7276 80.4418 52.0941 80.3224 52.3924 80.0838C52.6935 79.8423 52.9222 79.517 53.0785 79.108C53.2376 78.6989 53.3171 78.2401 53.3171 77.7315C53.3171 77.2287 53.239 76.7756 53.0827 76.3722C52.9293 75.9687 52.7021 75.6491 52.4009 75.4134C52.0998 75.1747 51.7305 75.0554 51.293 75.0554C50.8668 75.0554 50.5046 75.1705 50.2063 75.4006C49.908 75.6278 49.6808 75.9432 49.5245 76.3466C49.3711 76.7472 49.2944 77.2088 49.2944 77.7315Z" fill="black"/>
<circle cx="28.0383" cy="25" r="25" fill="#DE0756"/>
<path d="M9.91333 24.6873C10.8747 24.6873 11.7968 24.3169 12.4766 23.6576C13.1564 22.9982 13.5383 22.104 13.5383 21.1716V14.1404C13.5383 13.208 13.9202 12.3138 14.6001 11.6545C15.2799 10.9952 16.2019 10.6248 17.1633 10.6248H38.9133C39.8747 10.6248 40.7968 10.9952 41.4766 11.6545C42.1564 12.3138 42.5383 13.208 42.5383 14.1404V21.1716C42.5383 22.104 42.9203 22.9982 43.6001 23.6576C44.2799 24.3169 45.2019 24.6873 46.1633 24.6873M9.91333 24.6873C10.8747 24.6873 11.7968 25.0577 12.4766 25.717C13.1564 26.3763 13.5383 27.2705 13.5383 28.2029V35.2341C13.5383 36.1665 13.9202 37.0607 14.6001 37.7201C15.2799 38.3794 16.2019 38.7498 17.1633 38.7498H38.9133C39.8747 38.7498 40.7968 38.3794 41.4766 37.7201C42.1564 37.0607 42.5383 36.1665 42.5383 35.2341V28.2029C42.5383 27.2705 42.9203 26.3763 43.6001 25.717C44.2799 25.0577 45.2019 24.6873 46.1633 24.6873" stroke="white" stroke-width="3" stroke-linecap="round" stroke-linejoin="round"/>
<path d="M22.6011 31.7185V17.656H28.9448C29.9062 17.656 30.8283 18.0264 31.5081 18.6857C32.1879 19.345 32.5698 20.2392 32.5698 21.1716C32.5698 22.104 32.1879 22.9982 31.5081 23.6576C30.8283 24.3169 29.9062 24.6873 28.9448 24.6873H22.6011H29.8511C30.8125 24.6873 31.7345 25.0577 32.4143 25.717C33.0942 26.3763 33.4761 27.2705 33.4761 28.2029C33.4761 29.1353 33.0942 30.0295 32.4143 30.6888C31.7345 31.3481 30.8125 31.7185 29.8511 31.7185H22.6011Z" stroke="white" stroke-width="3" stroke-linecap="round" stroke-linejoin="round"/>
</svg>
