<svg width="72" height="106" viewBox="0 0 72 106" fill="none" xmlns="http://www.w3.org/2000/svg">
<path d="M31.4432 90.4545H32.7713V100.945C32.7666 101.892 32.5961 102.682 32.2599 103.317C31.9238 103.946 31.4598 104.418 30.8679 104.73C30.276 105.043 29.5966 105.199 28.8295 105.199C28.0767 105.199 27.4044 105.059 26.8125 104.78C26.2206 104.5 25.7543 104.107 25.4134 103.601C25.0772 103.094 24.9091 102.5 24.9091 101.818H26.2159C26.2159 102.249 26.3295 102.63 26.5568 102.962C26.7841 103.288 27.0942 103.544 27.4872 103.729C27.8849 103.913 28.3324 104.006 28.8295 104.006C29.3456 104.006 29.7978 103.897 30.1861 103.679C30.5791 103.461 30.8868 103.127 31.1094 102.678C31.3319 102.223 31.4432 101.645 31.4432 100.945V90.4545ZM44.5327 94.0909C44.4522 93.2812 44.0947 92.6373 43.4602 92.1591C42.8258 91.6809 42.0279 91.4418 41.0668 91.4418C40.3897 91.4418 39.7931 91.5578 39.277 91.7898C38.7656 92.0218 38.3632 92.3437 38.0696 92.7557C37.7808 93.1629 37.6364 93.6269 37.6364 94.1477C37.6364 94.5312 37.7192 94.8674 37.8849 95.1562C38.0507 95.4451 38.2732 95.6937 38.5526 95.902C38.8366 96.1056 39.1491 96.2808 39.4901 96.4276C39.8357 96.5743 40.1837 96.6974 40.5341 96.7969L42.0682 97.2372C42.5322 97.3651 42.9962 97.5284 43.4602 97.7273C43.9242 97.9261 44.348 98.1771 44.7315 98.4801C45.1198 98.7784 45.4299 99.1454 45.6619 99.581C45.8987 100.012 46.017 100.53 46.017 101.136C46.017 101.913 45.8158 102.611 45.4134 103.232C45.0109 103.852 44.4332 104.344 43.6804 104.709C42.9276 105.069 42.0256 105.249 40.9744 105.249C39.9848 105.249 39.1255 105.085 38.3963 104.759C37.6671 104.427 37.0942 103.97 36.6776 103.388C36.2609 102.805 36.0265 102.131 35.9744 101.364H37.3381C37.3854 101.937 37.5748 102.422 37.9062 102.82C38.2377 103.217 38.6686 103.52 39.1989 103.729C39.7292 103.932 40.321 104.034 40.9744 104.034C41.6989 104.034 42.3428 103.913 42.9062 103.672C43.4744 103.426 43.9195 103.085 44.2415 102.649C44.5682 102.209 44.7315 101.697 44.7315 101.115C44.7315 100.623 44.6037 100.211 44.348 99.8793C44.0923 99.5431 43.7348 99.2614 43.2756 99.0341C42.821 98.8068 42.2931 98.6056 41.6918 98.4304L39.9517 97.919C38.8106 97.5781 37.9252 97.107 37.2955 96.5057C36.6657 95.9044 36.3509 95.1373 36.3509 94.2045C36.3509 93.4233 36.5592 92.7367 36.9759 92.1449C37.3973 91.5483 37.9654 91.0843 38.6804 90.7528C39.4001 90.4167 40.2074 90.2486 41.1023 90.2486C42.0066 90.2486 42.8068 90.4143 43.5028 90.7457C44.1989 91.0772 44.7505 91.5341 45.1577 92.1165C45.5696 92.6941 45.7898 93.3523 45.8182 94.0909H44.5327Z" fill="black"/>
<circle cx="36" cy="36" r="36" fill="#D9AB82"/>
<path d="M50 36.5V36C50 33.7909 48.209 32 46.0001 32H42.5C40.0147 32 38 34.0147 38 36.5C38 38.9853 40.0147 41 42.5 41H45.5C47.9852 41 50 43.0148 50 45.5C50 47.9852 47.9852 50 45.5 50H42.5C40.0147 50 38 47.9852 38 45.5M32 30.5V45.5C32 47.9852 29.9853 50 27.5 50C25.0147 50 23 47.9852 23 45.5M18 56H52C54.2091 56 56 54.2091 56 52V18C56 15.7909 54.2091 14 52 14H18C15.7909 14 14 15.7909 14 18V52C14 54.2091 15.7909 56 18 56Z" stroke="white" stroke-width="3"/>
</svg>
