<svg width="72" height="72" viewBox="0 0 72 72" fill="none" xmlns="http://www.w3.org/2000/svg">
<circle cx="36" cy="36" r="36" fill="#241E26"/>
<path d="M55.8614 10.5654H15.9602C13.8505 10.5654 12.1389 12.3531 12.1389 14.5566V56.2308C12.1389 58.4343 13.8505 60.222 15.9602 60.222H55.8614C57.9711 60.222 59.6827 58.4343 59.6827 56.2308V14.5566C59.6827 12.3531 57.9711 10.5654 55.8614 10.5654ZM55.8614 56.2494C29.2487 56.2432 15.9424 56.237 15.9424 56.2308C15.9484 28.4356 15.9543 14.538 15.9602 14.538C42.5729 14.5442 55.8792 14.5504 55.8792 14.5566C55.8733 42.3518 55.8673 56.2494 55.8614 56.2494ZM19.1873 29.1804H26.2416V52.879H19.1873V29.1804ZM22.7174 25.9403C24.9698 25.9403 26.8062 24.0286 26.8062 21.6699C26.8062 21.1091 26.7004 20.5538 26.4949 20.0356C26.2895 19.5175 25.9883 19.0467 25.6086 18.6502C25.2289 18.2536 24.7782 17.9391 24.2821 17.7245C23.786 17.5099 23.2544 17.3994 22.7174 17.3994C22.1805 17.3994 21.6488 17.5099 21.1527 17.7245C20.6566 17.9391 20.2059 18.2536 19.8262 18.6502C19.4465 19.0467 19.1454 19.5175 18.9399 20.0356C18.7344 20.5538 18.6286 21.1091 18.6286 21.6699C18.6227 24.0286 20.4531 25.9403 22.7174 25.9403ZM37.7115 41.1538C37.7115 38.0627 38.2761 35.0709 41.9429 35.0709C45.5563 35.0709 45.6098 38.6027 45.6098 41.3525V52.879H52.6581V39.8814C52.6581 33.5005 51.3388 28.5907 44.2013 28.5907C40.7722 28.5907 38.4722 30.5584 37.5273 32.4205H37.4322V29.1804H30.6632V52.879H37.7115V41.1538Z" fill="white"/>
</svg>
