<svg width="72" height="110" viewBox="0 0 72 110" fill="none" xmlns="http://www.w3.org/2000/svg">
<path d="M24.2599 90.4545V105H22.9673L14.3736 92.8196H14.2599V105H12.9318V90.4545H14.2173L22.8395 102.649H22.9531V90.4545H24.2599ZM32.1044 105.227C31.1622 105.227 30.3288 104.988 29.6044 104.51C28.8847 104.032 28.3213 103.371 27.9141 102.528C27.5069 101.681 27.3033 100.703 27.3033 99.5952C27.3033 98.4777 27.5069 97.4953 27.9141 96.6477C28.3213 95.7955 28.8847 95.1326 29.6044 94.6591C30.3288 94.1809 31.1622 93.9418 32.1044 93.9418C33.0466 93.9418 33.8776 94.1809 34.5973 94.6591C35.317 95.1373 35.8804 95.8002 36.2876 96.6477C36.6996 97.4953 36.9055 98.4777 36.9055 99.5952C36.9055 100.703 36.7019 101.681 36.2947 102.528C35.8875 103.371 35.3217 104.032 34.5973 104.51C33.8776 104.988 33.0466 105.227 32.1044 105.227ZM32.1044 104.07C32.862 104.07 33.5036 103.866 34.0291 103.459C34.5547 103.052 34.9524 102.509 35.2223 101.832C35.4969 101.155 35.6342 100.41 35.6342 99.5952C35.6342 98.7808 35.4969 98.0327 35.2223 97.3509C34.9524 96.669 34.5547 96.1222 34.0291 95.7102C33.5036 95.2983 32.862 95.0923 32.1044 95.0923C31.3516 95.0923 30.71 95.2983 30.1797 95.7102C29.6541 96.1222 29.254 96.669 28.9794 97.3509C28.7095 98.0327 28.5746 98.7808 28.5746 99.5952C28.5746 100.41 28.7095 101.155 28.9794 101.832C29.254 102.509 29.6541 103.052 30.1797 103.459C30.7053 103.866 31.3468 104.07 32.1044 104.07ZM43.6083 105.227C42.7134 105.227 41.9298 104.991 41.2575 104.517C40.5851 104.044 40.0595 103.383 39.6808 102.536C39.3067 101.688 39.1197 100.701 39.1197 99.5739C39.1197 98.4517 39.3067 97.4692 39.6808 96.6264C40.0595 95.7789 40.5875 95.1207 41.2646 94.652C41.9416 94.1785 42.73 93.9418 43.6296 93.9418C44.2925 93.9418 44.8441 94.0601 45.2844 94.2969C45.7248 94.5289 46.0775 94.8177 46.3427 95.1634C46.6078 95.509 46.8138 95.8452 46.9606 96.1719H47.0742V90.4545H48.3455V105H47.1097V102.976H46.9606C46.8138 103.307 46.6055 103.648 46.3356 103.999C46.0657 104.344 45.7082 104.635 45.2631 104.872C44.8228 105.109 44.2712 105.227 43.6083 105.227ZM43.7575 104.07C44.4629 104.07 45.0643 103.878 45.5614 103.494C46.0586 103.106 46.4374 102.573 46.6978 101.896C46.9629 101.214 47.0955 100.433 47.0955 99.5526C47.0955 98.6813 46.9653 97.9119 46.7049 97.2443C46.4445 96.572 46.0657 96.0464 45.5685 95.6676C45.0714 95.2841 44.4677 95.0923 43.7575 95.0923C43.0283 95.0923 42.4128 95.2912 41.9109 95.6889C41.4137 96.0819 41.0349 96.6146 40.7745 97.2869C40.5188 97.9593 40.391 98.7145 40.391 99.5526C40.391 100.4 40.5212 101.165 40.7816 101.847C41.042 102.528 41.4208 103.071 41.918 103.473C42.4199 103.871 43.033 104.07 43.7575 104.07ZM56.3569 105.227C55.3389 105.227 54.4582 104.991 53.7148 104.517C52.9715 104.039 52.3962 103.378 51.989 102.536C51.5865 101.688 51.3853 100.713 51.3853 99.6094C51.3853 98.5109 51.5865 97.5355 51.989 96.6832C52.3962 95.8262 52.9573 95.1562 53.6722 94.6733C54.3919 94.1856 55.2229 93.9418 56.1651 93.9418C56.757 93.9418 57.3275 94.0507 57.8768 94.2685C58.426 94.4815 58.9184 94.8106 59.354 95.2557C59.7944 95.696 60.1424 96.2524 60.3981 96.9247C60.6538 97.5923 60.7816 98.383 60.7816 99.2969V99.9219H52.2589V98.8068H59.489C59.489 98.1061 59.3469 97.4763 59.0629 96.9176C58.7835 96.3542 58.3929 95.9091 57.891 95.5824C57.3938 95.2557 56.8185 95.0923 56.1651 95.0923C55.4738 95.0923 54.8654 95.277 54.3398 95.6463C53.8143 96.0156 53.4023 96.5033 53.104 97.1094C52.8105 97.7154 52.6613 98.3783 52.6566 99.098V99.7656C52.6566 100.632 52.8058 101.39 53.104 102.038C53.4071 102.682 53.8356 103.182 54.3896 103.537C54.9435 103.892 55.5993 104.07 56.3569 104.07C56.873 104.07 57.3252 103.989 57.7134 103.828C58.1064 103.667 58.4355 103.452 58.7006 103.182C58.9705 102.907 59.1741 102.607 59.3114 102.28L60.5117 102.67C60.346 103.13 60.0737 103.554 59.695 103.942C59.3209 104.33 58.8522 104.643 58.2887 104.879C57.73 105.111 57.0861 105.227 56.3569 105.227Z" fill="black"/>
<circle cx="36" cy="36" r="36" fill="#D9AB82"/>
<mask id="path-3-inside-1_39_9" fill="white">
<path d="M35.8 62.0999C35.0228 62.0999 34.3 61.906 33.625 61.5704L26.741 57.7835C25.7069 57.2562 26.225 57.0644 26.5364 56.9685C27.9319 56.5371 28.191 56.4413 29.641 55.6721C29.7955 55.5762 30.0046 55.6242 30.1591 55.72L35.4387 58.6463C35.6432 58.7422 35.9046 58.7422 36.0591 58.6463L56.7114 47.5687C56.916 47.4728 57.0205 47.2811 57.0205 47.0414V24.9341C57.0205 24.6944 56.9182 24.5027 56.7114 24.4068L36.0591 13.3793C35.8523 13.2834 35.5932 13.2834 35.4387 13.3793L14.7864 24.4068C14.5796 24.5027 14.475 24.7423 14.475 24.9341V47.0414C14.475 47.2331 14.5796 47.4728 14.7864 47.5687L20.4273 50.5909C23.4819 52.0289 25.3955 50.3512 25.3955 48.6734V26.8537C25.3955 26.5661 25.6546 26.2785 26.0182 26.2785H28.6569C28.9682 26.2785 29.2773 26.5182 29.2773 26.8537V48.6712C29.2773 52.4604 27.0523 54.6654 23.1705 54.6654C21.9796 54.6654 21.0478 54.6654 18.4091 53.467L12.975 50.5909C12.3202 50.2456 11.7734 49.7391 11.3911 49.1236C11.0087 48.508 10.8047 47.8058 10.8 47.0893V24.982C10.8 23.5439 11.6273 22.2017 12.975 21.4827L33.6273 10.4029C34.2997 10.0723 35.0444 9.8999 35.8 9.8999C36.5557 9.8999 37.3004 10.0723 37.9728 10.4029L58.6273 21.4805C59.9728 22.1996 60.8 23.5418 60.8 24.9798V47.0872C60.8 48.5252 59.9728 49.8675 58.6273 50.5887L37.975 61.6641C37.2886 61.9494 36.5482 62.0963 35.8 62.0955M42.166 46.8932C33.1091 46.8932 31.2455 43.0583 31.2455 39.7965C31.2455 39.5089 31.5046 39.2213 31.866 39.2213H34.5569C34.8682 39.2213 35.125 39.413 35.125 39.7006C35.541 42.2412 36.7319 43.4876 42.2182 43.4876C46.566 43.4876 48.4296 42.5768 48.4296 40.4197C48.4296 39.1733 47.9114 38.2625 41.1319 37.6394C35.4887 37.1099 31.9705 35.9616 31.9705 31.789C31.9705 27.904 35.4887 25.6008 41.391 25.6008C48.016 25.6008 51.2773 27.7122 51.691 32.3163C51.6863 32.4721 51.6316 32.6228 51.5341 32.7477C51.4319 32.8436 51.2773 32.9394 51.1205 32.9394H48.4296C48.2989 32.9364 48.1727 32.8927 48.0702 32.8148C47.9677 32.737 47.8944 32.6293 47.8614 32.508C47.2387 29.8715 45.6341 29.0065 41.391 29.0065C36.6273 29.0065 36.0591 30.5404 36.0591 31.6931C36.0591 33.0832 36.7319 33.5147 43.15 34.2817C49.516 35.0486 52.5182 36.1512 52.5182 40.2737C52.466 44.4964 48.741 46.8932 42.166 46.8932Z"/>
</mask>
<path d="M35.8 62.0999C35.0228 62.0999 34.3 61.906 33.625 61.5704L26.741 57.7835C25.7069 57.2562 26.225 57.0644 26.5364 56.9685C27.9319 56.5371 28.191 56.4413 29.641 55.6721C29.7955 55.5762 30.0046 55.6242 30.1591 55.72L35.4387 58.6463C35.6432 58.7422 35.9046 58.7422 36.0591 58.6463L56.7114 47.5687C56.916 47.4728 57.0205 47.2811 57.0205 47.0414V24.9341C57.0205 24.6944 56.9182 24.5027 56.7114 24.4068L36.0591 13.3793C35.8523 13.2834 35.5932 13.2834 35.4387 13.3793L14.7864 24.4068C14.5796 24.5027 14.475 24.7423 14.475 24.9341V47.0414C14.475 47.2331 14.5796 47.4728 14.7864 47.5687L20.4273 50.5909C23.4819 52.0289 25.3955 50.3512 25.3955 48.6734V26.8537C25.3955 26.5661 25.6546 26.2785 26.0182 26.2785H28.6569C28.9682 26.2785 29.2773 26.5182 29.2773 26.8537V48.6712C29.2773 52.4604 27.0523 54.6654 23.1705 54.6654C21.9796 54.6654 21.0478 54.6654 18.4091 53.467L12.975 50.5909C12.3202 50.2456 11.7734 49.7391 11.3911 49.1236C11.0087 48.508 10.8047 47.8058 10.8 47.0893V24.982C10.8 23.5439 11.6273 22.2017 12.975 21.4827L33.6273 10.4029C34.2997 10.0723 35.0444 9.8999 35.8 9.8999C36.5557 9.8999 37.3004 10.0723 37.9728 10.4029L58.6273 21.4805C59.9728 22.1996 60.8 23.5418 60.8 24.9798V47.0872C60.8 48.5252 59.9728 49.8675 58.6273 50.5887L37.975 61.6641C37.2886 61.9494 36.5482 62.0963 35.8 62.0955M42.166 46.8932C33.1091 46.8932 31.2455 43.0583 31.2455 39.7965C31.2455 39.5089 31.5046 39.2213 31.866 39.2213H34.5569C34.8682 39.2213 35.125 39.413 35.125 39.7006C35.541 42.2412 36.7319 43.4876 42.2182 43.4876C46.566 43.4876 48.4296 42.5768 48.4296 40.4197C48.4296 39.1733 47.9114 38.2625 41.1319 37.6394C35.4887 37.1099 31.9705 35.9616 31.9705 31.789C31.9705 27.904 35.4887 25.6008 41.391 25.6008C48.016 25.6008 51.2773 27.7122 51.691 32.3163C51.6863 32.4721 51.6316 32.6228 51.5341 32.7477C51.4319 32.8436 51.2773 32.9394 51.1205 32.9394H48.4296C48.2989 32.9364 48.1727 32.8927 48.0702 32.8148C47.9677 32.737 47.8944 32.6293 47.8614 32.508C47.2387 29.8715 45.6341 29.0065 41.391 29.0065C36.6273 29.0065 36.0591 30.5404 36.0591 31.6931C36.0591 33.0832 36.7319 33.5147 43.15 34.2817C49.516 35.0486 52.5182 36.1512 52.5182 40.2737C52.466 44.4964 48.741 46.8932 42.166 46.8932Z" fill="white"/>
<path d="M33.625 61.5704L33.1431 62.4466L33.1613 62.4566L33.1799 62.4659L33.625 61.5704ZM26.741 57.7835L27.2229 56.9073L27.2092 56.8997L27.1952 56.8926L26.741 57.7835ZM26.5364 56.9685L26.8307 57.9243L26.8318 57.9239L26.5364 56.9685ZM29.641 55.6721L30.1096 56.5555L30.1394 56.5397L30.1681 56.5219L29.641 55.6721ZM30.1591 55.72L29.632 56.5698L29.6529 56.5827L29.6744 56.5947L30.1591 55.72ZM35.4387 58.6463L34.9539 59.5209L34.9836 59.5374L35.0143 59.5518L35.4387 58.6463ZM36.0591 58.6463L35.5865 57.7651L35.5587 57.78L35.532 57.7965L36.0591 58.6463ZM56.7114 47.5687L56.287 46.6632L56.2625 46.6747L56.2387 46.6875L56.7114 47.5687ZM56.7114 24.4068L56.2404 25.2889L56.2653 25.3022L56.2908 25.3141L56.7114 24.4068ZM36.0591 13.3793L36.5302 12.4972L36.5053 12.4839L36.4797 12.472L36.0591 13.3793ZM35.4387 13.3793L35.9097 14.2614L35.9383 14.2461L35.9658 14.2291L35.4387 13.3793ZM14.7864 24.4068L15.207 25.3141L15.2326 25.3022L15.2574 25.2889L14.7864 24.4068ZM14.7864 47.5687L15.2587 46.6872L15.2332 46.6736L15.207 46.6614L14.7864 47.5687ZM20.4273 50.5909L19.9551 51.4723L19.9779 51.4846L20.0014 51.4956L20.4273 50.5909ZM18.4091 53.467L17.9413 54.3509L17.9681 54.365L17.9956 54.3775L18.4091 53.467ZM12.975 50.5909L13.4428 49.707L13.4414 49.7063L12.975 50.5909ZM10.8 47.0893L9.80003 47.0893L9.80007 47.0958L10.8 47.0893ZM12.975 21.4827L13.4458 22.365L13.4478 22.3639L12.975 21.4827ZM33.6273 10.4029L33.1861 9.50549L33.1702 9.51331L33.1546 9.52169L33.6273 10.4029ZM35.8 9.8999V10.8999V9.8999ZM37.9728 10.4029L38.4454 9.52163L38.4299 9.51328L38.414 9.50549L37.9728 10.4029ZM58.6273 21.4805L58.1547 22.3618L58.156 22.3625L58.6273 21.4805ZM58.6273 50.5887L58.1549 49.7073L58.1547 49.7074L58.6273 50.5887ZM37.975 61.6641L38.3588 62.5875L38.4043 62.5687L38.4477 62.5454L37.975 61.6641ZM35.125 39.7006H34.125V39.7819L34.1382 39.8622L35.125 39.7006ZM41.1319 37.6394L41.0385 38.635L41.0403 38.6352L41.1319 37.6394ZM51.691 32.3163L52.6905 32.3459L52.6923 32.2862L52.6869 32.2268L51.691 32.3163ZM51.5341 32.7477L52.2181 33.4773L52.2747 33.4241L52.3225 33.3628L51.5341 32.7477ZM48.4296 32.9394L48.4064 33.9392L48.418 33.9394H48.4296V32.9394ZM47.8614 32.508L46.8882 32.7379L46.8921 32.7544L46.8965 32.7707L47.8614 32.508ZM43.15 34.2817L43.2697 33.2888L43.2687 33.2887L43.15 34.2817ZM52.5182 40.2737L53.5182 40.2861V40.2737H52.5182ZM35.8 61.0999C35.1958 61.0999 34.6245 60.9505 34.0702 60.675L33.1799 62.4659C33.9756 62.8614 34.8497 63.0999 35.8 63.0999V61.0999ZM34.107 60.6942L27.2229 56.9073L26.259 58.6596L33.1431 62.4466L34.107 60.6942ZM27.1952 56.8926C26.9683 56.7769 26.9208 56.7245 26.9423 56.7464C26.9585 56.7628 27.2305 57.0571 27.0889 57.5117C27.0314 57.6962 26.9281 57.8108 26.8685 57.8656C26.8097 57.9197 26.7623 57.9445 26.7536 57.9491C26.7414 57.9554 26.7545 57.9477 26.8307 57.9243L26.2421 56.0128C26.1627 56.0373 25.9942 56.0895 25.8296 56.1753C25.7109 56.2371 25.3255 56.4479 25.1794 56.9168C24.9986 57.4972 25.3155 57.9442 25.5156 58.148C25.7211 58.3571 25.9965 58.5264 26.2867 58.6743L27.1952 56.8926ZM26.8318 57.9239C28.2854 57.4745 28.6027 57.3548 30.1096 56.5555L29.1724 54.7887C27.7793 55.5277 27.5783 55.5997 26.241 56.0132L26.8318 57.9239ZM30.1681 56.5219C30.0009 56.6256 29.8443 56.6255 29.7694 56.6156C29.6974 56.6061 29.6548 56.5839 29.632 56.5698L30.6863 54.8703C30.4015 54.6936 29.7471 54.4295 29.1138 54.8223L30.1681 56.5219ZM29.6744 56.5947L34.9539 59.5209L35.9235 57.7717L30.6439 54.8454L29.6744 56.5947ZM35.0143 59.5518C35.2581 59.6661 35.5207 59.7182 35.7677 59.7182C36.0052 59.7182 36.3071 59.6693 36.5863 59.4961L35.532 57.7965C35.5988 57.7551 35.6557 57.7367 35.6902 57.7284C35.7257 57.7198 35.7519 57.7182 35.7677 57.7182C35.7942 57.7182 35.8238 57.7224 35.8631 57.7408L35.0143 59.5518ZM36.5318 59.5275L57.1841 48.4499L56.2387 46.6875L35.5865 57.7651L36.5318 59.5275ZM57.1358 48.4742C57.7527 48.1851 58.0205 47.5967 58.0205 47.0414H56.0205C56.0205 47.0168 56.0262 46.9466 56.0758 46.8603C56.129 46.768 56.2083 46.7001 56.287 46.6632L57.1358 48.4742ZM58.0205 47.0414V24.9341H56.0205V47.0414H58.0205ZM58.0205 24.9341C58.0205 24.3849 57.7594 23.7904 57.132 23.4995L56.2908 25.3141C56.2114 25.2772 56.1299 25.2082 56.0755 25.1131C56.0252 25.0251 56.0205 24.9549 56.0205 24.9341H58.0205ZM57.1824 23.5247L36.5302 12.4972L35.5881 14.2614L56.2404 25.2889L57.1824 23.5247ZM36.4797 12.472C36.0553 12.2753 35.4257 12.2105 34.9115 12.5295L35.9658 14.2291C35.8998 14.27 35.8432 14.2885 35.8082 14.297C35.7722 14.3058 35.7455 14.3074 35.7293 14.3074C35.7015 14.3074 35.6736 14.3028 35.6386 14.2865L36.4797 12.472ZM34.9677 12.4972L14.3154 23.5247L15.2574 25.2889L35.9097 14.2614L34.9677 12.4972ZM14.3658 23.4995C13.7089 23.8041 13.475 24.4722 13.475 24.9341H15.475C15.475 25.0075 15.4583 25.0632 15.4322 25.1112C15.4043 25.1627 15.3378 25.2534 15.207 25.3141L14.3658 23.4995ZM13.475 24.9341V47.0414H15.475V24.9341H13.475ZM13.475 47.0414C13.475 47.5033 13.7089 48.1714 14.3658 48.476L15.207 46.6614C15.3378 46.7221 15.4043 46.8128 15.4322 46.8643C15.4583 46.9123 15.475 46.968 15.475 47.0414H13.475ZM14.3142 48.4502L19.9551 51.4723L20.8996 49.7094L15.2587 46.6872L14.3142 48.4502ZM20.0014 51.4956C21.7387 52.3135 23.3182 52.3147 24.5199 51.6869C25.7033 51.0687 26.3955 49.8924 26.3955 48.6734H24.3955C24.3955 49.1322 24.1309 49.6337 23.5938 49.9142C23.0751 50.1852 22.1705 50.3063 20.8533 49.6861L20.0014 51.4956ZM26.3955 48.6734V26.8537H24.3955V48.6734H26.3955ZM26.3955 26.8537C26.3955 27.0075 26.3305 27.1137 26.2699 27.173C26.2014 27.24 26.1091 27.2785 26.0182 27.2785V25.2785C25.1229 25.2785 24.3955 25.9934 24.3955 26.8537H26.3955ZM26.0182 27.2785H28.6569V25.2785H26.0182V27.2785ZM28.6569 27.2785C28.5643 27.2785 28.4865 27.2465 28.4246 27.1922C28.3546 27.1308 28.2773 27.012 28.2773 26.8537H30.2773C30.2773 25.8463 29.3928 25.2785 28.6569 25.2785V27.2785ZM28.2773 26.8537V48.6712H30.2773V26.8537H28.2773ZM28.2773 48.6712C28.2773 50.3704 27.7824 51.585 26.9782 52.3765C26.1718 53.1701 24.9251 53.6654 23.1705 53.6654V55.6654C25.2977 55.6654 27.1045 55.0583 28.381 53.802C29.6597 52.5437 30.2773 50.7612 30.2773 48.6712H28.2773ZM23.1705 53.6654C22.5793 53.6654 22.1398 53.6636 21.5387 53.5371C20.9252 53.4079 20.1061 53.1394 18.8227 52.5565L17.9956 54.3775C19.3508 54.993 20.3169 55.3237 21.1267 55.4942C21.949 55.6673 22.5708 55.6654 23.1705 55.6654V53.6654ZM18.8769 52.5832L13.4428 49.707L12.5072 51.4747L17.9413 54.3509L18.8769 52.5832ZM13.4414 49.7063C12.9402 49.442 12.5271 49.0572 12.2405 48.5959L10.5416 49.6512C11.0198 50.421 11.7003 51.0493 12.5087 51.4755L13.4414 49.7063ZM12.2405 48.5959C11.9542 48.135 11.8035 47.6128 11.8 47.0829L9.80007 47.0958C9.80591 47.9987 10.0632 48.881 10.5416 49.6512L12.2405 48.5959ZM11.8 47.0893V24.982H9.80005V47.0893H11.8ZM11.8 24.982C11.8 23.9358 12.4034 22.9211 13.4458 22.365L12.5043 20.6004C10.8513 21.4824 9.80005 23.1521 9.80005 24.982H11.8ZM13.4478 22.3639L34.1001 11.2841L33.1546 9.52169L12.5023 20.6015L13.4478 22.3639ZM34.0685 11.3003C34.6024 11.0378 35.1961 10.8999 35.8 10.8999V8.8999C34.8928 8.8999 33.997 9.10682 33.1861 9.50549L34.0685 11.3003ZM35.8 10.8999C36.404 10.8999 36.9977 11.0378 37.5316 11.3003L38.414 9.50549C37.6031 9.10682 36.7073 8.8999 35.8 8.8999V10.8999ZM37.5001 11.2841L58.1547 22.3618L59.1 20.5993L38.4454 9.52163L37.5001 11.2841ZM58.156 22.3625C59.1964 22.9185 59.8 23.9334 59.8 24.9798H61.8C61.8 23.1501 60.7491 21.4806 59.0987 20.5986L58.156 22.3625ZM59.8 24.9798V47.0872H61.8V24.9798H59.8ZM59.8 47.0872C59.8 48.1334 59.1965 49.1489 58.1549 49.7073L59.0998 51.47C60.749 50.586 61.8 48.9171 61.8 47.0872H59.8ZM58.1547 49.7074L37.5024 60.7828L38.4477 62.5454L59.0999 51.4699L58.1547 49.7074ZM37.5913 60.7407C37.0275 60.975 36.418 61.0961 35.801 61.0955L35.7991 63.0955C36.6784 63.0964 37.5496 62.9239 38.3588 62.5875L37.5913 60.7407ZM42.166 45.8932C37.7542 45.8932 35.3013 44.9556 33.9593 43.808C32.6488 42.6874 32.2455 41.2336 32.2455 39.7965H30.2455C30.2455 41.6212 30.774 43.7158 32.6595 45.3281C34.5136 46.9134 37.5209 47.8932 42.166 47.8932V45.8932ZM32.2455 39.7965C32.2455 39.9501 32.1807 40.0559 32.1205 40.1149C32.0526 40.1815 31.9596 40.2213 31.866 40.2213V38.2213C30.9705 38.2213 30.2455 38.9386 30.2455 39.7965H32.2455ZM31.866 40.2213H34.5569V38.2213H31.866V40.2213ZM34.5569 40.2213C34.5143 40.2213 34.425 40.2088 34.3267 40.1288C34.215 40.038 34.125 39.881 34.125 39.7006H36.125C36.125 38.6777 35.2177 38.2213 34.5569 38.2213V40.2213ZM34.1382 39.8622C34.3675 41.2627 34.8555 42.5536 36.251 43.4015C37.5391 44.1841 39.4526 44.4876 42.2182 44.4876V42.4876C39.4975 42.4876 38.0724 42.1679 37.2895 41.6922C36.6139 41.2817 36.2986 40.6792 36.1119 39.5391L34.1382 39.8622ZM42.2182 44.4876C44.4198 44.4876 46.1693 44.2641 47.3963 43.6596C48.0316 43.3466 48.558 42.9165 48.9188 42.3386C49.2798 41.7602 49.4296 41.1062 49.4296 40.4197H47.4296C47.4296 40.8117 47.3465 41.0804 47.2222 41.2795C47.0976 41.4791 46.8864 41.6812 46.5123 41.8655C45.7206 42.2556 44.3644 42.4876 42.2182 42.4876V44.4876ZM49.4296 40.4197C49.4296 40.0489 49.395 39.548 49.1109 39.0509C48.8231 38.5472 48.3566 38.178 47.7501 37.8916C46.5941 37.3457 44.6039 36.9543 41.2234 36.6436L41.0403 38.6352C44.4394 38.9476 46.098 39.3232 46.896 39.7001C47.2665 39.875 47.3533 40.0062 47.3745 40.0432C47.3994 40.0869 47.4296 40.1672 47.4296 40.4197H49.4296ZM41.2253 36.6437C38.4071 36.3793 36.3042 35.9699 34.9182 35.2049C34.2476 34.8347 33.7772 34.3978 33.4678 33.8777C33.1586 33.3579 32.9705 32.6882 32.9705 31.789H30.9705C30.9705 32.9761 31.2221 34.0146 31.749 34.9002C32.2756 35.7855 33.0374 36.4512 33.9518 36.9558C35.7356 37.9405 38.2135 38.3699 41.0385 38.635L41.2253 36.6437ZM32.9705 31.789C32.9705 30.1994 33.6668 28.9596 35.016 28.0741C36.4111 27.1585 38.5492 26.6008 41.391 26.6008V24.6008C38.3305 24.6008 35.7583 25.1947 33.9187 26.402C32.0333 27.6393 30.9705 29.4936 30.9705 31.789H32.9705ZM41.391 26.6008C44.6269 26.6008 46.868 27.122 48.3247 28.0701C49.7191 28.9777 50.5106 30.3531 50.695 32.4057L52.6869 32.2268C52.4577 29.6754 51.4117 27.693 49.4157 26.3939C47.4821 25.1354 44.78 24.6008 41.391 24.6008V26.6008ZM50.6914 32.2867C50.6932 32.2263 50.7145 32.1726 50.7457 32.1325L52.3225 33.3628C52.5487 33.0731 52.6795 32.718 52.6905 32.3459L50.6914 32.2867ZM50.8502 32.0181C50.8567 32.0121 50.8692 32.001 50.8961 31.9873C50.9206 31.9749 50.9987 31.9394 51.1205 31.9394V33.9394C51.6478 33.9394 52.0378 33.6463 52.2181 33.4773L50.8502 32.0181ZM51.1205 31.9394H48.4296V33.9394H51.1205V31.9394ZM48.4528 31.9397C48.5289 31.9415 48.607 31.9668 48.675 32.0184L47.4655 33.6113C47.7385 33.8185 48.0689 33.9313 48.4064 33.9392L48.4528 31.9397ZM48.675 32.0184C48.7436 32.0705 48.7999 32.1485 48.8263 32.2453L46.8965 32.7707C46.9889 33.1102 47.1919 33.4035 47.4655 33.6113L48.675 32.0184ZM48.8346 32.2781C48.4795 30.7746 47.7927 29.6098 46.4595 28.8889C45.2165 28.2168 43.5374 28.0065 41.391 28.0065V30.0065C43.4877 30.0065 44.7325 30.2287 45.5082 30.6482C46.1938 31.0189 46.6206 31.605 46.8882 32.7379L48.8346 32.2781ZM41.391 28.0065C38.9446 28.0065 37.3524 28.3921 36.3569 29.1042C35.2676 29.8834 35.0591 30.9223 35.0591 31.6931H37.0591C37.0591 31.3113 37.1348 31.0068 37.5205 30.7309C38 30.3878 39.0737 30.0065 41.391 30.0065V28.0065ZM35.0591 31.6931C35.0591 32.1048 35.1038 32.6321 35.4295 33.1264C35.754 33.6189 36.2557 33.9276 36.8352 34.153C37.9479 34.5858 39.8593 34.8955 43.0314 35.2746L43.2687 33.2887C40.0226 32.9008 38.3886 32.6113 37.5603 32.2891C37.1694 32.137 37.1018 32.0293 37.0996 32.026C37.0985 32.0244 37.0591 31.9764 37.0591 31.6931H35.0591ZM43.0304 35.2745C46.229 35.6598 48.3765 36.1141 49.7239 36.8868C50.3681 37.2563 50.7959 37.6816 51.0727 38.1867C51.3528 38.6978 51.5182 39.3636 51.5182 40.2737H53.5182C53.5182 39.1225 53.3083 38.1045 52.8266 37.2255C52.3416 36.3405 51.6209 35.6692 50.7189 35.1519C48.9736 34.1509 46.437 33.6704 43.2697 33.2888L43.0304 35.2745ZM51.5183 40.2613C51.4964 42.0293 50.731 43.3756 49.2488 44.3249C47.7136 45.3081 45.3552 45.8932 42.166 45.8932V47.8932C45.5518 47.8932 48.3433 47.2799 50.3275 46.0091C52.3646 44.7043 53.4878 42.7408 53.5182 40.2861L51.5183 40.2613Z" fill="white" mask="url(#path-3-inside-1_39_9)"/>
</svg>
