<svg width="72" height="106" viewBox="0 0 72 106" fill="none" xmlns="http://www.w3.org/2000/svg">
<path d="M11.9318 105V90.4545H16.6264C17.6586 90.4545 18.5204 90.6416 19.2116 91.0156C19.9077 91.3849 20.4309 91.8987 20.7812 92.5568C21.1364 93.2102 21.3139 93.9607 21.3139 94.8082C21.3139 95.6558 21.1364 96.4039 20.7812 97.0526C20.4309 97.7012 19.91 98.2079 19.2188 98.5724C18.5275 98.937 17.6705 99.1193 16.6477 99.1193H12.6491V97.9048H16.6122C17.3698 97.9048 17.9995 97.7794 18.5014 97.5284C19.008 97.2775 19.3845 96.92 19.6307 96.456C19.8816 95.992 20.0071 95.4427 20.0071 94.8082C20.0071 94.1738 19.8816 93.6198 19.6307 93.1463C19.3797 92.6681 19.0009 92.2988 18.4943 92.0384C17.9924 91.7779 17.358 91.6477 16.5909 91.6477H13.2599V105H11.9318ZM18.3452 98.4375L21.9247 105H20.3906L16.8466 98.4375H18.3452ZM28.5795 105.227C27.5616 105.227 26.6809 104.991 25.9375 104.517C25.1941 104.039 24.6188 103.378 24.2116 102.536C23.8092 101.688 23.608 100.713 23.608 99.6094C23.608 98.5109 23.8092 97.5355 24.2116 96.6832C24.6188 95.8262 25.1799 95.1562 25.8949 94.6733C26.6146 94.1856 27.4455 93.9418 28.3878 93.9418C28.9796 93.9418 29.5502 94.0507 30.0994 94.2685C30.6487 94.4815 31.1411 94.8106 31.5767 95.2557C32.017 95.696 32.3651 96.2524 32.6207 96.9247C32.8764 97.5923 33.0043 98.383 33.0043 99.2969V99.9219H24.4815V98.8068H31.7116C31.7116 98.1061 31.5696 97.4763 31.2855 96.9176C31.0062 96.3542 30.6155 95.9091 30.1136 95.5824C29.6165 95.2557 29.0412 95.0923 28.3878 95.0923C27.6965 95.0923 27.0881 95.277 26.5625 95.6463C26.0369 96.0156 25.625 96.5033 25.3267 97.1094C25.0331 97.7154 24.884 98.3783 24.8793 99.098V99.7656C24.8793 100.632 25.0284 101.39 25.3267 102.038C25.6297 102.682 26.0582 103.182 26.6122 103.537C27.1662 103.892 27.822 104.07 28.5795 104.07C29.0956 104.07 29.5478 103.989 29.9361 103.828C30.3291 103.667 30.6581 103.452 30.9233 103.182C31.1932 102.907 31.3968 102.607 31.5341 102.28L32.7344 102.67C32.5687 103.13 32.2964 103.554 31.9176 103.942C31.5436 104.33 31.0748 104.643 30.5114 104.879C29.9527 105.111 29.3087 105.227 28.5795 105.227ZM38.837 105.249C38.1789 105.249 37.5775 105.121 37.033 104.865C36.4885 104.605 36.0553 104.231 35.7333 103.743C35.4113 103.25 35.2504 102.654 35.2504 101.953C35.2504 101.413 35.3522 100.959 35.5558 100.589C35.7594 100.22 36.0482 99.9171 36.4222 99.6804C36.7963 99.4437 37.239 99.2566 37.7504 99.1193C38.2617 98.982 38.8252 98.8755 39.4407 98.7997C40.0515 98.724 40.5676 98.6577 40.989 98.6009C41.4151 98.544 41.7395 98.4541 41.962 98.331C42.1845 98.2079 42.2958 98.009 42.2958 97.7344V97.4787C42.2958 96.7353 42.0733 96.1506 41.6282 95.7244C41.1879 95.2936 40.5534 95.0781 39.7248 95.0781C38.9388 95.0781 38.2972 95.2509 37.8001 95.5966C37.3076 95.9422 36.962 96.3494 36.7631 96.8182L35.5629 96.3849C35.8091 95.7884 36.15 95.3125 36.5856 94.9574C37.0212 94.5975 37.5089 94.3395 38.0487 94.1832C38.5884 94.0223 39.1353 93.9418 39.6893 93.9418C40.1059 93.9418 40.5392 93.9962 40.989 94.1051C41.4435 94.214 41.8649 94.4034 42.2532 94.6733C42.6415 94.9384 42.9563 95.3101 43.1978 95.7884C43.4393 96.2618 43.56 96.8632 43.56 97.5923V105H42.2958V103.274H42.2177C42.0662 103.596 41.8413 103.909 41.543 104.212C41.2447 104.515 40.8706 104.763 40.4208 104.957C39.971 105.152 39.4431 105.249 38.837 105.249ZM39.0075 104.091C39.6798 104.091 40.2622 103.942 40.7546 103.643C41.247 103.345 41.6258 102.95 41.891 102.457C42.1609 101.96 42.2958 101.413 42.2958 100.817V99.2401C42.2011 99.33 42.0425 99.4105 41.82 99.4815C41.6022 99.5526 41.3488 99.6165 41.06 99.6733C40.7759 99.7254 40.4918 99.7704 40.2077 99.8082C39.9237 99.8461 39.668 99.8793 39.4407 99.9077C38.8252 99.9834 38.2996 100.102 37.864 100.263C37.4284 100.424 37.0946 100.646 36.8626 100.93C36.6306 101.21 36.5146 101.57 36.5146 102.01C36.5146 102.673 36.7513 103.187 37.2248 103.551C37.6983 103.911 38.2925 104.091 39.0075 104.091ZM51.1843 105.227C50.2089 105.227 49.359 104.983 48.6346 104.496C47.9149 104.008 47.3562 103.34 46.9585 102.493C46.5607 101.645 46.3619 100.679 46.3619 99.5952C46.3619 98.5014 46.5631 97.5284 46.9656 96.6761C47.3728 95.8239 47.9362 95.1562 48.6559 94.6733C49.3756 94.1856 50.2113 93.9418 51.163 93.9418C51.8922 93.9418 52.5527 94.0838 53.1445 94.3679C53.7364 94.6473 54.2241 95.0426 54.6076 95.554C54.9959 96.0606 55.2397 96.6525 55.3391 97.3295H54.0607C53.9281 96.714 53.6085 96.1884 53.1019 95.7528C52.6 95.3125 51.9608 95.0923 51.1843 95.0923C50.4883 95.0923 49.8728 95.2817 49.3377 95.6605C48.8027 96.0346 48.3836 96.5578 48.0806 97.2301C47.7823 97.8977 47.6332 98.6719 47.6332 99.5526C47.6332 100.438 47.7799 101.222 48.0735 101.903C48.3671 102.58 48.779 103.111 49.3093 103.494C49.8443 103.878 50.4693 104.07 51.1843 104.07C51.6673 104.07 52.1076 103.98 52.5053 103.8C52.9078 103.615 53.244 103.355 53.5138 103.018C53.7885 102.682 53.9731 102.282 54.0678 101.818H55.3462C55.2515 102.476 55.0172 103.063 54.6431 103.58C54.2738 104.091 53.7932 104.493 53.2013 104.787C52.6142 105.08 51.9419 105.227 51.1843 105.227ZM62.3526 94.0909V95.1918H57.1467V94.0909H62.3526ZM58.7731 91.4773H60.0444V102.152C60.0444 102.607 60.1225 102.964 60.2788 103.224C60.435 103.48 60.6386 103.662 60.8896 103.771C61.1405 103.875 61.408 103.928 61.6921 103.928C61.8578 103.928 61.9999 103.918 62.1183 103.899C62.2366 103.875 62.3408 103.852 62.4308 103.828L62.7006 104.972C62.5775 105.019 62.426 105.062 62.2461 105.099C62.0662 105.142 61.8436 105.163 61.5785 105.163C61.1145 105.163 60.667 105.062 60.2362 104.858C59.81 104.654 59.4596 104.351 59.185 103.949C58.9104 103.546 58.7731 103.047 58.7731 102.45V91.4773Z" fill="black"/>
<circle cx="36" cy="36" r="36" fill="#D9AB82"/>
<path d="M53.7406 27.2031C53.15 27.0022 52.5594 26.8125 51.9688 26.6339C52.0672 26.221 52.1547 25.8081 52.2422 25.3952C53.5875 18.7437 52.7016 13.398 49.7156 11.6347C46.8391 9.94955 42.1469 11.7017 37.4 15.9202C36.9297 16.3331 36.4703 16.7684 36.0328 17.2036C35.7375 16.9135 35.4312 16.6233 35.125 16.3443C30.1484 11.8356 25.1609 9.93839 22.175 11.7129C19.3094 13.4092 18.4562 18.4424 19.6594 24.7367C19.7797 25.3617 19.9109 25.9755 20.0641 26.6004C19.3641 26.8013 18.675 27.0245 18.0297 27.2589C12.1891 29.3235 8 32.5823 8 35.9526C8 39.4346 12.4625 42.9277 18.5328 45.0481C19.025 45.2155 19.5172 45.3829 20.0203 45.528C19.8563 46.1976 19.7141 46.8561 19.5828 47.5368C18.4344 53.7307 19.3313 58.6411 22.1969 60.3263C25.15 62.0673 30.1156 60.2817 34.95 55.9627C35.3328 55.6168 35.7156 55.2596 36.0984 54.8802C36.5797 55.3601 37.0828 55.8176 37.5859 56.264C42.2672 60.371 46.8938 62.0338 49.7484 60.3486C52.7016 58.6077 53.6641 53.3289 52.4172 46.9007C52.3188 46.4097 52.2094 45.9075 52.0891 45.3941C52.4391 45.2936 52.7781 45.182 53.1172 45.0704C59.4281 42.9389 64 39.4904 64 35.9526C64 32.5711 59.6906 29.29 53.7406 27.2031ZM38.9422 17.7282C43.0109 14.1123 46.8063 12.6949 48.5344 13.7105C50.3828 14.793 51.0937 19.1678 49.9344 24.9153C49.8578 25.2947 49.7813 25.663 49.6828 26.0313C47.2547 25.4733 44.7937 25.0715 42.3219 24.8483C40.9 22.7725 39.3469 20.786 37.6625 18.9223C38.0891 18.5094 38.5047 18.1188 38.9422 17.7282ZM26.2875 41.7447C26.8453 42.7157 27.4141 43.6866 28.0156 44.6352C26.3094 44.4455 24.6141 44.1665 22.9406 43.7982C23.4219 42.1911 24.0234 40.5283 24.7234 38.8319C25.2266 39.814 25.7406 40.785 26.2875 41.7447ZM22.9734 28.3191C24.5484 27.962 26.2219 27.6718 27.9609 27.4486C27.3812 28.3749 26.8125 29.3235 26.2766 30.2833C25.7406 31.2319 25.2156 32.2028 24.7234 33.1849C24.0344 31.5221 23.4547 29.8927 22.9734 28.3191ZM25.9703 36.0084C26.6922 34.4683 27.4797 32.9617 28.3109 31.4774C29.1422 29.9931 30.0391 28.5535 30.9797 27.1361C32.6203 27.0134 34.2937 26.9464 36 26.9464C37.7063 26.9464 39.3906 27.0134 41.0203 27.1361C41.95 28.5423 42.8359 29.982 43.6781 31.4551C44.5203 32.9282 45.3078 34.4349 46.0516 35.9638C45.3187 37.5039 44.5312 39.0217 43.6891 40.5171C42.8578 42.0014 41.9719 43.4411 41.0422 44.8696C39.4125 44.9923 37.7172 45.0481 36 45.0481C34.2828 45.0481 32.6203 44.9923 31.0125 44.8919C30.0609 43.4745 29.1641 42.0237 28.3219 40.5394C27.4797 39.0551 26.7031 37.5485 25.9703 36.0084ZM45.7234 41.7224C46.2812 40.7403 46.8063 39.7471 47.3203 38.7427C48.0203 40.3609 48.6328 42.0014 49.1687 43.6866C47.4734 44.0772 45.7562 44.3785 44.0281 44.5794C44.6187 43.6419 45.1766 42.6822 45.7234 41.7224ZM47.2984 33.1849C46.7844 32.2028 46.2594 31.2207 45.7125 30.261C45.1766 29.3124 44.6188 28.3749 44.0391 27.4486C45.8 27.6718 47.4844 27.9731 49.0594 28.3414C48.5562 29.9931 47.9656 31.6002 47.2984 33.1849ZM36.0219 20.6298C37.1703 21.902 38.2531 23.2413 39.2594 24.6251C37.0937 24.5247 34.9172 24.5247 32.7516 24.6251C33.8234 23.1855 34.9281 21.8462 36.0219 20.6298ZM23.3344 13.7886C25.1719 12.6949 29.2516 14.2574 33.55 18.1411C33.8234 18.3866 34.0969 18.6544 34.3812 18.9223C32.6859 20.786 31.1219 22.7725 29.6891 24.8483C27.2172 25.0715 24.7672 25.4621 22.3391 26.009C22.1969 25.4398 22.0766 24.8595 21.9562 24.2791C20.9281 18.8776 21.6062 14.8042 23.3344 13.7886ZM20.6547 43.2067C20.1953 43.0728 19.7469 42.9277 19.2984 42.7715C16.9688 42.0237 14.3219 40.8408 12.4078 39.2895C11.3031 38.5083 10.5594 37.303 10.3516 35.9526C10.3516 33.9103 13.8078 31.2989 18.7953 29.5244C19.4187 29.3012 20.0531 29.1003 20.6875 28.9106C21.4313 31.3323 22.3281 33.7094 23.3672 36.0084C22.3172 38.3409 21.4094 40.7515 20.6547 43.2067ZM33.4078 54.1436C31.6031 55.8288 29.5141 57.168 27.2391 58.0831C26.025 58.6746 24.625 58.7304 23.3781 58.2282C21.6391 57.2015 20.9172 53.262 21.9016 47.9609C22.0219 47.3359 22.1531 46.711 22.3063 46.0972C24.7563 46.6329 27.2281 47.0011 29.7328 47.1909C31.1766 49.2778 32.7625 51.2755 34.4578 53.1504C34.1078 53.4963 33.7578 53.8311 33.4078 54.1436ZM36.0875 51.4317C34.9719 50.2041 33.8562 48.8426 32.7734 47.3806C33.8234 47.4252 34.9062 47.4476 36 47.4476C37.1266 47.4476 38.2312 47.4252 39.325 47.3694C38.3187 48.7868 37.2359 50.1371 36.0875 51.4317ZM50.3828 54.7797C50.2844 56.1413 49.6281 57.4135 48.5781 58.2729C46.8391 59.2996 43.1313 57.9604 39.1281 54.4561C38.6688 54.0543 38.2094 53.6191 37.7391 53.1727C39.4125 51.2866 40.9547 49.289 42.3547 47.1909C44.8594 46.9788 47.3531 46.5882 49.8141 46.0191C49.9234 46.4766 50.0219 46.9342 50.1094 47.3806C50.6453 49.7912 50.7328 52.3022 50.3828 54.7797ZM52.3734 42.7826C52.0672 42.8831 51.7609 42.9835 51.4438 43.0728C50.6781 40.6399 49.7375 38.2628 48.6547 35.9526C49.7047 33.676 50.5906 31.3323 51.3344 28.9329C51.9031 29.1003 52.45 29.2789 52.975 29.4574C58.0719 31.2431 61.6484 33.8992 61.6484 35.9303C61.6484 38.1177 57.8313 40.9412 52.3734 42.7826ZM36 41.1086C38.7672 41.1086 41.0094 38.8208 41.0094 35.9973C41.0094 33.1738 38.7672 30.8859 36 30.8859C33.2328 30.8859 30.9906 33.1738 30.9906 35.9973C30.9906 38.8208 33.2328 41.1086 36 41.1086Z" fill="white"/>
</svg>
