<svg width="72" height="107" viewBox="0 0 72 107" fill="none" xmlns="http://www.w3.org/2000/svg">
<path d="M26.0139 94.0909C25.9334 93.2812 25.5759 92.6373 24.9414 92.1591C24.307 91.6809 23.5091 91.4418 22.548 91.4418C21.8709 91.4418 21.2743 91.5578 20.7582 91.7898C20.2468 92.0218 19.8444 92.3437 19.5508 92.7557C19.262 93.1629 19.1176 93.6269 19.1176 94.1477C19.1176 94.5312 19.2004 94.8674 19.3661 95.1562C19.5319 95.4451 19.7544 95.6937 20.0338 95.902C20.3178 96.1056 20.6303 96.2808 20.9713 96.4276C21.3169 96.5743 21.6649 96.6974 22.0153 96.7969L23.5494 97.2372C24.0134 97.3651 24.4774 97.5284 24.9414 97.7273C25.4054 97.9261 25.8292 98.1771 26.2127 98.4801C26.601 98.7784 26.9111 99.1454 27.1431 99.581C27.3799 100.012 27.4982 100.53 27.4982 101.136C27.4982 101.913 27.297 102.611 26.8946 103.232C26.4921 103.852 25.9144 104.344 25.1616 104.709C24.4088 105.069 23.5068 105.249 22.4556 105.249C21.466 105.249 20.6067 105.085 19.8775 104.759C19.1483 104.427 18.5754 103.97 18.1588 103.388C17.7421 102.805 17.5077 102.131 17.4556 101.364H18.8193C18.8666 101.937 19.056 102.422 19.3875 102.82C19.7189 103.217 20.1498 103.52 20.6801 103.729C21.2104 103.932 21.8022 104.034 22.4556 104.034C23.1801 104.034 23.824 103.913 24.3875 103.672C24.9556 103.426 25.4007 103.085 25.7227 102.649C26.0494 102.209 26.2127 101.697 26.2127 101.115C26.2127 100.623 26.0849 100.211 25.8292 99.8793C25.5735 99.5431 25.216 99.2614 24.7568 99.0341C24.3022 98.8068 23.7743 98.6056 23.173 98.4304L21.4329 97.919C20.2918 97.5781 19.4064 97.107 18.7767 96.5057C18.1469 95.9044 17.8321 95.1373 17.8321 94.2045C17.8321 93.4233 18.0404 92.7367 18.4571 92.1449C18.8785 91.5483 19.4466 91.0843 20.1616 90.7528C20.8813 90.4167 21.6886 90.2486 22.5835 90.2486C23.4878 90.2486 24.288 90.4143 24.984 90.7457C25.6801 91.0772 26.2317 91.5341 26.6389 92.1165C27.0508 92.6941 27.271 93.3523 27.2994 94.0909H26.0139ZM36.1417 100.455H37.619L39.4798 102.919L39.7923 103.331L42.0792 106.364H40.6019L38.9258 104.126L38.6275 103.729L36.1417 100.455ZM42.619 97.7273C42.619 99.2424 42.3491 100.561 41.8093 101.683C41.2696 102.801 40.5262 103.667 39.5792 104.283C38.637 104.893 37.5527 105.199 36.3264 105.199C35.1 105.199 34.0134 104.893 33.0664 104.283C32.1242 103.667 31.3832 102.801 30.8434 101.683C30.3084 100.561 30.0409 99.2424 30.0409 97.7273C30.0409 96.2121 30.3084 94.8958 30.8434 93.7784C31.3832 92.6562 32.1266 91.7898 33.0735 91.179C34.0205 90.5634 35.1048 90.2557 36.3264 90.2557C37.5527 90.2557 38.637 90.5634 39.5792 91.179C40.5262 91.7898 41.2696 92.6562 41.8093 93.7784C42.3491 94.8958 42.619 96.2121 42.619 97.7273ZM41.3264 97.7273C41.3264 96.4252 41.1086 95.3101 40.673 94.3821C40.2374 93.4493 39.6431 92.7367 38.8903 92.2443C38.1375 91.7519 37.2828 91.5057 36.3264 91.5057C35.3747 91.5057 34.5224 91.7519 33.7696 92.2443C33.0167 92.7367 32.4201 93.447 31.9798 94.375C31.5442 95.303 31.3264 96.4205 31.3264 97.7273C31.3264 99.0294 31.5442 100.144 31.9798 101.072C32.4154 102 33.0096 102.713 33.7625 103.21C34.5153 103.703 35.3699 103.949 36.3264 103.949C37.2828 103.949 38.1375 103.703 38.8903 103.21C39.6479 102.718 40.2445 102.008 40.6801 101.08C41.1157 100.147 41.3311 99.0294 41.3264 97.7273ZM45.831 105V90.4545H47.1591V103.807H54.0909V105H45.831Z" fill="black"/>
<circle cx="36" cy="36" r="36" fill="#D9AB82"/>
<path d="M15 49.4921V21.4869M56.4723 30.9279C56.4723 34.6069 47.2596 37.5611 35.7362 37.5611C24.2128 37.5611 15 34.6168 15 30.9379M56.4723 40.0732C56.4723 43.7521 47.2608 46.6963 35.7362 46.6963C24.2115 46.6963 15 43.7532 15 40.0732M15.0012 49.5032C15.0012 53.0458 24.2115 56 35.7362 56C47.2608 56 56.4723 53.0458 56.4723 49.5032V21.4869M56.4723 21.4968C56.4723 25.1758 47.2596 28.12 35.7362 28.12C24.2128 28.12 15 25.1769 15 21.4968C15.329 17.9542 24.3884 15 35.5716 15C46.9318 15 56.1433 17.9431 56.4723 21.4968Z" stroke="white" stroke-width="3" stroke-linecap="round" stroke-linejoin="round"/>
</svg>
