<svg width="100" height="100" viewBox="0 0 100 100" fill="none" xmlns="http://www.w3.org/2000/svg">
<circle cx="50" cy="50" r="50" fill="#DE0756"/>
<path d="M49.5 80.5C32.3578 80.5 18.5 66.6422 18.5 49.5C18.5 32.3578 32.3578 18.5 49.5 18.5C66.6422 18.5 80.5 32.3578 80.5 49.5C80.5 66.6422 66.6422 80.5 49.5 80.5ZM49.5 19.3235C32.8039 19.3235 19.3235 32.8039 19.3235 49.5C19.3235 66.1961 32.8039 79.6765 49.5 79.6765C66.1961 79.6765 79.6765 66.1961 79.6765 49.5C79.6765 32.8039 66.1961 19.3235 49.5 19.3235Z" fill="white" stroke="white" stroke-width="3"/>
<path d="M48.4394 35.8221L33.6324 50.6291L33.0773 50.0739L49.5001 33.6511L65.9229 50.0739L65.3677 50.6291L50.5607 35.8221L49.5001 34.7614L48.4394 35.8221Z" fill="white" stroke="white" stroke-width="3"/>
<path d="M49.0883 35.7056H49.9118V65.2056H49.0883V35.7056Z" fill="white" stroke="white" stroke-width="3"/>
</svg>
