<svg width="1445" height="679" viewBox="0 0 1445 679" fill="none" xmlns="http://www.w3.org/2000/svg">
<path d="M0 588.632L40.1138 596.617C80.3029 604.602 151.697 655.851 232 662.924C312.303 669.882 372.697 661.58 453 645.153C524.333 630.561 578.697 596.389 659 588.632C739.303 580.76 844.697 588.404 925 616.352C1005.3 644.301 1020.7 647.062 1101 669.878C1181.3 692.693 1290 669.878 1373 632.791L1445 596.845V0H1404.89C1364.7 0 1284.47 0 1204.17 0C1123.86 0 1043.64 0 963.333 0C883.031 0 802.803 0 722.5 0C642.197 0 561.97 0 481.667 0C401.364 0 321.136 0 240.833 0C160.53 0 80.3029 0 40.1138 0H0V588.632Z" fill="#FFEFEF"/>
</svg>
