<svg width="72" height="106" viewBox="0 0 72 106" fill="none" xmlns="http://www.w3.org/2000/svg">
<path d="M31.3239 95H29.9886C29.8892 94.5028 29.7093 94.0436 29.4489 93.6222C29.1932 93.196 28.8712 92.8243 28.483 92.5071C28.0947 92.1899 27.6544 91.9437 27.1619 91.7685C26.6695 91.5933 26.1368 91.5057 25.5639 91.5057C24.6454 91.5057 23.8073 91.7448 23.0497 92.223C22.2969 92.7012 21.6932 93.4044 21.2386 94.3324C20.7888 95.2557 20.5639 96.3873 20.5639 97.7273C20.5639 99.0767 20.7888 100.213 21.2386 101.136C21.6932 102.06 22.2969 102.76 23.0497 103.239C23.8073 103.712 24.6454 103.949 25.5639 103.949C26.1368 103.949 26.6695 103.861 27.1619 103.686C27.6544 103.511 28.0947 103.267 28.483 102.955C28.8712 102.637 29.1932 102.266 29.4489 101.839C29.7093 101.413 29.8892 100.952 29.9886 100.455H31.3239C31.2055 101.122 30.983 101.745 30.6562 102.322C30.3343 102.895 29.9223 103.397 29.4205 103.828C28.9233 104.259 28.3504 104.595 27.7017 104.837C27.053 105.078 26.3404 105.199 25.5639 105.199C24.3423 105.199 23.258 104.893 22.3111 104.283C21.3641 103.667 20.6207 102.801 20.081 101.683C19.5459 100.566 19.2784 99.2472 19.2784 97.7273C19.2784 96.2074 19.5459 94.8887 20.081 93.7713C20.6207 92.6539 21.3641 91.7898 22.3111 91.179C23.258 90.5634 24.3423 90.2557 25.5639 90.2557C26.3404 90.2557 27.053 90.3764 27.7017 90.6179C28.3504 90.8546 28.9233 91.1908 29.4205 91.6264C29.9223 92.0573 30.3343 92.5592 30.6562 93.1321C30.983 93.705 31.2055 94.3277 31.3239 95ZM41.5103 96.4844L40.3526 96.8111C40.239 96.4844 40.078 96.1884 39.8697 95.9233C39.6613 95.6581 39.3891 95.4474 39.0529 95.2912C38.7215 95.1349 38.3095 95.0568 37.8171 95.0568C37.0785 95.0568 36.4724 95.232 35.9989 95.5824C35.5254 95.9328 35.2887 96.3849 35.2887 96.9389C35.2887 97.4077 35.4497 97.7888 35.7717 98.0824C36.0984 98.3712 36.6003 98.6009 37.2773 98.7713L38.9251 99.1761C39.8389 99.3987 40.5231 99.7514 40.9776 100.234C41.4369 100.717 41.6665 101.323 41.6665 102.053C41.6665 102.668 41.4961 103.215 41.1552 103.693C40.8143 104.171 40.3384 104.548 39.7276 104.822C39.1216 105.092 38.4184 105.227 37.6183 105.227C36.5529 105.227 35.6746 104.988 34.9833 104.51C34.292 104.027 33.8493 103.331 33.6552 102.422L34.8697 102.124C35.0259 102.772 35.3313 103.262 35.7859 103.594C36.2451 103.925 36.8488 104.091 37.5969 104.091C38.435 104.091 39.105 103.904 39.6069 103.53C40.1088 103.151 40.3597 102.678 40.3597 102.109C40.3597 101.669 40.213 101.3 39.9194 101.001C39.6258 100.698 39.1808 100.476 38.5842 100.334L36.8015 99.9077C35.8545 99.6804 35.1538 99.3205 34.6992 98.8281C34.2447 98.3357 34.0174 97.7249 34.0174 96.9957C34.0174 96.3944 34.1808 95.8665 34.5075 95.4119C34.8342 94.9527 35.284 94.5928 35.8569 94.3324C36.4298 94.072 37.0832 93.9418 37.8171 93.9418C38.8162 93.9418 39.614 94.169 40.2106 94.6236C40.8119 95.0734 41.2451 95.6937 41.5103 96.4844ZM51.7642 96.4844L50.6065 96.8111C50.4929 96.4844 50.3319 96.1884 50.1236 95.9233C49.9152 95.6581 49.643 95.4474 49.3068 95.2912C48.9754 95.1349 48.5634 95.0568 48.071 95.0568C47.3324 95.0568 46.7263 95.232 46.2528 95.5824C45.7794 95.9328 45.5426 96.3849 45.5426 96.9389C45.5426 97.4077 45.7036 97.7888 46.0256 98.0824C46.3523 98.3712 46.8542 98.6009 47.5312 98.7713L49.179 99.1761C50.0928 99.3987 50.777 99.7514 51.2315 100.234C51.6908 100.717 51.9205 101.323 51.9205 102.053C51.9205 102.668 51.75 103.215 51.4091 103.693C51.0682 104.171 50.5923 104.548 49.9815 104.822C49.3755 105.092 48.6723 105.227 47.8722 105.227C46.8068 105.227 45.9285 104.988 45.2372 104.51C44.5459 104.027 44.1032 103.331 43.9091 102.422L45.1236 102.124C45.2798 102.772 45.5852 103.262 46.0398 103.594C46.4991 103.925 47.1027 104.091 47.8509 104.091C48.6889 104.091 49.3589 103.904 49.8608 103.53C50.3627 103.151 50.6136 102.678 50.6136 102.109C50.6136 101.669 50.4669 101.3 50.1733 101.001C49.8797 100.698 49.4347 100.476 48.8381 100.334L47.0554 99.9077C46.1084 99.6804 45.4077 99.3205 44.9531 98.8281C44.4986 98.3357 44.2713 97.7249 44.2713 96.9957C44.2713 96.3944 44.4347 95.8665 44.7614 95.4119C45.0881 94.9527 45.5379 94.5928 46.1108 94.3324C46.6837 94.072 47.3371 93.9418 48.071 93.9418C49.0701 93.9418 49.8679 94.169 50.4645 94.6236C51.0658 95.0734 51.4991 95.6937 51.7642 96.4844Z" fill="black"/>
<circle cx="36" cy="36" r="36" fill="#D9AB82"/>
<path d="M16.6082 17.0999C15.4257 17.0999 14.5013 18.1204 14.618 19.2971L18.1957 55.3879C18.279 56.2287 18.8818 56.9264 19.7015 57.1311L35.5158 61.0789C35.8338 61.1583 36.1665 61.1583 36.4845 61.079L52.2922 57.1339C53.1119 56.9293 53.7147 56.2317 53.7982 55.391L57.3819 19.2975C57.4988 18.1206 56.5744 17.0999 55.3917 17.0999H16.6082Z" stroke="white" stroke-width="3" stroke-miterlimit="10" stroke-linecap="round" stroke-linejoin="round"/>
<path d="M24.3694 25.9199H45.4745C46.6383 25.9199 47.5563 26.9097 47.4689 28.0702L46.0732 46.5926C46.0107 47.4216 45.4419 48.1255 44.6446 48.3606L36.5659 50.7431C36.1966 50.852 35.8037 50.852 35.4344 50.7431L27.4652 48.3929C26.6147 48.1421 26.0309 47.3613 26.0309 46.4746V45.0299M46.7337 37.6799H24.7682" stroke="white" stroke-width="3" stroke-miterlimit="10" stroke-linecap="round" stroke-linejoin="round"/>
</svg>
