<svg width="64" height="64" viewBox="0 0 64 64" fill="none" xmlns="http://www.w3.org/2000/svg">
<mask id="mask0_104_4" style="mask-type:alpha" maskUnits="userSpaceOnUse" x="0" y="0" width="64" height="64">
<rect width="64" height="64" rx="32" fill="#D9D9D9"/>
</mask>
<g mask="url(#mask0_104_4)">
<circle cx="32" cy="32" r="32" fill="#D9D9D9"/>
<circle cx="32" cy="32" r="32" fill="#DD0A59"/>
<path d="M15.7439 19.7905C15.6703 19.9212 15.6564 20.0735 15.7023 20.2473C15.7427 20.4058 15.7852 20.5463 15.8297 20.6686C15.934 20.7172 16.0098 20.7589 16.0571 20.7937C15.8682 21.4167 15.6869 22.037 15.5132 22.6544C15.3549 23.2663 15.2174 23.8879 15.1008 24.5193C15.0591 24.6903 15.0202 24.869 14.9841 25.0554C14.9425 25.2264 14.9189 25.3995 14.9134 25.5748C14.9398 25.5998 14.9662 25.6248 14.9927 25.6498C15.0288 25.654 15.0525 25.6714 15.0636 25.702C15.0914 25.7784 15.0894 25.8918 15.0574 26.0419C15.0352 26.1713 15.0186 26.3159 15.0075 26.4758C15.0062 26.6149 15.0305 26.7532 15.0806 26.8909C15.1252 27.0132 15.2309 27.1133 15.3978 27.1911C15.0476 28.1326 14.7649 29.0929 14.5497 30.0719C14.3289 31.0356 14.1185 32.0042 13.9185 32.9777L14.0124 33.0215C14.3476 33.2285 14.6257 33.3265 14.8468 33.3153C15.0776 33.2833 15.3717 33.2109 15.7291 33.0981C16.0099 33.0132 16.2811 32.9492 16.5425 32.906C16.8039 32.8628 17.0563 32.9615 17.2997 33.202C17.2873 33.5009 17.2185 33.7165 17.0934 33.8486C16.9627 33.9655 16.7785 34.1018 16.5408 34.2576C16.4296 34.3327 16.3211 34.4155 16.2155 34.5059C16.1196 34.5755 16.016 34.6478 15.9048 34.7229C15.7782 34.8036 15.6253 34.8593 15.4459 34.8899C15.2818 34.915 15.1129 34.9505 14.9391 34.9965C14.7597 35.0271 14.5915 35.0883 14.4344 35.1802C14.287 35.2511 14.1619 35.3833 14.059 35.5766C14.0493 35.5974 14.0299 35.7344 14.0008 35.9875C13.9661 36.2253 13.9231 36.5354 13.8717 36.9178C13.8357 37.2947 13.7878 37.7105 13.7282 38.1652C13.6838 38.6144 13.6311 39.0406 13.57 39.4439C13.5242 39.8416 13.4847 40.1851 13.4514 40.4743C13.4181 40.7636 13.3973 40.9443 13.389 41.0166C13.4363 41.0514 13.494 41.091 13.5622 41.1355C13.6248 41.1647 13.6769 41.189 13.7186 41.2084C13.7382 41.5477 13.7835 41.8863 13.8545 42.2242C13.9255 42.5621 14.007 42.9048 14.0989 43.2524C14.174 43.5542 14.2624 43.8684 14.364 44.1952C14.4754 44.5011 14.561 44.8076 14.6209 45.1149C14.6863 45.4375 14.7156 45.756 14.7088 46.0702C14.7019 46.3845 14.6255 46.6981 14.4796 47.011C14.3058 47.0569 14.1354 47.041 13.9685 46.9632C13.8072 46.9007 13.6528 46.8096 13.5054 46.6901C13.358 46.5705 13.2078 46.4433 13.0548 46.3085C12.9226 46.1834 12.7912 46.084 12.6604 46.0103C12.7632 45.6265 12.7666 45.2789 12.6706 44.9674C12.569 44.6407 12.4548 44.3271 12.3282 44.0268C12.2016 43.7265 12.1083 43.4227 12.0484 43.1154C11.9886 42.8081 12.0489 42.4743 12.2296 42.1141C12.0168 41.8625 11.8304 41.6359 11.6704 41.4343C11.5104 41.2327 11.5131 40.9546 11.6785 40.6L11.6556 40.6083C11.7209 40.5499 11.8001 40.4345 11.8932 40.262C11.9808 40.0743 12.0489 39.9282 12.0975 39.8239C11.818 39.7698 11.672 39.7017 11.6594 39.6196C11.6413 39.5223 11.6719 39.4159 11.7511 39.3005C11.8248 39.1697 11.9005 39.0209 11.9784 38.854C12.0715 38.6816 12.0763 38.4807 11.9928 38.2512L11.7967 38.1407L11.8404 38.0469C11.9809 37.9092 12.0524 37.7965 12.0552 37.7089C12.0677 37.6004 12.0433 37.4621 11.9821 37.2938L11.9591 37.3022L11.9508 37.2793C11.7755 37.0832 11.5919 36.9595 11.4 36.9081C11.2081 36.8567 11.0092 36.8339 10.8034 36.8395C10.6129 36.8395 10.4099 36.8528 10.1944 36.8793C9.99415 36.9002 9.79043 36.8878 9.58322 36.8419C9.53458 36.9462 9.48594 37.0505 9.4373 37.1548C9.3831 37.2439 9.35462 37.3322 9.35186 37.4198C9.16692 37.4351 8.97642 37.4352 8.78034 37.4199C8.594 37.3838 8.40836 37.3735 8.22342 37.3888C8.04821 37.3833 7.87926 37.4188 7.71659 37.4953C7.56921 37.5663 7.42881 37.704 7.29537 37.9085L7.26619 37.971C7.18561 38.2255 7.0327 38.3765 6.80744 38.4238C6.59748 38.4656 6.36944 38.5053 6.12332 38.5429C5.88693 38.5597 5.65681 38.6174 5.43296 38.7162C5.20911 38.815 5.05552 39.0355 4.97219 39.3776C4.65522 39.6488 4.31528 39.8332 3.95238 39.9306C3.57418 40.0336 3.19249 40.1033 2.80732 40.1395C2.42214 40.1758 2.03697 40.2121 1.6518 40.2483C1.26106 40.2693 0.87937 40.339 0.506736 40.4573C0.622063 40.1555 0.701937 39.8753 0.746359 39.6166C0.775486 39.3635 0.836608 39.1507 0.929724 38.9783C1.00198 38.7961 1.14517 38.666 1.35929 38.5881C1.55255 38.5004 1.8689 38.4892 2.30834 38.5545L2.4626 38.2645C2.7018 38.3506 2.88188 38.3457 3.00283 38.2497C3.10292 38.144 3.18979 38.0258 3.26345 37.895C3.32182 37.7699 3.39897 37.6725 3.49489 37.603C3.56996 37.5237 3.70972 37.5508 3.91417 37.6842C3.91974 37.6995 3.93017 37.7043 3.94546 37.6988C3.94546 37.6988 3.94825 37.7064 3.95381 37.7217C3.96911 37.7162 3.98719 37.7182 4.00805 37.728C4.00805 37.728 4.01569 37.7252 4.03099 37.7196C4.12832 37.7015 4.26597 37.6514 4.44394 37.5693C4.60104 37.4775 4.71991 37.3996 4.80055 37.3356C5.15508 37.1199 5.42481 37.0045 5.60975 36.9891C5.80998 36.9682 6.09369 37.0814 6.46087 37.3288C6.49978 37.2454 6.54842 37.1411 6.60679 37.0159C6.66515 36.8908 6.69571 36.7844 6.69847 36.6968C6.92372 36.6494 7.11212 36.5722 7.26366 36.4651C7.42493 36.3371 7.57368 36.2223 7.70993 36.1208C7.86147 36.0137 8.02692 35.9448 8.2063 35.9141C8.38567 35.8835 8.6186 35.9286 8.90509 36.0495C8.94811 35.7394 9.05303 35.528 9.21986 35.4153C9.39643 35.2818 9.59247 35.2018 9.808 35.1753C10.0333 35.1279 10.2669 35.1035 10.5088 35.1021C10.7508 35.1006 10.9663 35.0741 11.1554 35.0226C11.3389 34.9558 11.4773 34.8362 11.5704 34.6637C11.6732 34.4704 11.6856 34.1714 11.6077 33.7668C11.9927 33.3495 12.2186 32.9469 12.2852 32.5589C12.3518 32.1709 12.342 31.7155 12.2556 31.1927C12.2068 30.916 12.1748 30.6852 12.1594 30.5002C12.1385 30.3 12.1517 30.122 12.1989 29.9662C12.2461 29.8105 12.3191 29.654 12.4178 29.4969C12.5109 29.3244 12.6443 29.12 12.8181 28.8835C12.8278 28.8627 12.8403 28.8494 12.8556 28.8439C12.8653 28.823 12.8751 28.8021 12.8848 28.7813C12.8681 28.7354 12.8465 28.7 12.8201 28.6749C12.8034 28.629 12.7867 28.5832 12.77 28.5373C12.6991 28.3899 12.674 28.2258 12.6948 28.045C12.7253 27.8434 12.7635 27.639 12.8093 27.4318C12.8551 27.2246 12.8933 27.0201 12.9239 26.8185C12.9544 26.6169 12.9363 26.4243 12.8695 26.2407C12.7915 26.0266 12.6635 25.8654 12.4855 25.7569C12.3075 25.6485 12.1274 25.5582 11.9452 25.4859L11.8847 25.5339C11.5219 25.8219 11.1535 26.0945 10.7795 26.3519C10.3999 26.594 10.0447 26.8791 9.71387 27.2074C9.22732 27.679 8.64967 28.1144 7.98093 28.5137C7.32748 28.9074 6.64896 29.137 5.94536 29.2026C5.91196 29.1108 5.82989 29.0281 5.69916 28.9544C5.58372 28.8752 5.47663 28.8189 5.37789 28.7856L5.26529 28.9045C5.12072 29.0784 4.9824 29.198 4.85031 29.2634C4.71266 29.3135 4.57431 29.3379 4.43525 29.3365C4.30593 29.3143 4.15852 29.29 3.99304 29.2637C3.84285 29.2317 3.67528 29.2234 3.49034 29.2388C3.50001 29.0274 3.54446 28.864 3.62369 28.7486C3.70292 28.6331 3.81552 28.5142 3.96149 28.3918C4.33975 28.4793 4.67488 28.4959 4.96688 28.4415C5.25888 28.3872 5.52653 28.2898 5.76984 28.1493C6.02844 28.0032 6.26547 27.8217 6.48095 27.6047C6.69642 27.3877 6.92162 27.1498 7.15655 26.8911C7.27609 26.7437 7.42622 26.5851 7.60695 26.4154C7.78767 26.2457 7.98161 26.0885 8.18876 25.9439C8.39034 25.7839 8.60306 25.6545 8.82691 25.5557C9.04519 25.4416 9.25445 25.3741 9.45468 25.3532L9.5548 25.3427C9.67153 25.0924 9.85293 24.8532 10.099 24.625C10.3548 24.3761 10.621 24.1319 10.8976 23.8927C11.1896 23.6479 11.4788 23.3954 11.7651 23.1353C12.0459 22.8599 12.2746 22.5601 12.4511 22.2361L12.6556 22.3695L12.7244 22.3444C13.1067 22.2053 13.3598 22.0439 13.4835 21.8603C13.6016 21.6614 13.7225 21.3749 13.8462 21.0008C13.8739 20.8868 13.9212 20.7311 13.9879 20.5336C14.0643 20.3152 14.1435 20.1045 14.2255 19.9015C14.3172 19.6776 14.42 19.4843 14.534 19.3215C14.6424 19.1435 14.7606 19.0399 14.8885 19.0106C14.9497 18.9884 15.0199 19.0148 15.0992 19.0898C15.1729 19.1496 15.2522 19.2247 15.337 19.315C15.4219 19.4054 15.4991 19.4986 15.5687 19.5945C15.6382 19.6904 15.6966 19.7557 15.7439 19.7905ZM34.9925 28.6329C35.0913 28.8568 35.1261 29.0953 35.097 29.3483C35.0832 29.5959 35.0687 29.8177 35.0534 30.0137L34.6032 31.061L34.6432 32.5273C34.5195 32.7109 34.3805 32.9 34.2262 33.0948C34.0817 33.2686 33.9552 33.4446 33.8468 33.6226C33.7286 33.8215 33.6314 34.0301 33.5549 34.2484C33.4938 34.4612 33.4091 34.6566 33.3006 34.8346C33.1922 35.0126 33.0477 35.1865 32.8669 35.3562C32.696 35.505 32.5458 35.6636 32.4165 35.8319C32.1775 36.1268 31.9564 36.4237 31.7535 36.7228C31.5659 37.0162 31.3602 37.3076 31.1364 37.5969C31.071 37.6553 31.0238 37.7158 30.9946 37.7784C30.9751 37.8201 30.9327 37.8702 30.8674 37.9286C30.8326 37.9759 30.6561 38.1095 30.3377 38.3293C30.0193 38.5491 29.6683 38.7981 29.2846 39.0763C28.9106 39.3337 28.5568 39.575 28.2231 39.8004C27.8894 40.0258 27.6997 40.1468 27.6538 40.1635C27.3896 40.2943 27.1122 40.4126 26.8216 40.5183C26.531 40.6241 26.2432 40.7375 25.9582 40.8586L25.6892 41.1903C25.4765 41.1292 25.2512 41.0813 25.0134 41.0466C24.7756 41.0119 24.5656 40.9584 24.3834 40.8862C24.1804 40.8042 23.9717 40.7069 23.7576 40.5943C23.5378 40.4665 23.3389 40.3483 23.1609 40.2399C23.0065 40.0536 22.8549 39.875 22.706 39.704C22.5516 39.5177 22.4153 39.3335 22.2971 39.1514L21.865 38.3213C21.7287 38.0419 21.5951 37.7701 21.4643 37.5059C21.3488 37.2362 21.2229 36.9616 21.0865 36.6821C21.0849 35.8686 21.0527 35.0663 20.9899 34.2751C20.9368 33.463 20.9352 32.6495 20.985 31.8346C21.0002 31.6386 21.0078 31.4453 21.0078 31.2548C21.0174 31.0434 21.0299 30.8397 21.0451 30.6436C21.0701 30.4267 21.1083 30.2223 21.1597 30.0303C21.2055 29.8231 21.236 29.6215 21.2513 29.4254C21.2609 29.2141 21.2553 29.0083 21.2344 28.808C21.2079 28.5925 21.2023 28.3867 21.2175 28.1906C21.23 28.0822 21.2592 27.9243 21.305 27.7171C21.3453 27.4946 21.3932 27.2693 21.4487 27.0413C21.4987 26.7979 21.5438 26.565 21.5841 26.3425C21.6397 26.1144 21.6862 25.9329 21.7237 25.798C21.7904 25.6005 21.8599 25.4107 21.9321 25.2285C22.0044 25.0463 22.0481 24.8572 22.0633 24.6611C22.1217 24.3455 22.1473 23.9638 22.1402 23.516C22.1331 23.0682 22.158 22.6608 22.2149 22.2937C22.276 21.8904 22.376 21.4989 22.5149 21.1193C22.6636 20.7187 22.7865 20.3189 22.8838 19.9198C22.9963 19.5151 23.09 19.0826 23.165 18.6223L23.9072 17.5208L24.533 17.8126L25.5674 17.2283L26.6314 18.0102C26.6844 18.2507 26.7408 18.5246 26.8006 18.8319C26.8758 19.1337 26.9538 19.443 27.0345 19.7601C27.125 20.0562 27.2155 20.3524 27.306 20.6485C27.4062 20.9238 27.5105 21.163 27.619 21.366C27.6428 21.6691 27.6338 22.0015 27.5922 22.363C27.5603 22.7037 27.4916 23.0145 27.386 23.2954L27.7451 24.5677L27.1281 25.7276L27.4392 26.9394L26.9932 28.1409C27.0252 28.3718 27.0601 28.6102 27.0977 28.8564C27.1298 29.0872 27.1437 29.3159 27.1396 29.5426C27.1299 29.754 27.1078 29.9785 27.0731 30.2163C27.0328 30.4388 26.9953 30.669 26.9606 30.9068C26.7494 31.2781 26.5416 31.6828 26.3373 32.1209C26.1331 32.559 25.9594 32.9859 25.8163 33.4018C25.7398 33.6201 25.6766 33.851 25.6266 34.0943C25.5864 34.3168 25.5357 34.5345 25.4746 34.7472C25.2606 35.3967 25.0049 36.0267 24.7075 36.6372C24.4101 37.2478 24.126 37.8708 23.855 38.5064L24.6854 39.2174C25.0455 39.2076 25.4105 39.1873 25.7804 39.1566C26.1503 39.1259 26.5174 39.0875 26.8817 39.0415C27.0235 38.9553 27.1883 38.8607 27.376 38.7577C27.5581 38.6395 27.7479 38.5184 27.9453 38.3946C28.1371 38.2555 28.3213 38.1192 28.4979 37.9856C28.6898 37.8465 28.8434 37.7213 28.9588 37.6101C29.2201 37.3764 29.5079 37.0724 29.822 36.6983C30.1306 36.3088 30.3892 35.9723 30.5977 35.6885C30.9757 35.2045 31.3587 34.71 31.7465 34.2052C32.1343 33.7003 32.4936 33.1884 32.8244 32.6697C33.0468 32.3289 33.2622 31.9214 33.4707 31.4472C33.6791 30.9729 33.873 30.53 34.0522 30.1183C34.2412 29.6858 34.4143 29.3284 34.5713 29.0461C34.7436 28.7582 34.8841 28.6204 34.9925 28.6329ZM24.8028 20.0527C24.6764 20.7049 24.5216 21.3502 24.3382 21.9885C24.1646 22.606 24.0222 23.238 23.9112 23.8847C23.8709 24.1072 23.8487 24.3318 23.8446 24.5584C23.8349 24.7698 23.8023 24.9895 23.7468 25.2176C23.701 25.4248 23.6475 25.6348 23.5864 25.8475C23.5252 26.0603 23.485 26.2828 23.4656 26.515C23.4101 26.9336 23.3782 27.3696 23.37 27.8229C23.3715 28.2553 23.355 28.6857 23.3203 29.114C23.2704 29.5479 23.1815 29.97 23.0537 30.3802C22.9259 30.7905 22.8294 31.2153 22.7642 31.6547L22.6643 32.5225C22.6615 32.6101 22.6532 32.6824 22.6393 32.7394C22.6199 32.7811 22.6088 32.8458 22.606 32.9334C22.6061 33.1239 22.6423 33.3186 22.7147 33.5174C22.787 33.7162 22.8309 33.9081 22.8462 34.0931C22.8671 34.2933 22.8623 34.4942 22.8318 34.6959C22.8013 34.8975 22.7784 35.0964 22.7631 35.2924C22.7479 35.4885 22.7508 35.6867 22.7717 35.8869C22.787 36.0718 22.7947 36.2596 22.7948 36.4501C22.8726 36.2832 22.9636 36.1288 23.0679 35.9869C23.1819 35.8242 23.2854 35.6566 23.3785 35.4841C23.4661 35.2964 23.5432 35.1038 23.6099 34.9063C23.6766 34.7088 23.7641 34.5211 23.8725 34.3431C23.9657 34.1706 24.072 34.0107 24.1915 33.8632C24.3208 33.6949 24.4424 33.5294 24.5564 33.3667C24.6786 32.9411 24.7675 32.5191 24.823 32.1005C24.8535 31.8989 24.8604 31.6798 24.8437 31.4435C24.8422 31.2015 24.8644 30.9769 24.9102 30.7697C24.9408 30.5681 24.997 30.3657 25.079 30.1627C25.1763 29.9541 25.2478 29.7462 25.2937 29.539C25.3548 29.3262 25.3902 29.1141 25.3998 28.9027C25.4248 28.6858 25.4602 28.4737 25.506 28.2665C25.5977 27.8521 25.7179 27.4447 25.8665 27.0441L25.4552 25.5571L25.9304 24.2929L25.7278 23.3794L26.0091 22.3676L25.6103 21.0579L24.8028 20.0527ZM47.7503 24.3532C47.895 24.5604 47.9444 24.7675 47.8986 24.9747C47.8472 25.1667 47.752 25.3572 47.613 25.5463C47.4893 25.7299 47.3399 25.9142 47.1647 26.0992C46.9993 26.2634 46.87 26.4317 46.7769 26.6041C46.1443 27.0076 45.559 27.3505 45.0209 27.6329C44.4926 27.8945 43.9114 28.2013 43.2774 28.5533C43.0897 28.6563 42.8986 28.7259 42.7039 28.7621C42.5189 28.7774 42.3375 28.8261 42.1595 28.9082C42.0525 28.9472 41.9531 28.9834 41.8613 29.0168C41.7639 29.0349 41.6722 29.0683 41.586 29.117C41.2453 29.2756 41.0605 29.4815 41.0313 29.7346C40.9966 29.9724 40.9912 30.2428 41.0149 30.546C41.0483 30.8282 41.0561 31.1112 41.0381 31.3949C41.0298 31.6577 40.8818 31.8934 40.594 32.1021C40.5913 32.1897 40.6239 32.2558 40.6921 32.3002C40.7755 32.3391 40.8409 32.376 40.8882 32.4107C40.656 32.5818 40.5302 32.7835 40.5108 33.0157C40.5067 33.2424 40.5103 33.4663 40.5215 33.6874C40.5327 33.9085 40.5021 34.1101 40.4299 34.2923C40.3729 34.4689 40.1755 34.5927 39.8376 34.6637C39.5472 35.341 39.1364 35.9495 38.6054 36.4892C38.0799 37.0442 37.4898 37.4928 36.8349 37.8351C36.6903 37.8184 36.5401 37.7865 36.3844 37.7393C36.2439 37.6865 36.0986 37.6441 35.9484 37.6122C35.8135 37.5747 35.6689 37.558 35.5145 37.5622C35.381 37.5762 35.2357 37.6291 35.0786 37.7209C34.9464 37.4053 34.7767 37.1293 34.5694 36.893C34.3469 36.6622 34.0993 36.4579 33.8267 36.2799C33.6959 36.0158 33.6423 35.7495 33.6659 35.4811C33.6686 35.203 33.6817 34.9298 33.7052 34.6614C33.7288 34.393 33.7371 34.1302 33.73 33.8729C33.7022 33.6059 33.5867 33.3362 33.3836 33.0637C33.5031 32.9163 33.5636 32.773 33.5649 32.634C33.5815 32.4894 33.5752 32.3531 33.546 32.2252C33.5265 32.0764 33.5202 31.9401 33.5271 31.8163C33.5285 31.6773 33.5993 31.5389 33.7397 31.4012C33.4838 31.0787 33.4017 30.8054 33.4934 30.5815C33.5948 30.3368 33.7352 30.1038 33.9145 29.8827C34.0938 29.6615 34.2523 29.4306 34.3899 29.19C34.5275 28.9494 34.5121 28.6692 34.3437 28.3494C34.4021 28.2243 34.4813 28.1088 34.5814 28.0031C34.6815 27.8974 34.7767 27.8021 34.8671 27.7173C34.9672 27.6116 35.0596 27.5086 35.1444 27.4085C35.2292 27.3084 35.298 27.1881 35.3508 27.0476C35.2159 27.0101 35.1346 26.9531 35.1067 26.8766C35.0942 26.7946 35.0893 26.7098 35.092 26.6222C35.0892 26.5193 35.0864 26.4164 35.0836 26.3135C35.0961 26.205 35.0627 26.1132 34.9834 26.0382C35.4186 25.949 35.7586 25.7647 36.0032 25.4851C36.2576 25.1847 36.489 24.8926 36.6975 24.6089C36.9213 24.3196 37.1646 24.0838 37.4274 23.9015C37.6901 23.7193 38.06 23.6886 38.537 23.8094C38.6066 23.9054 38.7109 24.0493 38.85 24.2411C38.9989 24.4121 39.1428 24.5935 39.2819 24.7854C39.4364 24.9717 39.5803 25.1531 39.7139 25.3297C39.8474 25.5062 39.9385 25.6376 39.9872 25.7238C40.0151 25.8003 40.0596 25.9226 40.1208 26.0909C40.1821 26.2591 40.2489 26.4426 40.3212 26.6415C40.388 26.825 40.4521 27.0009 40.5133 27.1691C40.5745 27.3374 40.6218 27.4674 40.6552 27.5591C41.1934 27.6577 41.6954 27.6569 42.1612 27.5566C42.6215 27.4411 43.026 27.1726 43.3749 26.7511C43.5988 26.8428 43.7761 26.8303 43.9068 26.7134C44.0319 26.5813 44.1466 26.4443 44.2508 26.3024C44.3704 26.155 44.5066 26.0534 44.6596 25.9978C44.807 25.9268 45.0044 25.9935 45.252 26.1978C45.3938 25.9211 45.571 25.718 45.7837 25.5886C45.9909 25.4439 46.2168 25.3271 46.4615 25.238C46.7007 25.1336 46.9294 25.0244 47.1477 24.9103C47.3812 24.7906 47.5821 24.6049 47.7503 24.3532ZM39.0826 27.9497C38.9991 27.7202 38.9483 27.4616 38.9301 27.1738C38.912 26.8859 38.8813 26.6113 38.8381 26.3499C38.7894 26.0732 38.6927 25.8313 38.548 25.6241C38.4186 25.4114 38.1981 25.2578 37.8866 25.1633C37.7518 25.3163 37.6615 25.4964 37.6156 25.7036C37.5642 25.8956 37.5156 26.0951 37.4698 26.3023C37.4184 26.4942 37.3357 26.6716 37.2217 26.8343C37.1231 26.9914 36.9507 27.0888 36.7045 27.1265C36.6949 27.3378 36.7505 27.4908 36.8715 27.5853C36.987 27.6645 37.1177 27.7382 37.2637 27.8063C37.4042 27.8591 37.5398 27.9223 37.6705 27.996C37.8166 28.0641 37.9049 28.1878 37.9356 28.3672C38.0134 28.3908 38.1142 28.406 38.238 28.413C38.3562 28.4046 38.4716 28.3886 38.5842 28.3649C38.7066 28.3204 38.8157 28.2633 38.9117 28.1938C39.0076 28.1242 39.0646 28.0428 39.0826 27.9497ZM39.5901 29.8434C39.2842 29.9548 38.9915 29.9834 38.7119 29.9292C38.4422 29.8542 38.1591 29.7667 37.8629 29.6667C37.582 29.5611 37.2914 29.4763 36.991 29.4124C36.7003 29.3277 36.3812 29.3313 36.0336 29.4232C35.9627 29.6568 35.8662 29.8911 35.7439 30.1262C35.616 30.3459 35.5166 30.5726 35.4458 30.8062C35.3749 31.0399 35.3479 31.2749 35.3646 31.5113C35.3967 31.7421 35.524 31.9729 35.7466 32.2037C35.456 32.4999 35.308 32.8309 35.3026 33.1966C35.2915 33.5471 35.3299 33.9142 35.4176 34.2979C35.5206 34.6761 35.6236 35.0543 35.7267 35.4325C35.8297 35.8107 35.8499 36.1758 35.7875 36.5276L36.1669 35.9998C36.2392 36.0081 36.3018 36.0373 36.3547 36.0873C36.4228 36.1318 36.4555 36.1978 36.4528 36.2854C36.5306 36.1185 36.6348 35.9767 36.7655 35.8598C36.8906 35.7277 37.0241 35.6185 37.1659 35.5322C37.3174 35.4251 37.4641 35.3284 37.6059 35.2422C37.763 35.1503 37.9069 35.046 38.0376 34.9292C38.4979 35.0041 38.7899 34.9498 38.9136 34.7662C39.0373 34.5826 39.1082 34.349 39.1262 34.0653C39.1442 33.7816 39.167 33.4875 39.1947 33.183C39.2169 32.8631 39.3545 32.6225 39.6075 32.4612L39.3885 32.359C39.5316 31.9432 39.6413 31.5309 39.7177 31.122C39.8038 30.6923 39.7612 30.2661 39.5901 29.8434ZM62.2545 22.0879C61.964 22.3842 61.8021 22.6769 61.7688 22.9662C61.7355 23.2554 61.7279 23.544 61.7461 23.8318C61.7796 24.1141 61.7873 24.397 61.7693 24.6807C61.761 24.9435 61.6241 25.2099 61.3586 25.4797C61.3823 25.7829 61.299 26.0297 61.1085 26.2203C60.9334 26.4053 60.7401 26.5882 60.5288 26.769C60.312 26.9345 60.1292 27.1223 59.9804 27.3323C59.847 27.5368 59.8415 27.8073 59.964 28.1437C59.7193 28.4233 59.4385 28.6987 59.1215 28.97C58.8199 29.2357 58.4813 29.4715 58.106 29.6774C57.7514 29.893 57.3802 30.0628 56.9923 30.1866C56.6043 30.3105 56.2171 30.3649 55.8305 30.3497C55.5621 30.3261 55.2903 30.2692 55.0149 30.1789C54.9162 30.1455 54.8202 30.1198 54.727 30.1018C54.6547 30.0935 54.5664 30.065 54.4621 30.0164C54.2118 29.8996 53.9809 29.7412 53.7695 29.541C53.558 29.3408 53.364 29.117 53.1873 28.8695C53.0106 28.6221 52.8493 28.369 52.7032 28.1104C52.5571 27.8518 52.4242 27.6057 52.3046 27.3722L52.3184 24.769C51.7468 24.5787 51.2399 24.3042 50.7976 23.9456C50.3497 23.5716 49.8546 23.2582 49.3122 23.0053C49.2747 23.1402 49.2087 23.2681 49.1142 23.3892C49.0196 23.5102 49.0183 23.6492 49.1101 23.8063L49.4147 23.9293C49.1104 24.6636 48.8262 25.4772 48.5623 26.37C48.3081 27.2419 48.1637 28.0826 48.1292 28.8919C47.7871 28.999 47.5807 29.1695 47.5098 29.4031C47.4334 29.6214 47.3911 29.862 47.3828 30.1248C47.369 30.3723 47.3266 30.6129 47.2558 30.8466C47.1849 31.0802 46.9834 31.2402 46.651 31.3265C46.6358 31.5226 46.6261 31.7339 46.622 31.9606C46.6124 32.1719 46.5846 32.3812 46.5388 32.5884C46.4929 32.7956 46.413 32.9806 46.2991 33.1433C46.1907 33.3214 46.0217 33.4521 45.7923 33.5356C45.6254 33.4578 45.5093 33.3529 45.4439 33.2208C45.3785 33.0887 45.3437 32.9455 45.3395 32.7911C45.3297 32.6215 45.338 32.4539 45.3644 32.2884C45.3852 32.1076 45.3858 31.9429 45.3663 31.7941C45.3272 31.306 45.4043 30.8276 45.5974 30.359C45.785 29.875 45.9754 29.3987 46.1685 28.93C46.3561 28.446 46.4922 27.9635 46.5769 27.4823C46.6616 27.0011 46.5836 26.5013 46.3428 25.9827C46.5361 25.895 46.721 25.7844 46.8976 25.6508C47.0839 25.4964 47.2416 25.3351 47.3709 25.1668C47.5099 24.9776 47.5947 24.7822 47.6252 24.5806C47.6655 24.3581 47.6258 24.1301 47.5061 23.8965C47.3615 23.8798 47.2621 23.8208 47.2078 23.7193C47.148 23.6025 47.1034 23.4801 47.0742 23.3522C47.3717 23.1227 47.5726 22.8417 47.6768 22.5094C47.7907 22.1561 47.8761 21.7959 47.933 21.4288C47.9899 21.0617 48.0392 20.6974 48.0808 20.3358C48.1321 19.9534 48.246 19.6001 48.4225 19.2761C48.6812 19.3205 48.9343 19.3496 49.1818 19.3635C49.4238 19.362 49.6692 19.3939 49.9181 19.4592C49.8473 19.6928 49.8272 19.8993 49.8578 20.0787C49.8885 20.2581 49.9372 20.4395 50.004 20.6231C50.0652 20.7913 50.1265 20.9596 50.1877 21.1278C50.2489 21.296 50.2671 21.4886 50.2421 21.7056C50.5647 21.8306 50.8631 22.0078 51.1371 22.2372C51.4111 22.4665 51.7143 22.6333 52.0466 22.7375C52.1801 22.5331 52.3615 22.3891 52.5909 22.3056C52.8148 22.2068 53.0442 22.1233 53.2792 22.0551C53.5239 21.966 53.7477 21.8672 53.9507 21.7587C54.1481 21.6349 54.2767 21.4409 54.3364 21.1766C54.4199 21.2155 54.5228 21.2127 54.6451 21.1682C54.7675 21.1237 54.8898 21.0791 55.0122 21.0346C55.1346 20.9901 55.25 20.974 55.3584 20.9865C55.4613 20.9837 55.5399 21.033 55.5942 21.1345C55.654 21.2513 55.677 21.3382 55.6631 21.3952C55.6645 21.4467 55.6694 21.5315 55.6778 21.6497C55.6917 21.7832 55.7063 21.8472 55.7216 21.8416C55.7369 21.836 55.7411 21.8951 55.7342 22.0189C55.7301 22.2456 55.6613 22.4611 55.5279 22.6656C55.4097 22.8644 55.284 23.0661 55.1505 23.2706C55.0268 23.4542 54.9191 23.6579 54.8274 23.8818C54.7454 24.0849 54.749 24.3087 54.838 24.5534C54.5461 24.7983 54.3758 25.0681 54.3272 25.3629C54.2731 25.6424 54.2787 25.9435 54.3442 26.2661C54.4041 26.5734 54.4848 26.8904 54.5864 27.2171C54.6825 27.5286 54.7319 27.831 54.7348 28.1244L55.0248 28.2787L55.1248 27.9825C55.4503 28.2104 55.7722 28.3098 56.0906 28.2805C56.4244 28.2456 56.7462 28.1544 57.0563 28.0069C57.1257 27.7218 57.2348 27.4743 57.3835 27.2643C57.5476 27.0487 57.7276 26.8533 57.9236 26.678C58.1349 26.4972 58.349 26.324 58.5659 26.1584C58.7981 25.9873 59.0094 25.8065 59.1998 25.6159C59.35 25.4574 59.4667 25.3023 59.5501 25.1507C59.6488 24.9935 59.7496 24.8183 59.8524 24.625C60.1554 24.0297 60.4535 23.4449 60.7467 22.8705C61.0552 22.2906 61.361 21.703 61.6639 21.1077C61.7557 21.0743 61.8336 21.0979 61.8976 21.1786C61.9616 21.2592 62.0158 21.3607 62.0604 21.4831C62.0993 21.5901 62.1334 21.7076 62.1627 21.8355C62.2016 21.9426 62.2323 22.0267 62.2545 22.0879Z" fill="white"/>
</g>
</svg>
