<svg width="50" height="84" viewBox="0 0 50 84" fill="none" xmlns="http://www.w3.org/2000/svg">
<path d="M21.3267 76H20.392C20.3224 75.652 20.1965 75.3305 20.0142 75.0355C19.8352 74.7372 19.6098 74.477 19.3381 74.255C19.0663 74.0329 18.758 73.8606 18.4134 73.7379C18.0687 73.6153 17.6958 73.554 17.2947 73.554C16.6518 73.554 16.0651 73.7214 15.5348 74.0561C15.0078 74.3909 14.5852 74.883 14.267 75.5327C13.9522 76.179 13.7947 76.9711 13.7947 77.9091C13.7947 78.8537 13.9522 79.6491 14.267 80.2955C14.5852 80.9418 15.0078 81.4323 15.5348 81.767C16.0651 82.0985 16.6518 82.2642 17.2947 82.2642C17.6958 82.2642 18.0687 82.2029 18.4134 82.0803C18.758 81.9576 19.0663 81.7869 19.3381 81.5682C19.6098 81.3461 19.8352 81.0859 20.0142 80.7876C20.1965 80.4893 20.3224 80.1662 20.392 79.8182H21.3267C21.2438 80.2855 21.0881 80.7214 20.8594 81.1257C20.634 81.5268 20.3456 81.8781 19.9943 82.1797C19.6463 82.4813 19.2453 82.7166 18.7912 82.8857C18.3371 83.0547 17.8383 83.1392 17.2947 83.1392C16.4396 83.1392 15.6806 82.9254 15.0178 82.4979C14.3549 82.067 13.8345 81.4605 13.4567 80.6783C13.0821 79.8961 12.8949 78.973 12.8949 77.9091C12.8949 76.8452 13.0821 75.9221 13.4567 75.1399C13.8345 74.3577 14.3549 73.7528 15.0178 73.3253C15.6806 72.8944 16.4396 72.679 17.2947 72.679C17.8383 72.679 18.3371 72.7635 18.7912 72.9325C19.2453 73.0982 19.6463 73.3336 19.9943 73.6385C20.3456 73.9401 20.634 74.2914 20.8594 74.6925C21.0881 75.0935 21.2438 75.5294 21.3267 76ZM28.4572 77.0391L27.6468 77.2678C27.5673 77.0391 27.4546 76.8319 27.3088 76.6463C27.1629 76.4607 26.9724 76.3132 26.737 76.2038C26.505 76.0945 26.2167 76.0398 25.872 76.0398C25.3549 76.0398 24.9307 76.1624 24.5993 76.4077C24.2678 76.6529 24.1021 76.9695 24.1021 77.3572C24.1021 77.6854 24.2148 77.9522 24.4402 78.1577C24.6689 78.3598 25.0202 78.5206 25.4941 78.6399L26.6475 78.9233C27.2872 79.0791 27.7662 79.326 28.0843 79.6641C28.4058 80.0021 28.5666 80.4264 28.5666 80.9368C28.5666 81.3677 28.4473 81.7505 28.2086 82.0852C27.97 82.42 27.6369 82.6835 27.2093 82.8757C26.7851 83.0646 26.2929 83.1591 25.7328 83.1591C24.987 83.1591 24.3722 82.9917 23.8883 82.657C23.4044 82.3189 23.0945 81.8317 22.9586 81.1953L23.8088 80.9865C23.9181 81.4406 24.1319 81.7836 24.4501 82.0156C24.7716 82.2476 25.1942 82.3636 25.7179 82.3636C26.3045 82.3636 26.7735 82.2327 27.1248 81.9709C27.4761 81.7057 27.6518 81.3743 27.6518 80.9766C27.6518 80.6683 27.5491 80.4098 27.3436 80.201C27.1381 79.9889 26.8265 79.8331 26.4089 79.7337L25.161 79.4354C24.4982 79.2763 24.0076 79.0244 23.6895 78.6797C23.3713 78.335 23.2122 77.9074 23.2122 77.397C23.2122 76.9761 23.3265 76.6065 23.5552 76.2884C23.7839 75.9669 24.0988 75.715 24.4998 75.5327C24.9009 75.3504 25.3583 75.2592 25.872 75.2592C26.5713 75.2592 27.1298 75.4183 27.5474 75.7365C27.9683 76.0514 28.2716 76.4856 28.4572 77.0391ZM35.6349 77.0391L34.8246 77.2678C34.745 77.0391 34.6323 76.8319 34.4865 76.6463C34.3407 76.4607 34.1501 76.3132 33.9148 76.2038C33.6828 76.0945 33.3944 76.0398 33.0497 76.0398C32.5327 76.0398 32.1084 76.1624 31.777 76.4077C31.4455 76.6529 31.2798 76.9695 31.2798 77.3572C31.2798 77.6854 31.3925 77.9522 31.6179 78.1577C31.8466 78.3598 32.1979 78.5206 32.6719 78.6399L33.8253 78.9233C34.465 79.0791 34.9439 79.326 35.2621 79.6641C35.5836 80.0021 35.7443 80.4264 35.7443 80.9368C35.7443 81.3677 35.625 81.7505 35.3864 82.0852C35.1477 82.42 34.8146 82.6835 34.3871 82.8757C33.9628 83.0646 33.4706 83.1591 32.9105 83.1591C32.1648 83.1591 31.55 82.9917 31.0661 82.657C30.5821 82.3189 30.2723 81.8317 30.1364 81.1953L30.9865 80.9865C31.0959 81.4406 31.3097 81.7836 31.6278 82.0156C31.9493 82.2476 32.3719 82.3636 32.8956 82.3636C33.4822 82.3636 33.9512 82.2327 34.3026 81.9709C34.6539 81.7057 34.8295 81.3743 34.8295 80.9766C34.8295 80.6683 34.7268 80.4098 34.5213 80.201C34.3158 79.9889 34.0043 79.8331 33.5866 79.7337L32.3388 79.4354C31.6759 79.2763 31.1854 79.0244 30.8672 78.6797C30.549 78.335 30.3899 77.9074 30.3899 77.397C30.3899 76.9761 30.5043 76.6065 30.733 76.2884C30.9616 75.9669 31.2765 75.715 31.6776 75.5327C32.0786 75.3504 32.536 75.2592 33.0497 75.2592C33.7491 75.2592 34.3075 75.4183 34.7251 75.7365C35.1461 76.0514 35.4493 76.4856 35.6349 77.0391Z" fill="black"/>
<circle cx="25" cy="25" r="25" fill="#DE0756"/>
<path d="M12.2081 11.8745C11.0255 11.8745 10.1012 12.895 10.2178 14.0718L12.5933 38.0351C12.6767 38.8759 13.2794 39.5736 14.0992 39.7782L24.5157 42.3786C24.8337 42.458 25.1663 42.458 25.4843 42.3786L35.8963 39.7802C36.716 39.5756 37.3188 38.878 37.4023 38.0373L39.7818 14.0721C39.8986 12.8952 38.9743 11.8745 37.7916 11.8745H12.2081Z" stroke="white" stroke-width="3" stroke-miterlimit="10" stroke-linecap="round" stroke-linejoin="round"/>
<path d="M16.9231 17.9998H30.9206C32.0843 17.9998 33.0024 18.9895 32.9149 20.15L32.0269 31.9349C31.9644 32.7639 31.3956 33.4678 30.5983 33.703L25.5657 35.1871C25.1965 35.296 24.8036 35.296 24.4343 35.1871L19.5112 33.7352C18.6607 33.4844 18.0769 32.7036 18.0769 31.8169V31.2706M32.4539 26.1664H17.2" stroke="white" stroke-width="3" stroke-miterlimit="10" stroke-linecap="round" stroke-linejoin="round"/>
</svg>
