<svg width="50" height="85" viewBox="0 0 50 85" fill="none" xmlns="http://www.w3.org/2000/svg">
<path d="M7.35227 84V73.8182H10.6385C11.361 73.8182 11.9643 73.9491 12.4482 74.2109C12.9354 74.4695 13.3016 74.8291 13.5469 75.2898C13.7955 75.7472 13.9197 76.2725 13.9197 76.8658C13.9197 77.459 13.7955 77.9827 13.5469 78.4368C13.3016 78.8909 12.937 79.2455 12.4531 79.5007C11.9692 79.7559 11.3693 79.8835 10.6534 79.8835H7.8544V79.0334H10.6286C11.1589 79.0334 11.5997 78.9455 11.951 78.7699C12.3056 78.5942 12.5691 78.344 12.7415 78.0192C12.9171 77.6944 13.005 77.3099 13.005 76.8658C13.005 76.4216 12.9171 76.0339 12.7415 75.7024C12.5658 75.3677 12.3007 75.1091 11.946 74.9268C11.5947 74.7446 11.1506 74.6534 10.6136 74.6534H8.28196V84H7.35227ZM11.8416 79.4062L14.3473 84H13.2734L10.7926 79.4062H11.8416ZM19.0057 84.1591C18.2931 84.1591 17.6766 83.9934 17.1562 83.6619C16.6359 83.3272 16.2332 82.8648 15.9482 82.2749C15.6664 81.6816 15.5256 80.9988 15.5256 80.2266C15.5256 79.4576 15.6664 78.7749 15.9482 78.1783C16.2332 77.5784 16.6259 77.1094 17.1264 76.7713C17.6302 76.4299 18.2119 76.2592 18.8714 76.2592C19.2857 76.2592 19.6851 76.3355 20.0696 76.4879C20.4541 76.6371 20.7988 76.8674 21.1037 77.179C21.4119 77.4872 21.6555 77.8767 21.8345 78.3473C22.0135 78.8146 22.103 79.3681 22.103 80.0078V80.4453H16.1371V79.6648H21.1982C21.1982 79.1742 21.0987 78.7334 20.8999 78.3423C20.7043 77.9479 20.4309 77.6364 20.0795 77.4077C19.7315 77.179 19.3288 77.0646 18.8714 77.0646C18.3875 77.0646 17.9616 77.1939 17.5938 77.4524C17.2259 77.7109 16.9375 78.0523 16.7287 78.4766C16.5232 78.9008 16.4188 79.3648 16.4155 79.8686V80.3359C16.4155 80.9425 16.5199 81.4728 16.7287 81.9268C16.9408 82.3776 17.2408 82.7273 17.6286 82.9759C18.0163 83.2244 18.4754 83.3487 19.0057 83.3487C19.367 83.3487 19.6835 83.2924 19.9553 83.1797C20.2304 83.067 20.4607 82.9162 20.6463 82.7273C20.8352 82.535 20.9777 82.3246 21.0739 82.0959L21.9141 82.3693C21.7981 82.6908 21.6075 82.9875 21.3423 83.2592C21.0805 83.531 20.7524 83.7498 20.358 83.9155C19.9669 84.0779 19.5161 84.1591 19.0057 84.1591ZM26.1859 84.174C25.7252 84.174 25.3043 84.0845 24.9231 83.9055C24.542 83.7232 24.2387 83.4614 24.0133 83.12C23.7879 82.7753 23.6752 82.3577 23.6752 81.8672C23.6752 81.4893 23.7465 81.1712 23.889 80.9126C24.0315 80.6541 24.2337 80.442 24.4956 80.2763C24.7574 80.1106 25.0673 79.9796 25.4252 79.8835C25.7832 79.7874 26.1776 79.7128 26.6085 79.6598C27.036 79.6068 27.3973 79.5604 27.6923 79.5206C27.9906 79.4808 28.2176 79.4179 28.3734 79.3317C28.5292 79.2455 28.6071 79.1063 28.6071 78.9141V78.7351C28.6071 78.2147 28.4513 77.8054 28.1397 77.5071C27.8315 77.2055 27.3874 77.0547 26.8074 77.0547C26.2572 77.0547 25.8081 77.1757 25.46 77.4176C25.1154 77.6596 24.8734 77.9446 24.7342 78.2727L23.894 77.9695C24.0663 77.5518 24.305 77.2187 24.6099 76.9702C24.9148 76.7183 25.2562 76.5376 25.6341 76.4283C26.0119 76.3156 26.3947 76.2592 26.7825 76.2592C27.0742 76.2592 27.3774 76.2973 27.6923 76.3736C28.0105 76.4498 28.3055 76.5824 28.5772 76.7713C28.849 76.9569 29.0694 77.2171 29.2385 77.5518C29.4075 77.8833 29.492 78.3042 29.492 78.8146V84H28.6071V82.7919H28.5524C28.4463 83.0173 28.2889 83.236 28.0801 83.4482C27.8713 83.6603 27.6094 83.8343 27.2946 83.9702C26.9797 84.1061 26.6101 84.174 26.1859 84.174ZM26.3052 83.3636C26.7759 83.3636 27.1835 83.2592 27.5282 83.0504C27.8729 82.8416 28.1381 82.5649 28.3237 82.2202C28.5126 81.8722 28.6071 81.4893 28.6071 81.0717V79.968C28.5408 80.031 28.4297 80.0874 28.274 80.1371C28.1215 80.1868 27.9442 80.2315 27.742 80.2713C27.5431 80.3078 27.3443 80.3393 27.1454 80.3658C26.9466 80.3923 26.7676 80.4155 26.6085 80.4354C26.1776 80.4884 25.8097 80.5713 25.5048 80.6839C25.1999 80.7966 24.9662 80.9524 24.8038 81.1513C24.6414 81.3468 24.5602 81.5987 24.5602 81.907C24.5602 82.371 24.7259 82.7306 25.0574 82.9858C25.3888 83.2377 25.8047 83.3636 26.3052 83.3636ZM34.829 84.1591C34.1462 84.1591 33.5513 83.9884 33.0442 83.647C32.5404 83.3056 32.1493 82.8383 31.8709 82.245C31.5925 81.6518 31.4533 80.9756 31.4533 80.2166C31.4533 79.451 31.5942 78.7699 31.8759 78.1733C32.1609 77.5767 32.5553 77.1094 33.0591 76.7713C33.5629 76.4299 34.1479 76.2592 34.8141 76.2592C35.3245 76.2592 35.7869 76.3587 36.2012 76.5575C36.6155 76.7531 36.9569 77.0298 37.2253 77.3878C37.4971 77.7424 37.6678 78.1567 37.7374 78.6307H36.8425C36.7497 78.1998 36.526 77.8319 36.1713 77.527C35.82 77.2187 35.3726 77.0646 34.829 77.0646C34.3418 77.0646 33.9109 77.1972 33.5364 77.4624C33.1619 77.7242 32.8685 78.0904 32.6564 78.5611C32.4476 79.0284 32.3432 79.5703 32.3432 80.1868C32.3432 80.8066 32.446 81.3551 32.6515 81.8324C32.8569 82.3063 33.1453 82.6776 33.5165 82.946C33.891 83.2145 34.3285 83.3487 34.829 83.3487C35.1671 83.3487 35.4753 83.2857 35.7537 83.1598C36.0355 83.0305 36.2708 82.8482 36.4597 82.6129C36.6519 82.3776 36.7812 82.0975 36.8475 81.7727H37.7424C37.6761 82.2334 37.512 82.6444 37.2502 83.0057C36.9917 83.3636 36.6552 83.6454 36.2409 83.8509C35.83 84.0563 35.3593 84.1591 34.829 84.1591ZM42.6468 76.3636V77.1342H39.0027V76.3636H42.6468ZM40.1412 74.5341H41.0311V82.0064C41.0311 82.3246 41.0858 82.5748 41.1951 82.7571C41.3045 82.9361 41.447 83.0637 41.6227 83.1399C41.7984 83.2128 41.9856 83.2493 42.1845 83.2493C42.3005 83.2493 42.3999 83.2427 42.4828 83.2294C42.5656 83.2128 42.6386 83.1963 42.7015 83.1797L42.8904 83.9801C42.8043 84.0133 42.6982 84.0431 42.5723 84.0696C42.4463 84.0994 42.2905 84.1143 42.1049 84.1143C41.7801 84.1143 41.4669 84.0431 41.1653 83.9006C40.867 83.758 40.6217 83.5459 40.4295 83.2642C40.2373 82.9825 40.1412 82.6328 40.1412 82.2152V74.5341Z" fill="black"/>
<circle cx="25" cy="25" r="25" fill="#DE0756"/>
<mask id="path-3-inside-1_84_116" fill="white">
<path d="M25.0001 28.4729C24.2633 28.4729 23.5567 28.1801 23.0357 27.6588C22.5148 27.1376 22.2221 26.4307 22.2221 25.6936C22.2221 24.9565 22.5148 24.2495 23.0357 23.7283C23.5567 23.2071 24.2633 22.9143 25.0001 22.9143C25.7369 22.9143 26.4435 23.2071 26.9645 23.7283C27.4855 24.2495 27.7782 24.9565 27.7782 25.6936C27.7782 26.4307 27.4855 27.1376 26.9645 27.6588C26.4435 28.1801 25.7369 28.4729 25.0001 28.4729ZM24.0222 34.0204C24.3463 34.4113 24.6705 34.7874 25.0001 35.1488C25.3279 34.7874 25.6539 34.4113 25.978 34.0204C25.3261 34.0342 24.6741 34.0342 24.0222 34.0204ZM20.3274 33.7888C18.9052 33.6413 17.4924 33.4142 16.0956 33.1088C15.9608 33.7303 15.8557 34.3579 15.7807 34.9894C15.4288 37.9225 15.9196 39.705 16.666 40.1348C17.4123 40.5665 19.1996 40.0996 21.5646 38.3301C22.0517 37.9651 22.5425 37.5593 23.0351 37.1165C22.0711 36.0588 21.1671 34.9478 20.3274 33.7888ZM33.9047 33.1088C32.5078 33.4142 31.095 33.6413 29.6728 33.7888C28.8331 34.9478 27.9291 36.0588 26.9651 37.1165C27.4578 37.5612 27.9485 37.9651 28.4356 38.3301C30.8007 40.0996 32.5879 40.5665 33.3342 40.1348C34.0806 39.705 34.5695 37.9225 34.2214 34.9894C34.1448 34.3581 34.0379 33.7306 33.9047 33.1088ZM36.592 32.3898C37.6606 37.2796 37.0994 41.1724 34.7251 42.5435C32.3508 43.9147 28.7005 42.4546 25.002 39.0842C21.3035 42.4546 17.6531 43.9128 15.2788 42.5417C12.9045 41.1706 12.3433 37.2796 13.4101 32.388C8.643 30.8686 5.55566 28.4358 5.55566 25.6936C5.55566 22.9513 8.643 20.5185 13.4101 18.9992C12.3433 14.1076 12.9045 10.2166 15.2788 8.84548C17.6531 7.47436 21.3035 8.93256 25.002 12.3029C28.7005 8.93256 32.3508 7.47436 34.7251 8.84548C37.0994 10.2166 37.6606 14.1076 36.5938 18.9992C41.3572 20.5185 44.4446 22.9513 44.4446 25.6936C44.4446 28.4358 41.3572 30.8705 36.592 32.3898ZM23.0333 14.2707C22.5425 13.8278 22.0517 13.4221 21.5646 13.057C19.1996 11.2876 17.4123 10.8206 16.666 11.2524C15.9196 11.6822 15.4307 13.4647 15.7789 16.3996C15.8529 17.0036 15.9567 17.6318 16.0937 18.2803C17.4911 17.974 18.9046 17.7464 20.3274 17.5984C21.2072 16.3885 22.1128 15.2749 23.0333 14.2707ZM29.6746 17.5984C31.0969 17.7463 32.5098 17.9739 33.9065 18.2803C34.0454 17.6318 34.151 17.0018 34.2214 16.3996C34.5732 13.4647 34.0825 11.6822 33.3361 11.2524C32.5897 10.8206 30.8025 11.2876 28.4375 13.057C27.9504 13.4221 27.4596 13.8278 26.967 14.2707C27.8874 15.2749 28.7949 16.3885 29.6746 17.5984ZM25.9798 17.3668C25.6557 16.9777 25.3298 16.5997 25.002 16.2384C24.6742 16.5997 24.3482 16.9759 24.0241 17.3668C24.6759 17.353 25.328 17.353 25.9798 17.3668ZM18.2828 30.7037C17.9449 30.1462 17.6189 29.5816 17.3049 29.0102C17.129 29.4864 16.966 29.9552 16.8178 30.4221C17.2938 30.524 17.7846 30.6185 18.2828 30.7037ZM21.8591 31.1373C23.9502 31.2926 26.05 31.2926 28.1411 31.1373C29.3209 29.4027 30.3708 27.5832 31.2822 25.6936C30.3714 23.8037 29.3215 21.9841 28.1411 20.2499C26.05 20.0945 23.9502 20.0945 21.8591 20.2499C20.679 21.9843 19.6291 23.8038 18.718 25.6936C19.6292 27.5833 20.6791 29.4028 21.8591 31.1373ZM32.6971 22.377C32.8731 21.9008 33.0361 21.432 33.1842 20.9669C32.6987 20.8615 32.2109 20.767 31.7211 20.6834C32.0583 21.241 32.3837 21.8057 32.6971 22.377ZM14.1287 21.6858C13.499 21.8897 12.9027 22.112 12.3433 22.3529C9.63013 23.5165 8.33185 24.832 8.33185 25.6936C8.33185 26.5552 9.62827 27.8707 12.3433 29.0343C12.9027 29.2752 13.499 29.4975 14.1287 29.7013C14.5399 28.4043 15.0492 27.0591 15.6566 25.6936C15.0729 24.3873 14.5628 23.0492 14.1287 21.6858ZM16.8141 20.9669C16.9642 21.4301 17.1271 21.9008 17.3031 22.3751C17.6171 21.8044 17.9431 21.2404 18.281 20.6834C17.7809 20.7687 17.2901 20.8632 16.8141 20.9669ZM35.8734 29.7013C36.5031 29.4975 37.0994 29.2752 37.6587 29.0343C40.3701 27.8707 41.6665 26.5552 41.6665 25.6936C41.6665 24.832 40.3701 23.5165 37.655 22.3529C37.0957 22.112 36.4975 21.8897 35.8678 21.6858C35.4604 22.9828 34.9492 24.328 34.3417 25.6936C34.9492 27.0591 35.4585 28.4043 35.8697 29.7013M33.1842 30.4221C33.0311 29.9481 32.8681 29.4774 32.6953 29.0102C32.3812 29.5815 32.0552 30.1461 31.7174 30.7037C32.2175 30.6185 32.7083 30.524 33.1842 30.4221Z"/>
</mask>
<path d="M25.0001 28.4729C24.2633 28.4729 23.5567 28.1801 23.0357 27.6588C22.5148 27.1376 22.2221 26.4307 22.2221 25.6936C22.2221 24.9565 22.5148 24.2495 23.0357 23.7283C23.5567 23.2071 24.2633 22.9143 25.0001 22.9143C25.7369 22.9143 26.4435 23.2071 26.9645 23.7283C27.4855 24.2495 27.7782 24.9565 27.7782 25.6936C27.7782 26.4307 27.4855 27.1376 26.9645 27.6588C26.4435 28.1801 25.7369 28.4729 25.0001 28.4729ZM24.0222 34.0204C24.3463 34.4113 24.6705 34.7874 25.0001 35.1488C25.3279 34.7874 25.6539 34.4113 25.978 34.0204C25.3261 34.0342 24.6741 34.0342 24.0222 34.0204ZM20.3274 33.7888C18.9052 33.6413 17.4924 33.4142 16.0956 33.1088C15.9608 33.7303 15.8557 34.3579 15.7807 34.9894C15.4288 37.9225 15.9196 39.705 16.666 40.1348C17.4123 40.5665 19.1996 40.0996 21.5646 38.3301C22.0517 37.9651 22.5425 37.5593 23.0351 37.1165C22.0711 36.0588 21.1671 34.9478 20.3274 33.7888ZM33.9047 33.1088C32.5078 33.4142 31.095 33.6413 29.6728 33.7888C28.8331 34.9478 27.9291 36.0588 26.9651 37.1165C27.4578 37.5612 27.9485 37.9651 28.4356 38.3301C30.8007 40.0996 32.5879 40.5665 33.3342 40.1348C34.0806 39.705 34.5695 37.9225 34.2214 34.9894C34.1448 34.3581 34.0379 33.7306 33.9047 33.1088ZM36.592 32.3898C37.6606 37.2796 37.0994 41.1724 34.7251 42.5435C32.3508 43.9147 28.7005 42.4546 25.002 39.0842C21.3035 42.4546 17.6531 43.9128 15.2788 42.5417C12.9045 41.1706 12.3433 37.2796 13.4101 32.388C8.643 30.8686 5.55566 28.4358 5.55566 25.6936C5.55566 22.9513 8.643 20.5185 13.4101 18.9992C12.3433 14.1076 12.9045 10.2166 15.2788 8.84548C17.6531 7.47436 21.3035 8.93256 25.002 12.3029C28.7005 8.93256 32.3508 7.47436 34.7251 8.84548C37.0994 10.2166 37.6606 14.1076 36.5938 18.9992C41.3572 20.5185 44.4446 22.9513 44.4446 25.6936C44.4446 28.4358 41.3572 30.8705 36.592 32.3898ZM23.0333 14.2707C22.5425 13.8278 22.0517 13.4221 21.5646 13.057C19.1996 11.2876 17.4123 10.8206 16.666 11.2524C15.9196 11.6822 15.4307 13.4647 15.7789 16.3996C15.8529 17.0036 15.9567 17.6318 16.0937 18.2803C17.4911 17.974 18.9046 17.7464 20.3274 17.5984C21.2072 16.3885 22.1128 15.2749 23.0333 14.2707ZM29.6746 17.5984C31.0969 17.7463 32.5098 17.9739 33.9065 18.2803C34.0454 17.6318 34.151 17.0018 34.2214 16.3996C34.5732 13.4647 34.0825 11.6822 33.3361 11.2524C32.5897 10.8206 30.8025 11.2876 28.4375 13.057C27.9504 13.4221 27.4596 13.8278 26.967 14.2707C27.8874 15.2749 28.7949 16.3885 29.6746 17.5984ZM25.9798 17.3668C25.6557 16.9777 25.3298 16.5997 25.002 16.2384C24.6742 16.5997 24.3482 16.9759 24.0241 17.3668C24.6759 17.353 25.328 17.353 25.9798 17.3668ZM18.2828 30.7037C17.9449 30.1462 17.6189 29.5816 17.3049 29.0102C17.129 29.4864 16.966 29.9552 16.8178 30.4221C17.2938 30.524 17.7846 30.6185 18.2828 30.7037ZM21.8591 31.1373C23.9502 31.2926 26.05 31.2926 28.1411 31.1373C29.3209 29.4027 30.3708 27.5832 31.2822 25.6936C30.3714 23.8037 29.3215 21.9841 28.1411 20.2499C26.05 20.0945 23.9502 20.0945 21.8591 20.2499C20.679 21.9843 19.6291 23.8038 18.718 25.6936C19.6292 27.5833 20.6791 29.4028 21.8591 31.1373ZM32.6971 22.377C32.8731 21.9008 33.0361 21.432 33.1842 20.9669C32.6987 20.8615 32.2109 20.767 31.7211 20.6834C32.0583 21.241 32.3837 21.8057 32.6971 22.377ZM14.1287 21.6858C13.499 21.8897 12.9027 22.112 12.3433 22.3529C9.63013 23.5165 8.33185 24.832 8.33185 25.6936C8.33185 26.5552 9.62827 27.8707 12.3433 29.0343C12.9027 29.2752 13.499 29.4975 14.1287 29.7013C14.5399 28.4043 15.0492 27.0591 15.6566 25.6936C15.0729 24.3873 14.5628 23.0492 14.1287 21.6858ZM16.8141 20.9669C16.9642 21.4301 17.1271 21.9008 17.3031 22.3751C17.6171 21.8044 17.9431 21.2404 18.281 20.6834C17.7809 20.7687 17.2901 20.8632 16.8141 20.9669ZM35.8734 29.7013C36.5031 29.4975 37.0994 29.2752 37.6587 29.0343C40.3701 27.8707 41.6665 26.5552 41.6665 25.6936C41.6665 24.832 40.3701 23.5165 37.655 22.3529C37.0957 22.112 36.4975 21.8897 35.8678 21.6858C35.4604 22.9828 34.9492 24.328 34.3417 25.6936C34.9492 27.0591 35.4585 28.4043 35.8697 29.7013M33.1842 30.4221C33.0311 29.9481 32.8681 29.4774 32.6953 29.0102C32.3812 29.5815 32.0552 30.1461 31.7174 30.7037C32.2175 30.6185 32.7083 30.524 33.1842 30.4221Z" fill="white"/>
<path d="M25.0001 28.4729L25.0001 29.4729L25.0001 28.4729ZM22.2221 25.6936L21.2221 25.6936L22.2221 25.6936ZM25.0001 22.9143L25.0001 21.9143L25.0001 22.9143ZM27.7782 25.6936L28.7782 25.6936L27.7782 25.6936ZM24.0222 34.0204L24.0434 33.0206L21.856 32.9742L23.2524 34.6586L24.0222 34.0204ZM25.0001 35.1488L24.2614 35.8228L25.0022 36.6347L25.7407 35.8207L25.0001 35.1488ZM25.978 34.0204L26.7478 34.6586L28.1442 32.9742L25.9568 33.0206L25.978 34.0204ZM20.3274 33.7888L21.1373 33.2021L20.8751 32.8402L20.4306 32.7941L20.3274 33.7888ZM16.0956 33.1088L16.3092 32.1318L15.3305 31.9178L15.1183 32.8969L16.0956 33.1088ZM15.7807 34.9894L16.7736 35.1085L16.7737 35.1074L15.7807 34.9894ZM16.666 40.1348L17.1667 39.2692L17.1651 39.2683L16.666 40.1348ZM21.5646 38.3301L22.1637 39.1308L22.1643 39.1304L21.5646 38.3301ZM23.0351 37.1165L23.7036 37.8602L24.4524 37.1871L23.7742 36.4429L23.0351 37.1165ZM33.9047 33.1088L34.8825 32.8992L34.672 31.9173L33.691 32.1318L33.9047 33.1088ZM29.6728 33.7888L29.5696 32.7941L29.1251 32.8402L28.863 33.2021L29.6728 33.7888ZM26.9651 37.1165L26.226 36.4429L25.5492 37.1855L26.2951 37.8588L26.9651 37.1165ZM28.4356 38.3301L27.8359 39.1304L27.8366 39.1308L28.4356 38.3301ZM33.3342 40.1348L32.8352 39.2683L32.8335 39.2692L33.3342 40.1348ZM34.2214 34.9894L35.2144 34.8715L35.2141 34.8691L34.2214 34.9894ZM36.592 32.3898L36.2882 31.4371L35.4206 31.7137L35.615 32.6033L36.592 32.3898ZM25.002 39.0842L25.6755 38.3451L25.002 37.7313L24.3284 38.3451L25.002 39.0842ZM13.4101 32.388L14.3872 32.6011L14.5811 31.7116L13.7138 31.4352L13.4101 32.388ZM13.4101 18.9992L13.7138 19.952L14.5811 19.6755L14.3872 18.7861L13.4101 18.9992ZM25.002 12.3029L24.3284 13.0421L25.002 13.6559L25.6755 13.0421L25.002 12.3029ZM36.5938 18.9992L35.6168 18.7861L35.4228 19.6753L36.2899 19.9519L36.5938 18.9992ZM23.0333 14.2707L23.7705 14.9464L24.4514 14.2034L23.7032 13.5282L23.0333 14.2707ZM21.5646 13.057L22.1643 12.2568L22.1637 12.2563L21.5646 13.057ZM16.666 11.2524L17.1651 12.1189L17.1667 12.118L16.666 11.2524ZM15.7789 16.3996L14.7858 16.5174L14.7863 16.5213L15.7789 16.3996ZM16.0937 18.2803L15.1153 18.487L15.3236 19.4727L16.3078 19.2571L16.0937 18.2803ZM20.3274 17.5984L20.4309 18.5931L20.8742 18.5469L21.1363 18.1865L20.3274 17.5984ZM29.6746 17.5984L28.8658 18.1865L29.1279 18.547L29.5712 18.5931L29.6746 17.5984ZM33.9065 18.2803L33.6923 19.2571L34.6739 19.4723L34.8843 18.4897L33.9065 18.2803ZM34.2214 16.3996L33.2285 16.2806L33.2281 16.2835L34.2214 16.3996ZM33.3361 11.2524L32.8354 12.118L32.837 12.1189L33.3361 11.2524ZM28.4375 13.057L27.8384 12.2563L27.8378 12.2568L28.4375 13.057ZM26.967 14.2707L26.2984 13.527L25.5475 14.202L26.2298 14.9464L26.967 14.2707ZM25.9798 17.3668L25.9586 18.3666L28.1529 18.4132L26.7482 16.7268L25.9798 17.3668ZM25.002 16.2384L25.7426 15.5665L25.002 14.7502L24.2614 15.5665L25.002 16.2384ZM24.0241 17.3668L23.2542 16.7286L21.8578 18.4131L24.0453 18.3666L24.0241 17.3668ZM18.2828 30.7037L18.1142 31.6894L20.2733 32.0588L19.138 30.1855L18.2828 30.7037ZM17.3049 29.0102L18.1813 28.5286L17.1262 26.6085L16.3669 28.6636L17.3049 29.0102ZM16.8178 30.4221L15.8647 30.1196L15.5316 31.1694L16.6085 31.3999L16.8178 30.4221ZM21.8591 31.1373L21.0323 31.6998L21.3037 32.0988L21.785 32.1346L21.8591 31.1373ZM28.1411 31.1373L28.2152 32.1346L28.6966 32.0988L28.968 31.6997L28.1411 31.1373ZM31.2822 25.6936L32.1829 26.128L32.3923 25.6938L32.183 25.2594L31.2822 25.6936ZM28.1411 20.2499L28.9678 19.6872L28.6964 19.2884L28.2153 19.2526L28.1411 20.2499ZM21.8591 20.2499L21.785 19.2526L21.3037 19.2884L21.0323 19.6873L21.8591 20.2499ZM18.718 25.6936L17.8173 25.2593L17.6079 25.6936L17.8173 26.1279L18.718 25.6936ZM32.6971 22.377L31.8204 22.858L32.8752 24.7804L33.6352 22.7235L32.6971 22.377ZM33.1842 20.9669L34.137 21.2705L34.4708 20.2229L33.3964 19.9897L33.1842 20.9669ZM31.7211 20.6834L31.8893 19.6977L29.7341 19.33L30.8654 21.2009L31.7211 20.6834ZM14.1287 21.6858L15.0816 21.3824L14.7767 20.425L13.8208 20.7344L14.1287 21.6858ZM12.3433 22.3529L12.7375 23.2719L12.7389 23.2713L12.3433 22.3529ZM12.3433 29.0343L12.7389 28.1159L12.7373 28.1152L12.3433 29.0343ZM14.1287 29.7013L13.8208 30.6527L14.7779 30.9626L15.082 30.0035L14.1287 29.7013ZM15.6566 25.6936L16.5703 26.1L16.7515 25.6927L16.5696 25.2856L15.6566 25.6936ZM16.8141 20.9669L16.6011 19.9899L15.5227 20.225L15.8628 21.275L16.8141 20.9669ZM17.3031 22.3751L16.3655 22.7229L17.1256 24.7722L18.1792 22.8571L17.3031 22.3751ZM18.281 20.6834L19.1359 21.2021L20.2718 19.3297L18.1129 19.6977L18.281 20.6834ZM37.6587 29.0343L37.2644 28.1154L37.2632 28.1159L37.6587 29.0343ZM37.655 22.3529L37.2595 23.2713L37.2611 23.272L37.655 22.3529ZM35.8678 21.6858L36.1758 20.7344L35.2161 20.4238L34.9138 21.3861L35.8678 21.6858ZM34.3417 25.6936L33.4281 25.2871L33.2473 25.6936L33.4281 26.1L34.3417 25.6936ZM33.1842 30.4221L33.3936 31.3999L34.4761 31.1682L34.1358 30.1147L33.1842 30.4221ZM32.6953 29.0102L33.6332 28.6633L32.8736 26.61L31.819 28.5285L32.6953 29.0102ZM31.7174 30.7037L30.8621 30.1856L29.7283 32.0572L31.8854 31.6895L31.7174 30.7037ZM25.0001 27.4729C24.5287 27.4729 24.0765 27.2855 23.743 26.9519L22.3285 28.3658C23.037 29.0746 23.998 29.4729 25.0001 29.4729L25.0001 27.4729ZM23.743 26.9519C23.4095 26.6182 23.2221 26.1656 23.2221 25.6936L21.2221 25.6936C21.2221 26.6958 21.62 27.657 22.3285 28.3658L23.743 26.9519ZM23.2221 25.6936C23.2221 25.2215 23.4095 24.7689 23.743 24.4353L22.3285 23.0214C21.62 23.7302 21.2221 24.6914 21.2221 25.6936H23.2221ZM23.743 24.4353C24.0765 24.1016 24.5287 23.9143 25.0001 23.9143L25.0001 21.9143C23.998 21.9143 23.037 22.3126 22.3285 23.0214L23.743 24.4353ZM25.0001 23.9143C25.4715 23.9143 25.9237 24.1016 26.2572 24.4353L27.6717 23.0214C26.9633 22.3126 26.0023 21.9143 25.0001 21.9143L25.0001 23.9143ZM26.2572 24.4353C26.5907 24.7689 26.7782 25.2215 26.7782 25.6936L28.7782 25.6936C28.7782 24.6914 28.3802 23.7302 27.6717 23.0214L26.2572 24.4353ZM26.7782 25.6936C26.7782 26.1656 26.5907 26.6182 26.2572 26.9519L27.6717 28.3658C28.3802 27.657 28.7782 26.6958 28.7782 25.6936L26.7782 25.6936ZM26.2572 26.9519C25.9237 27.2855 25.4715 27.4729 25.0001 27.4729L25.0001 29.4729C26.0023 29.4729 26.9633 29.0746 27.6717 28.3658L26.2572 26.9519ZM23.2524 34.6586C23.5843 35.0589 23.9189 35.4474 24.2614 35.8228L25.7388 34.4747C25.422 34.1275 25.1084 33.7637 24.7921 33.3821L23.2524 34.6586ZM25.7407 35.8207C26.0789 35.4479 26.4146 35.0605 26.7478 34.6586L25.2081 33.3821C24.8931 33.7621 24.5769 34.127 24.2595 34.4768L25.7407 35.8207ZM25.9568 33.0206C25.3191 33.0341 24.6811 33.0341 24.0434 33.0206L24.0011 35.0201C24.667 35.0342 25.3332 35.0342 25.9992 35.0201L25.9568 33.0206ZM20.4306 32.7941C19.0455 32.6505 17.6696 32.4294 16.3092 32.1318L15.8819 34.0857C17.3152 34.3991 18.7649 34.6321 20.2243 34.7834L20.4306 32.7941ZM15.1183 32.8969C14.9768 33.5494 14.8665 34.2084 14.7877 34.8715L16.7737 35.1074C16.845 34.5074 16.9448 33.9111 17.0728 33.3207L15.1183 32.8969ZM14.7878 34.8703C14.6036 36.4063 14.6322 37.6965 14.8307 38.6956C15.0154 39.6258 15.4001 40.5597 16.1669 41.0014L17.1651 39.2683C17.1855 39.2801 16.9516 39.1078 16.7923 38.306C16.6468 37.5732 16.606 36.5056 16.7736 35.1085L14.7878 34.8703ZM16.1653 41.0004C16.9315 41.4436 17.9321 41.3098 18.83 41.0048C19.7941 40.6772 20.9254 40.0573 22.1637 39.1308L20.9655 37.5294C19.8387 38.3725 18.8939 38.8708 18.1866 39.1111C17.413 39.3739 17.1468 39.2577 17.1667 39.2692L16.1653 41.0004ZM22.1643 39.1304C22.6778 38.7456 23.1915 38.3206 23.7036 37.8602L22.3666 36.3728C21.8934 36.7981 21.4256 37.1847 20.9649 37.5299L22.1643 39.1304ZM23.7742 36.4429C22.8354 35.4128 21.955 34.3308 21.1373 33.2021L19.5176 34.3754C20.3792 35.5647 21.3068 36.7047 22.296 37.7901L23.7742 36.4429ZM33.691 32.1318C32.3306 32.4293 30.9547 32.6504 29.5696 32.7941L29.7759 34.7834C31.2353 34.6321 32.685 34.3991 34.1183 34.0857L33.691 32.1318ZM28.863 33.2021C28.0452 34.3308 27.1649 35.4128 26.226 36.4429L27.7042 37.7901C28.6934 36.7047 29.621 35.5647 30.4826 34.3754L28.863 33.2021ZM26.2951 37.8588C26.8093 38.323 27.3235 38.7464 27.8359 39.1304L29.0353 37.5299C28.5735 37.1839 28.1062 36.7994 27.6352 36.3742L26.2951 37.8588ZM27.8366 39.1308C29.0748 40.0573 30.2061 40.6772 31.1702 41.0048C32.0681 41.3098 33.0687 41.4436 33.8349 41.0004L32.8335 39.2692C32.8534 39.2577 32.5872 39.3739 31.8136 39.1111C31.1063 38.8708 30.1615 38.3725 29.0347 37.5294L27.8366 39.1308ZM33.8333 41.0014C34.6005 40.5595 34.9845 39.6252 35.1691 38.6956C35.3675 37.6969 35.3967 36.4071 35.2144 34.8715L33.2283 35.1073C33.3942 36.5048 33.3531 37.5728 33.2074 38.306C33.048 39.1084 32.8144 39.2802 32.8352 39.2683L33.8333 41.0014ZM35.2141 34.8691C35.1337 34.2059 35.0216 33.5486 34.8825 32.8992L32.9269 33.3183C33.0542 33.9125 33.156 34.5103 33.2286 35.1098L35.2141 34.8691ZM35.615 32.6033C36.1326 34.9716 36.2385 37.0292 35.9642 38.6158C35.6892 40.2072 35.0608 41.195 34.225 41.6776L35.2252 43.4095C36.7638 42.521 37.6031 40.8768 37.935 38.9565C38.2678 37.0315 38.12 34.6978 37.5689 32.1763L35.615 32.6033ZM34.225 41.6776C33.3893 42.1602 32.2202 42.2107 30.7053 41.6534C29.1949 41.0978 27.4668 39.9774 25.6755 38.3451L24.3284 39.8234C26.2357 41.5614 28.1819 42.8562 30.0149 43.5305C31.8434 44.2031 33.6866 44.298 35.2252 43.4095L34.225 41.6776ZM24.3284 38.3451C22.5372 39.9774 20.8092 41.0973 19.2988 41.6524C17.7841 42.2092 16.6148 42.1584 15.7789 41.6757L14.7787 43.4077C16.3171 44.2961 18.1602 44.2018 19.9888 43.5296C21.8218 42.8559 23.7682 41.5615 25.6755 39.8234L24.3284 38.3451ZM15.7789 41.6757C14.9431 41.193 14.3147 40.2056 14.0394 38.6145C13.765 37.0281 13.8704 34.9704 14.3872 32.6011L12.4331 32.1749C11.883 34.6972 11.7357 37.0307 12.0687 38.9555C12.4009 40.8756 13.2403 42.5192 14.7787 43.4077L15.7789 41.6757ZM13.7138 31.4352C11.4051 30.6994 9.57153 29.7623 8.33578 28.7315C7.09647 27.6977 6.55566 26.6593 6.55566 25.6936H4.55566C4.55566 27.4701 5.55852 29.0193 7.05466 30.2673C8.55436 31.5183 10.648 32.5572 13.1065 33.3408L13.7138 31.4352ZM6.55566 25.6936C6.55566 24.7278 7.09647 23.6895 8.33578 22.6557C9.57153 21.6249 11.4051 20.6878 13.7138 19.952L13.1065 18.0464C10.648 18.8299 8.55436 19.8689 7.05466 21.1199C5.55852 22.3679 4.55566 23.9171 4.55566 25.6936H6.55566ZM14.3872 18.7861C13.8704 16.4168 13.765 14.3591 14.0394 12.7726C14.3147 11.1816 14.9431 10.1941 15.7789 9.71145L14.7787 7.9795C13.2403 8.86794 12.4009 10.5116 12.0687 12.4317C11.7357 14.3564 11.883 16.69 12.4331 19.2123L14.3872 18.7861ZM15.7789 9.71145C16.6148 9.22873 17.7841 9.17799 19.2988 9.73475C20.8092 10.2899 22.5372 11.4098 24.3284 13.0421L25.6755 11.5638C23.7682 9.82569 21.8218 8.5313 19.9888 7.85754C18.1602 7.18539 16.3171 7.09111 14.7787 7.9795L15.7789 9.71145ZM25.6755 13.0421C27.4667 11.4098 29.1948 10.2899 30.7051 9.73475C32.2198 9.17799 33.3891 9.22873 34.225 9.71145L35.2252 7.9795C33.6868 7.09111 31.8438 7.18539 30.0151 7.85754C28.1821 8.5313 26.2357 9.82569 24.3284 11.5638L25.6755 13.0421ZM34.225 9.71145C35.0609 10.1941 35.6892 11.1816 35.9645 12.7726C36.239 14.3591 36.1335 16.4168 35.6168 18.7861L37.5708 19.2123C38.1209 16.69 38.2682 14.3564 37.9352 12.4317C37.603 10.5116 36.7637 8.86794 35.2252 7.9795L34.225 9.71145ZM36.2899 19.9519C38.5968 20.6877 40.4294 21.6248 41.6648 22.6556C42.9037 23.6894 43.4446 24.7278 43.4446 25.6936H45.4446C45.4446 23.9171 44.4417 22.368 42.9461 21.12C41.447 19.869 39.3542 18.83 36.8977 18.0465L36.2899 19.9519ZM43.4446 25.6936C43.4446 26.6595 42.9036 27.6983 41.6645 28.7326C40.4289 29.7638 38.5958 30.7013 36.2882 31.4371L36.8957 33.3426C39.3533 32.559 41.4466 31.5195 42.946 30.268C44.4418 29.0196 45.4446 27.47 45.4446 25.6936H43.4446ZM23.7032 13.5282C23.192 13.067 22.6778 12.6416 22.1643 12.2568L20.9649 13.8573C21.4256 14.2025 21.893 14.5887 22.3634 15.0131L23.7032 13.5282ZM22.1637 12.2563C20.9254 11.3299 19.7941 10.71 18.83 10.3824C17.9321 10.0773 16.9315 9.94353 16.1653 10.3867L17.1667 12.118C17.1468 12.1295 17.413 12.0132 18.1866 12.2761C18.8939 12.5164 19.8387 13.0147 20.9655 13.8577L22.1637 12.2563ZM16.1669 10.3858C15.3997 10.8276 15.0158 11.762 14.8311 12.6918C14.6328 13.6908 14.6036 14.981 14.7858 16.5174L16.7719 16.2818C16.606 14.8833 16.6472 13.8148 16.7928 13.0813C16.9522 12.2787 17.1859 12.1069 17.1651 12.1189L16.1669 10.3858ZM14.7863 16.5213C14.8639 17.1541 14.9724 17.8106 15.1153 18.487L17.0721 18.0735C16.9409 17.4529 16.842 16.8532 16.7714 16.2779L14.7863 16.5213ZM16.3078 19.2571C17.6687 18.9589 19.0452 18.7372 20.4309 18.5931L20.224 16.6038C18.7639 16.7556 17.3136 16.9892 15.8797 17.3034L16.3078 19.2571ZM21.1363 18.1865C21.9958 17.0043 22.8778 15.9203 23.7705 14.9464L22.2961 13.595C21.3478 14.6295 20.4185 15.7727 19.5186 17.0103L21.1363 18.1865ZM29.5712 18.5931C30.9562 18.7371 32.3321 18.9587 33.6923 19.2571L34.1207 17.3035C32.6874 16.9891 31.2376 16.7555 29.778 16.6038L29.5712 18.5931ZM34.8843 18.4897C35.0292 17.8133 35.1402 17.1521 35.2146 16.5157L33.2281 16.2835C33.1617 16.8515 33.0616 17.4502 32.9287 18.0708L34.8843 18.4897ZM35.2142 16.5187C35.3985 14.9818 35.3699 13.6912 35.1714 12.6918C34.9867 11.7614 34.6021 10.8275 33.8352 10.3858L32.837 12.1189C32.8165 12.1071 33.0505 12.2793 33.2097 13.0813C33.3553 13.8144 33.3961 14.8825 33.2285 16.2806L35.2142 16.5187ZM33.8368 10.3867C33.0706 9.94353 32.0699 10.0773 31.1721 10.3824C30.208 10.71 29.0767 11.3299 27.8384 12.2563L29.0365 13.8577C30.1633 13.0147 31.1082 12.5164 31.8155 12.2761C32.5891 12.0132 32.8553 12.1295 32.8354 12.118L33.8368 10.3867ZM27.8378 12.2568C27.3243 12.6416 26.8106 13.0666 26.2984 13.527L27.6355 15.0144C28.1086 14.5891 28.5765 14.2025 29.0372 13.8573L27.8378 12.2568ZM26.2298 14.9464C27.1229 15.9208 28.0066 17.0048 28.8658 18.1865L30.4834 17.0103C29.5832 15.7722 28.652 14.6291 27.7042 13.595L26.2298 14.9464ZM26.7482 16.7268C26.4171 16.3293 26.0817 15.9403 25.7426 15.5665L24.2614 16.9104C24.5778 17.2591 24.8944 17.6262 25.2115 18.0068L26.7482 16.7268ZM24.2614 15.5665C23.9232 15.9392 23.5875 16.3266 23.2542 16.7286L24.7939 18.005C25.1089 17.6251 25.4252 17.2602 25.7426 16.9104L24.2614 15.5665ZM24.0453 18.3666C24.683 18.353 25.3209 18.353 25.9586 18.3666L26.0011 16.367C25.3351 16.3529 24.6688 16.3529 24.0028 16.367L24.0453 18.3666ZM19.138 30.1855C18.8075 29.64 18.4885 29.0876 18.1813 28.5286L16.4285 29.4918C16.7493 30.0755 17.0824 30.6524 17.4276 31.222L19.138 30.1855ZM16.3669 28.6636C16.1866 29.1515 16.0184 29.6352 15.8647 30.1196L17.771 30.7246C17.9136 30.2751 18.0713 29.8213 18.243 29.3568L16.3669 28.6636ZM16.6085 31.3999C17.0982 31.5048 17.6026 31.6019 18.1142 31.6894L18.4514 29.7181C17.9666 29.6351 17.4894 29.5432 17.0272 29.4443L16.6085 31.3999ZM21.785 32.1346C23.9255 32.2935 26.0747 32.2935 28.2152 32.1346L28.0671 30.14C26.0252 30.2917 23.975 30.2917 21.9331 30.14L21.785 32.1346ZM28.968 31.6997C30.1755 29.9243 31.2501 28.062 32.1829 26.128L30.3815 25.2592C29.4915 27.1043 28.4663 28.8811 27.3143 30.5749L28.968 31.6997ZM32.183 25.2594C31.2507 23.3249 30.176 21.4624 28.9678 19.6872L27.3145 20.8125C28.4669 22.5058 29.492 24.2825 30.3814 26.1277L32.183 25.2594ZM28.2153 19.2526C26.0748 19.0936 23.9254 19.0936 21.785 19.2526L21.9332 21.2471C23.975 21.0954 26.0252 21.0954 28.067 21.2471L28.2153 19.2526ZM21.0323 19.6873C19.8244 21.4626 18.7498 23.325 17.8173 25.2593L19.6188 26.1279C20.5084 24.2826 21.5336 22.5059 22.6859 20.8124L21.0323 19.6873ZM17.8173 26.1279C18.7499 28.0621 19.8245 29.9245 21.0323 31.6998L22.6859 30.5748C21.5337 28.8812 20.5085 27.1045 19.6188 25.2592L17.8173 26.1279ZM33.6352 22.7235C33.8154 22.2356 33.9835 21.7524 34.137 21.2705L32.2314 20.6634C32.0886 21.1116 31.9307 21.5659 31.7591 22.0304L33.6352 22.7235ZM33.3964 19.9897C32.8963 19.8811 32.3938 19.7838 31.8893 19.6977L31.5529 21.6692C32.028 21.7502 32.5011 21.8419 32.9721 21.9442L33.3964 19.9897ZM30.8654 21.2009C31.1953 21.7465 31.5137 22.299 31.8204 22.858L33.5739 21.896C33.2537 21.3124 32.9213 20.7356 32.5768 20.166L30.8654 21.2009ZM13.8208 20.7344C13.1646 20.9468 12.5387 21.1799 11.9478 21.4344L12.7389 23.2713C13.2666 23.0441 13.8334 22.8325 14.4367 22.6372L13.8208 20.7344ZM11.9492 21.4338C10.5285 22.0431 9.42641 22.7133 8.66082 23.3846C7.94796 24.0097 7.33185 24.8092 7.33185 25.6936H9.33185C9.33185 25.7163 9.36489 25.4273 9.97947 24.8883C10.5413 24.3956 11.445 23.8262 12.7375 23.2719L11.9492 21.4338ZM7.33185 25.6936C7.33185 26.5775 7.94698 27.377 8.66 28.0024C9.42548 28.6739 10.5277 29.3441 11.9494 29.9534L12.7373 28.1152C11.4439 27.5609 10.5404 26.9915 9.9789 26.4989C9.36494 25.9604 9.33185 25.6712 9.33185 25.6936H7.33185ZM11.9478 29.9528C12.5387 30.2072 13.1646 30.4403 13.8208 30.6527L14.4367 28.7499C13.8334 28.5547 13.2666 28.3431 12.7389 28.1159L11.9478 29.9528ZM15.082 30.0035C15.4815 28.7431 15.9775 27.4327 16.5703 26.1L14.743 25.2871C14.1209 26.6856 13.5982 28.0656 13.1755 29.3992L15.082 30.0035ZM16.5696 25.2856C16.0011 24.0134 15.5043 22.7103 15.0816 21.3824L13.1758 21.9892C13.6213 23.3882 14.1447 24.7611 14.7436 26.1015L16.5696 25.2856ZM15.8628 21.275C16.017 21.7513 16.1846 22.2352 16.3655 22.7229L18.2407 22.0273C18.0697 21.5664 17.9113 21.109 17.7655 20.6588L15.8628 21.275ZM18.1792 22.8571C18.4864 22.2988 18.8054 21.747 19.1359 21.2021L17.426 20.1648C17.0808 20.7338 16.7477 21.31 16.4269 21.8931L18.1792 22.8571ZM18.1129 19.6977C17.5992 19.7852 17.0933 19.8826 16.6011 19.9899L17.0271 21.944C17.4869 21.8437 17.9627 21.7521 18.449 21.6692L18.1129 19.6977ZM36.1813 30.6527C36.8375 30.4403 37.4633 30.2072 38.0543 29.9528L37.2632 28.1159C36.7355 28.3431 36.1686 28.5547 35.5654 28.7499L36.1813 30.6527ZM38.0531 29.9533C39.473 29.3439 40.5742 28.6737 41.3391 28.0022C42.0515 27.3768 42.6665 26.5774 42.6665 25.6936H40.6665C40.6665 25.6713 40.6333 25.9605 40.0197 26.4992C39.4585 26.9918 38.5559 27.5611 37.2644 28.1154L38.0531 29.9533ZM42.6665 25.6936C42.6665 24.8096 42.0514 24.0102 41.3384 23.3847C40.5729 22.7132 39.4707 22.043 38.0489 21.4337L37.2611 23.272C38.5544 23.8263 39.458 24.3957 40.0195 24.8882C40.6334 25.4268 40.6665 25.716 40.6665 25.6936H42.6665ZM38.0506 21.4344C37.4591 21.1797 36.8312 20.9466 36.1758 20.7344L35.5599 22.6372C36.1637 22.8327 36.7324 23.0443 37.2595 23.2713L38.0506 21.4344ZM34.9138 21.3861C34.5186 22.6441 34.0213 23.9536 33.4281 25.2871L35.2554 26.1C35.8771 24.7024 36.4021 23.3216 36.8218 21.9855L34.9138 21.3861ZM33.4281 26.1C34.0209 27.4327 34.5169 28.7431 34.9164 30.0035L36.8229 29.3992C36.4002 28.0656 35.8775 26.6856 35.2554 25.2871L33.4281 26.1ZM34.1358 30.1147C33.9784 29.6274 33.8108 29.1435 33.6332 28.6633L31.7574 29.3572C31.9254 29.8112 32.0838 30.2688 32.2326 30.7295L34.1358 30.1147ZM31.819 28.5285C31.5117 29.0875 31.1926 29.64 30.8621 30.1856L32.5727 31.2219C32.9178 30.6523 33.2508 30.0755 33.5716 29.4919L31.819 28.5285ZM31.8854 31.6895C32.3993 31.6019 32.9038 31.5048 33.3936 31.3999L32.9749 29.4443C32.5127 29.5432 32.0357 29.6351 31.5494 29.718L31.8854 31.6895Z" fill="white" mask="url(#path-3-inside-1_84_116)"/>
</svg>
